%TF.GenerationSoftware,KiCad,Pcbnew,9.0.0*%
%TF.CreationDate,2025-11-02T14:13:04+01:00*%
%TF.ProjectId,QL_Minerva_MK2_SMD,514c5f4d-696e-4657-9276-615f4d4b325f,0.0*%
%TF.SameCoordinates,Original*%
%TF.FileFunction,Copper,L2,Bot*%
%TF.FilePolarity,Positive*%
%FSLAX46Y46*%
G04 Gerber Fmt 4.6, Leading zero omitted, Abs format (unit mm)*
G04 Created by KiCad (PCBNEW 9.0.0) date 2025-11-02 14:13:04*
%MOMM*%
%LPD*%
G01*
G04 APERTURE LIST*
G04 Aperture macros list*
%AMRoundRect*
0 Rectangle with rounded corners*
0 $1 Rounding radius*
0 $2 $3 $4 $5 $6 $7 $8 $9 X,Y pos of 4 corners*
0 Add a 4 corners polygon primitive as box body*
4,1,4,$2,$3,$4,$5,$6,$7,$8,$9,$2,$3,0*
0 Add four circle primitives for the rounded corners*
1,1,$1+$1,$2,$3*
1,1,$1+$1,$4,$5*
1,1,$1+$1,$6,$7*
1,1,$1+$1,$8,$9*
0 Add four rect primitives between the rounded corners*
20,1,$1+$1,$2,$3,$4,$5,0*
20,1,$1+$1,$4,$5,$6,$7,0*
20,1,$1+$1,$6,$7,$8,$9,0*
20,1,$1+$1,$8,$9,$2,$3,0*%
G04 Aperture macros list end*
%TA.AperFunction,ComponentPad*%
%ADD10RoundRect,0.250000X-0.550000X-0.550000X0.550000X-0.550000X0.550000X0.550000X-0.550000X0.550000X0*%
%TD*%
%TA.AperFunction,ComponentPad*%
%ADD11C,1.600000*%
%TD*%
%TA.AperFunction,ComponentPad*%
%ADD12C,2.200000*%
%TD*%
%TA.AperFunction,ViaPad*%
%ADD13C,0.800000*%
%TD*%
%TA.AperFunction,Conductor*%
%ADD14C,0.250000*%
%TD*%
G04 APERTURE END LIST*
D10*
%TO.P,U1,1,A15*%
%TO.N,+5V*%
X82610000Y-64835000D03*
D11*
%TO.P,U1,2,A12*%
%TO.N,/A12*%
X82610000Y-67375000D03*
%TO.P,U1,3,A7*%
%TO.N,/A7*%
X82610000Y-69915000D03*
%TO.P,U1,4,A6*%
%TO.N,/A6*%
X82610000Y-72455000D03*
%TO.P,U1,5,A5*%
%TO.N,/A5*%
X82610000Y-74995000D03*
%TO.P,U1,6,A4*%
%TO.N,/A4*%
X82610000Y-77535000D03*
%TO.P,U1,7,A3*%
%TO.N,/A3*%
X82610000Y-80075000D03*
%TO.P,U1,8,A2*%
%TO.N,/A2*%
X82610000Y-82615000D03*
%TO.P,U1,9,A1*%
%TO.N,/A1*%
X82610000Y-85155000D03*
%TO.P,U1,10,A0*%
%TO.N,/A0*%
X82610000Y-87695000D03*
%TO.P,U1,11,D0*%
%TO.N,/D0*%
X82610000Y-90235000D03*
%TO.P,U1,12,D1*%
%TO.N,/D1*%
X82610000Y-92775000D03*
%TO.P,U1,13,D2*%
%TO.N,/D2*%
X82610000Y-95315000D03*
%TO.P,U1,14,GND*%
%TO.N,GND*%
X82610000Y-97855000D03*
%TO.P,U1,15,D3*%
%TO.N,/D3*%
X97850000Y-97855000D03*
%TO.P,U1,16,D4*%
%TO.N,/D4*%
X97850000Y-95315000D03*
%TO.P,U1,17,D5*%
%TO.N,/D5*%
X97850000Y-92775000D03*
%TO.P,U1,18,D6*%
%TO.N,/D6*%
X97850000Y-90235000D03*
%TO.P,U1,19,D7*%
%TO.N,/D7*%
X97850000Y-87695000D03*
%TO.P,U1,20,~{CE}*%
%TO.N,/A15*%
X97850000Y-85155000D03*
%TO.P,U1,21,A10*%
%TO.N,/A10*%
X97850000Y-82615000D03*
%TO.P,U1,22,~{OE/Vpp}*%
%TO.N,/QL_ROMOE*%
X97850000Y-80075000D03*
%TO.P,U1,23,A11*%
%TO.N,/A11*%
X97850000Y-77535000D03*
%TO.P,U1,24,A9*%
%TO.N,/A9*%
X97850000Y-74995000D03*
%TO.P,U1,25,A8*%
%TO.N,/A8*%
X97850000Y-72455000D03*
%TO.P,U1,26,A13*%
%TO.N,/A13*%
X97850000Y-69915000D03*
%TO.P,U1,27,A14*%
%TO.N,/A14*%
X97850000Y-67375000D03*
%TO.P,U1,28,VCC*%
%TO.N,+5V*%
X97850000Y-64835000D03*
%TD*%
D12*
%TO.P,J1,1,Pin_1*%
%TO.N,Net-(D2-A)*%
X84865000Y-96550000D03*
X95485000Y-96550000D03*
%TD*%
D13*
%TO.N,GND*%
X79225000Y-92500000D03*
X68025000Y-81700000D03*
X77550000Y-65875000D03*
X77027500Y-72920000D03*
X74125000Y-74125000D03*
X74100000Y-81700000D03*
X94910000Y-73240000D03*
X86638000Y-91105000D03*
X95875000Y-101200000D03*
X71700000Y-86575000D03*
X65400000Y-100975000D03*
X63825000Y-96775000D03*
X74975000Y-101075000D03*
X78450000Y-101125000D03*
X79200000Y-89925000D03*
X63900000Y-90250000D03*
X72950000Y-71600000D03*
X66175000Y-63325000D03*
X91350000Y-72200000D03*
X80175000Y-63375000D03*
X62850000Y-71100000D03*
X71650000Y-81700000D03*
X61650000Y-63375000D03*
X82875000Y-101050000D03*
X63850000Y-86500000D03*
X68250000Y-101050000D03*
X63900000Y-93725000D03*
X63900000Y-99100000D03*
X71575000Y-101075000D03*
X71700000Y-65875000D03*
X93275000Y-101150000D03*
X90000000Y-101125000D03*
X70605000Y-98056800D03*
X88200000Y-69675000D03*
X94910000Y-71970000D03*
X74325000Y-65875000D03*
X64350000Y-66500000D03*
X59750000Y-63325000D03*
X82650000Y-63350000D03*
X86725000Y-101150000D03*
X77075000Y-81700000D03*
X97900000Y-63375000D03*
X59650000Y-78800000D03*
X63875000Y-82475000D03*
%TO.N,/SCL*%
X70435000Y-67597500D03*
X62850001Y-69850000D03*
X85460000Y-73240000D03*
X88550000Y-79675000D03*
%TO.N,/SDA*%
X71705000Y-67597500D03*
X85460000Y-71970000D03*
X87500000Y-72550000D03*
X62850000Y-68600000D03*
%TO.N,/D0*%
X80350000Y-67725000D03*
X62900000Y-75250000D03*
X66363200Y-96355000D03*
%TO.N,/D1*%
X68065000Y-98056800D03*
%TO.N,/D2*%
X69335000Y-98056800D03*
%TO.N,/D7*%
X84450000Y-91325000D03*
X93002958Y-93036991D03*
%TO.N,/QL_ROMOE*%
X68922500Y-74190000D03*
%TO.N,Net-(U3-OSCI)*%
X94910000Y-75780000D03*
X92135000Y-68174999D03*
X88625300Y-66825000D03*
%TO.N,/IC_ROMOE*%
X68175000Y-95100000D03*
X64850000Y-95125000D03*
X68922500Y-69110000D03*
X64800000Y-69500000D03*
%TO.N,/A15*%
X93762000Y-89835000D03*
X72765724Y-93088534D03*
X68922500Y-71650000D03*
X70575000Y-77500000D03*
%TO.N,/A12*%
X84950153Y-81699847D03*
X83885000Y-75710671D03*
%TO.N,/A7*%
X69100000Y-79125000D03*
X74000000Y-79075000D03*
X79600000Y-79000000D03*
X79850000Y-72975000D03*
%TO.N,/A6*%
X86638000Y-84755000D03*
X66363200Y-86195000D03*
%TO.N,/A5*%
X68875000Y-75725000D03*
X66363200Y-87465000D03*
X68825000Y-86425000D03*
X66250000Y-84975000D03*
X66225000Y-75925000D03*
%TO.N,/A4*%
X74250000Y-77550000D03*
X71705000Y-75702500D03*
X66363200Y-88735000D03*
%TO.N,/A3*%
X86638000Y-86025000D03*
X66363200Y-90005000D03*
%TO.N,/A2*%
X66363200Y-91275000D03*
%TO.N,/A1*%
X79600000Y-80650000D03*
X66363200Y-92545000D03*
X78875799Y-86048895D03*
X77050000Y-75925000D03*
%TO.N,/A0*%
X78175000Y-79700000D03*
X77027500Y-74190000D03*
X69525000Y-88950000D03*
X70625000Y-93815000D03*
X76850000Y-82800000D03*
%TO.N,/A10*%
X84350000Y-88175000D03*
X93685847Y-88488847D03*
%TO.N,/A11*%
X93762000Y-87295000D03*
X83775000Y-86375000D03*
%TO.N,/A9*%
X83826000Y-84425000D03*
X93762000Y-86025000D03*
%TO.N,/A8*%
X95798442Y-77923442D03*
X86875000Y-95425000D03*
X84765761Y-89084476D03*
X75325000Y-96225000D03*
X90825000Y-89025000D03*
X85750000Y-93176000D03*
X73726929Y-92812689D03*
X75300000Y-93425000D03*
X86825000Y-98050000D03*
%TO.N,/A13*%
X93762000Y-83485000D03*
X80675000Y-83800000D03*
%TO.N,/A14*%
X74415000Y-84493200D03*
X78901416Y-69649999D03*
X75250000Y-73425000D03*
X75250000Y-69800000D03*
X78575000Y-67200000D03*
%TO.N,/K*%
X86761000Y-69685492D03*
X67700000Y-65975000D03*
X62850000Y-73600000D03*
X91675000Y-76875000D03*
%TO.N,+5V*%
X74245000Y-75702500D03*
X62850001Y-72350000D03*
X89200000Y-83000000D03*
X90650000Y-82925000D03*
X91225000Y-69425000D03*
X89600000Y-69425000D03*
X72975000Y-75702500D03*
X66575000Y-70380000D03*
X68922500Y-70380000D03*
%TO.N,Net-(D2-A)*%
X92062750Y-79675000D03*
%TD*%
D14*
%TO.N,GND*%
X68025000Y-81700000D02*
X71650000Y-81700000D01*
X71700000Y-81750000D02*
X71650000Y-81700000D01*
X79225000Y-92500000D02*
X79225000Y-89950000D01*
X74125000Y-72775000D02*
X74125000Y-74125000D01*
X77675000Y-65875000D02*
X77550000Y-65875000D01*
X79225000Y-89950000D02*
X79200000Y-89925000D01*
X80175000Y-63375000D02*
X77675000Y-65875000D01*
X74100000Y-81700000D02*
X71650000Y-81700000D01*
X88200000Y-70300000D02*
X88200000Y-69675000D01*
X90100000Y-72200000D02*
X88200000Y-70300000D01*
X72950000Y-71600000D02*
X74125000Y-72775000D01*
X91350000Y-72200000D02*
X90100000Y-72200000D01*
X71700000Y-86575000D02*
X71700000Y-81750000D01*
%TO.N,/SCL*%
X89275000Y-77055000D02*
X85460000Y-73240000D01*
X83295000Y-71075000D02*
X85460000Y-73240000D01*
X70497500Y-67597500D02*
X73975000Y-71075000D01*
X65377501Y-67322500D02*
X70160000Y-67322500D01*
X89275000Y-79175000D02*
X89275000Y-77055000D01*
X88550000Y-79675000D02*
X88775000Y-79675000D01*
X62850001Y-69850000D02*
X65377501Y-67322500D01*
X73975000Y-71075000D02*
X83295000Y-71075000D01*
X70160000Y-67322500D02*
X70435000Y-67597500D01*
X70435000Y-67597500D02*
X70497500Y-67597500D01*
X88775000Y-79675000D02*
X89275000Y-79175000D01*
%TO.N,/SDA*%
X69973190Y-66871500D02*
X70134280Y-66871500D01*
X70735720Y-66871500D02*
X70979000Y-66871500D01*
X87500000Y-72550000D02*
X87025000Y-72075000D01*
X81661000Y-68789000D02*
X81525000Y-68925000D01*
X70979000Y-66871500D02*
X71705000Y-67597500D01*
X87025000Y-72075000D02*
X85565000Y-72075000D01*
X85460000Y-70735000D02*
X83514000Y-68789000D01*
X70134280Y-66871500D02*
X70346810Y-66871500D01*
X83514000Y-68789000D02*
X81661000Y-68789000D01*
X73032500Y-68925000D02*
X71705000Y-67597500D01*
X62850000Y-68600000D02*
X63462191Y-68600000D01*
X65303500Y-66871500D02*
X65564311Y-66871500D01*
X85460000Y-71970000D02*
X85460000Y-70735000D01*
X70346810Y-66871500D02*
X70735720Y-66871500D01*
X81525000Y-68925000D02*
X73032500Y-68925000D01*
X65564311Y-66871500D02*
X69973190Y-66871500D01*
X65190691Y-66871500D02*
X65303500Y-66871500D01*
X85565000Y-72075000D02*
X85460000Y-71970000D01*
X64926501Y-67135690D02*
X65190691Y-66871500D01*
X63462191Y-68600000D02*
X64926501Y-67135690D01*
%TO.N,/D0*%
X76500000Y-65075000D02*
X76500000Y-66950000D01*
X80125000Y-67950000D02*
X80350000Y-67725000D01*
X60825000Y-64675000D02*
X76100000Y-64675000D01*
X66363200Y-96355000D02*
X66393200Y-96325000D01*
X82590000Y-90235000D02*
X82610000Y-90235000D01*
X59625000Y-66725000D02*
X59625000Y-65875000D01*
X66393200Y-96325000D02*
X69158990Y-96325000D01*
X78559000Y-94266000D02*
X82590000Y-90235000D01*
X69835095Y-95648895D02*
X70575485Y-95648895D01*
X69158990Y-96325000D02*
X69835095Y-95648895D01*
X62900000Y-75250000D02*
X59625000Y-71975000D01*
X71958380Y-94266000D02*
X78559000Y-94266000D01*
X59625000Y-71975000D02*
X59625000Y-66525000D01*
X59625000Y-65875000D02*
X60825000Y-64675000D01*
X77500000Y-67950000D02*
X80125000Y-67950000D01*
X76500000Y-66950000D02*
X77500000Y-67950000D01*
X70575485Y-95648895D02*
X71958380Y-94266000D01*
X76100000Y-64675000D02*
X76500000Y-65075000D01*
%TO.N,/D1*%
X71881000Y-94981190D02*
X72145190Y-94717000D01*
X70587190Y-96275000D02*
X71881000Y-94981190D01*
X69846800Y-96275000D02*
X70587190Y-96275000D01*
X72518810Y-94717000D02*
X72883000Y-94717000D01*
X68065000Y-98056800D02*
X69846800Y-96275000D01*
X72883000Y-94717000D02*
X80668000Y-94717000D01*
X80668000Y-94717000D02*
X80686000Y-94699000D01*
X80686000Y-94699000D02*
X82610000Y-92775000D01*
X72145190Y-94717000D02*
X72518810Y-94717000D01*
%TO.N,/D2*%
X82445000Y-95150000D02*
X82610000Y-95315000D01*
X72332000Y-95168000D02*
X80854810Y-95168000D01*
X69443200Y-98056800D02*
X72332000Y-95168000D01*
X80872810Y-95150000D02*
X82445000Y-95150000D01*
X80854810Y-95168000D02*
X80872810Y-95150000D01*
X69335000Y-98056800D02*
X69443200Y-98056800D01*
%TO.N,/D7*%
X85575000Y-92450000D02*
X84450000Y-91325000D01*
X93002958Y-93036991D02*
X92564949Y-93475000D01*
X92564949Y-93475000D02*
X87075720Y-93475000D01*
X87075720Y-93475000D02*
X86050720Y-92450000D01*
X86050720Y-92450000D02*
X85575000Y-92450000D01*
%TO.N,/QL_ROMOE*%
X62275000Y-102100000D02*
X63050000Y-102875000D01*
X68922500Y-74190000D02*
X65560000Y-74190000D01*
X98275000Y-102875000D02*
X98976000Y-102174000D01*
X62275000Y-77475000D02*
X62275000Y-102100000D01*
X63050000Y-102875000D02*
X98275000Y-102875000D01*
X65560000Y-74190000D02*
X62275000Y-77475000D01*
X98976000Y-102174000D02*
X98976000Y-81201000D01*
X98976000Y-81201000D02*
X97850000Y-80075000D01*
%TO.N,Net-(U3-OSCI)*%
X91600000Y-66875000D02*
X88675300Y-66875000D01*
X94910000Y-75780000D02*
X92480000Y-75780000D01*
X92480000Y-75780000D02*
X92135000Y-75435000D01*
X92135000Y-75435000D02*
X92135000Y-68174999D01*
X88675300Y-66875000D02*
X88625300Y-66825000D01*
X92135000Y-68174999D02*
X92135000Y-67410000D01*
X92135000Y-67410000D02*
X91600000Y-66875000D01*
%TO.N,/IC_ROMOE*%
X68598500Y-67773500D02*
X65564311Y-67773500D01*
X68922500Y-69110000D02*
X68922500Y-68097500D01*
X68150000Y-95125000D02*
X64875000Y-95125000D01*
X65564311Y-67773500D02*
X64800000Y-68537811D01*
X64875000Y-95125000D02*
X64850000Y-95100000D01*
X64800000Y-68537811D02*
X64800000Y-69500000D01*
X68922500Y-68097500D02*
X68598500Y-67773500D01*
X68175000Y-95100000D02*
X68150000Y-95125000D01*
%TO.N,/A15*%
X70950000Y-72225000D02*
X70375000Y-71650000D01*
X83802405Y-89835000D02*
X83076405Y-89109000D01*
X72900000Y-92362810D02*
X72900000Y-92954258D01*
X70950000Y-77125000D02*
X70950000Y-72225000D01*
X93762000Y-89835000D02*
X83802405Y-89835000D01*
X76153810Y-89109000D02*
X72900000Y-92362810D01*
X72900000Y-92954258D02*
X72765724Y-93088534D01*
X70375000Y-71650000D02*
X68922500Y-71650000D01*
X83076405Y-89109000D02*
X76153810Y-89109000D01*
X70575000Y-77500000D02*
X70950000Y-77125000D01*
%TO.N,/A12*%
X83885000Y-80634694D02*
X83885000Y-75710671D01*
X84950153Y-81699847D02*
X83885000Y-80634694D01*
%TO.N,/A7*%
X79850000Y-78750000D02*
X79600000Y-79000000D01*
X69100000Y-79125000D02*
X73950000Y-79125000D01*
X73950000Y-79125000D02*
X74000000Y-79075000D01*
X79850000Y-72975000D02*
X79850000Y-78750000D01*
%TO.N,/A6*%
X67641000Y-87278190D02*
X67961810Y-87599000D01*
X80325000Y-74740000D02*
X82610000Y-72455000D01*
X86505000Y-84755000D02*
X85650000Y-83900000D01*
X84350000Y-75148951D02*
X84350000Y-74195000D01*
X67376810Y-87014000D02*
X67641000Y-87278190D01*
X68226000Y-87863190D02*
X68226000Y-88236810D01*
X68575000Y-89875000D02*
X71437190Y-89875000D01*
X71437190Y-89875000D02*
X80325000Y-80987190D01*
X85676153Y-81399127D02*
X85250873Y-80973847D01*
X86638000Y-84755000D02*
X86505000Y-84755000D01*
X84350000Y-74195000D02*
X82610000Y-72455000D01*
X67961810Y-87599000D02*
X68125000Y-87762190D01*
X84861963Y-80973847D02*
X84350000Y-80461884D01*
X85650000Y-82026720D02*
X85676153Y-82000567D01*
X68125000Y-87762190D02*
X68226000Y-87863190D01*
X85250873Y-80973847D02*
X84861963Y-80973847D01*
X84350000Y-80461884D02*
X84350000Y-76272391D01*
X68226000Y-89526000D02*
X68575000Y-89875000D01*
X84611000Y-75409951D02*
X84350000Y-75148951D01*
X80325000Y-80987190D02*
X80325000Y-74740000D01*
X84350000Y-76272391D02*
X84611000Y-76011391D01*
X66363200Y-86195000D02*
X66557810Y-86195000D01*
X85676153Y-82000567D02*
X85676153Y-81399127D01*
X68226000Y-88236810D02*
X68226000Y-89526000D01*
X66557810Y-86195000D02*
X67376810Y-87014000D01*
X85650000Y-83900000D02*
X85650000Y-82026720D01*
X84611000Y-76011391D02*
X84611000Y-75409951D01*
%TO.N,/A5*%
X66425000Y-75725000D02*
X66225000Y-75925000D01*
X80800000Y-81150000D02*
X80800000Y-76805000D01*
X66363200Y-87465000D02*
X67190000Y-87465000D01*
X68825000Y-86425000D02*
X68825000Y-85500000D01*
X80800000Y-76805000D02*
X82610000Y-74995000D01*
X68825000Y-85500000D02*
X68300000Y-84975000D01*
X67775000Y-89775000D02*
X68374000Y-90374000D01*
X68374000Y-90374000D02*
X71576000Y-90374000D01*
X68875000Y-75725000D02*
X66425000Y-75725000D01*
X68300000Y-84975000D02*
X66250000Y-84975000D01*
X71576000Y-90374000D02*
X80800000Y-81150000D01*
X67775000Y-88050000D02*
X67775000Y-89775000D01*
X67190000Y-87465000D02*
X67775000Y-88050000D01*
%TO.N,/A4*%
X66363200Y-88735000D02*
X65510000Y-88735000D01*
X65750000Y-78375000D02*
X71725000Y-78375000D01*
X64925000Y-79200000D02*
X65750000Y-78375000D01*
X71725000Y-78375000D02*
X71725000Y-75722500D01*
X65510000Y-88735000D02*
X64925000Y-88150000D01*
X74250000Y-77550000D02*
X73425000Y-78375000D01*
X73425000Y-78375000D02*
X71725000Y-78375000D01*
X71725000Y-75722500D02*
X71705000Y-75702500D01*
X64925000Y-88150000D02*
X64925000Y-79200000D01*
%TO.N,/A3*%
X84850000Y-83784470D02*
X84850000Y-82825000D01*
X84850000Y-82825000D02*
X82610000Y-80585000D01*
X85003000Y-84311090D02*
X85003000Y-84122000D01*
X71860000Y-90825000D02*
X82610000Y-80075000D01*
X85003000Y-84122000D02*
X85003000Y-83937470D01*
X85210430Y-85022000D02*
X85197620Y-85022000D01*
X85474620Y-85286190D02*
X85210430Y-85022000D01*
X85003000Y-84827380D02*
X85003000Y-84538910D01*
X86214430Y-86026000D02*
X85474620Y-85286190D01*
X85003000Y-84428000D02*
X85003000Y-84311090D01*
X67183200Y-90825000D02*
X71860000Y-90825000D01*
X85197620Y-85022000D02*
X85003000Y-84827380D01*
X82610000Y-80585000D02*
X82610000Y-80075000D01*
X66363200Y-90005000D02*
X67183200Y-90825000D01*
X86637000Y-86026000D02*
X86214430Y-86026000D01*
X85003000Y-84538910D02*
X85003000Y-84428000D01*
X86638000Y-86025000D02*
X86637000Y-86026000D01*
X85003000Y-83937470D02*
X84850000Y-83784470D01*
%TO.N,/A2*%
X80707810Y-82615000D02*
X82610000Y-82615000D01*
X66363200Y-91275000D02*
X72047810Y-91275000D01*
X72047810Y-91275000D02*
X80707810Y-82615000D01*
%TO.N,/A1*%
X79600000Y-80650000D02*
X77625000Y-80650000D01*
X78160773Y-85799847D02*
X72234620Y-91726000D01*
X78626752Y-85799847D02*
X78160773Y-85799847D01*
X78875799Y-86048895D02*
X78626752Y-85799847D01*
X77625000Y-80650000D02*
X77050000Y-80075000D01*
X67182200Y-91726000D02*
X66363200Y-92545000D01*
X81390000Y-86375000D02*
X82610000Y-85155000D01*
X79201904Y-86375000D02*
X81390000Y-86375000D01*
X77050000Y-80075000D02*
X77050000Y-75925000D01*
X78875799Y-86048895D02*
X79201904Y-86375000D01*
X72234620Y-91726000D02*
X67182200Y-91726000D01*
%TO.N,/A0*%
X76850000Y-82800000D02*
X76825000Y-82825000D01*
X77965000Y-74190000D02*
X78300000Y-74525000D01*
X76825000Y-83849380D02*
X71374380Y-89300000D01*
X70625000Y-93815000D02*
X70810000Y-93815000D01*
X70810000Y-93815000D02*
X76930000Y-87695000D01*
X71374380Y-89300000D02*
X69875000Y-89300000D01*
X76825000Y-82825000D02*
X76825000Y-83849380D01*
X78300000Y-74525000D02*
X78300000Y-79575000D01*
X77027500Y-74190000D02*
X77965000Y-74190000D01*
X76930000Y-87695000D02*
X82610000Y-87695000D01*
X69875000Y-89300000D02*
X69525000Y-88950000D01*
X78300000Y-79575000D02*
X78175000Y-79700000D01*
%TO.N,/A10*%
X92836097Y-88488847D02*
X92522250Y-88175000D01*
X84350000Y-88175000D02*
X86225000Y-88175000D01*
X92522250Y-88175000D02*
X85900000Y-88175000D01*
X93685847Y-88488847D02*
X92836097Y-88488847D01*
%TO.N,/A11*%
X84650000Y-86375000D02*
X83775000Y-86375000D01*
X92912250Y-87295000D02*
X92483250Y-87724000D01*
X92483250Y-87724000D02*
X85999000Y-87724000D01*
X93762000Y-87295000D02*
X92912250Y-87295000D01*
X85999000Y-87724000D02*
X84650000Y-86375000D01*
%TO.N,/A9*%
X93762000Y-86025000D02*
X92912000Y-86025000D01*
X91664000Y-87273000D02*
X86185810Y-87273000D01*
X84836810Y-85924000D02*
X84824000Y-85924000D01*
X85101000Y-86188190D02*
X84836810Y-85924000D01*
X86185810Y-87273000D02*
X85101000Y-86188190D01*
X84824000Y-85924000D02*
X83825000Y-84925000D01*
X83825000Y-84925000D02*
X83825000Y-84426000D01*
X83825000Y-84426000D02*
X83826000Y-84425000D01*
X92912000Y-86025000D02*
X91664000Y-87273000D01*
%TO.N,/A8*%
X77150000Y-99525000D02*
X75325000Y-97700000D01*
X73814771Y-92724847D02*
X75074847Y-92724847D01*
X84825237Y-89025000D02*
X84765761Y-89084476D01*
X85750000Y-93176000D02*
X86875000Y-94301000D01*
X85900000Y-89025000D02*
X84825237Y-89025000D01*
X96225000Y-74080000D02*
X97850000Y-72455000D01*
X90825000Y-89025000D02*
X85900000Y-89025000D01*
X86825000Y-98050000D02*
X85350000Y-99525000D01*
X73726929Y-92812689D02*
X73814771Y-92724847D01*
X95798442Y-77923442D02*
X96225000Y-77496884D01*
X75325000Y-97700000D02*
X75325000Y-96225000D01*
X85350000Y-99525000D02*
X77150000Y-99525000D01*
X96225000Y-77496884D02*
X96225000Y-74080000D01*
X75300000Y-92950000D02*
X75300000Y-93425000D01*
X86875000Y-94301000D02*
X86875000Y-95425000D01*
X75074847Y-92724847D02*
X75300000Y-92950000D01*
%TO.N,/A13*%
X94575000Y-83075000D02*
X94575000Y-82075000D01*
X82143595Y-83741000D02*
X82101595Y-83699000D01*
X95636000Y-72129000D02*
X97850000Y-69915000D01*
X86301620Y-86751000D02*
X85023620Y-85473000D01*
X84552000Y-84124280D02*
X84126720Y-83699000D01*
X94575000Y-82075000D02*
X94150000Y-81650000D01*
X84126720Y-83699000D02*
X83525280Y-83699000D01*
X93616720Y-78100000D02*
X95636000Y-76080720D01*
X82101595Y-83699000D02*
X80776000Y-83699000D01*
X84552000Y-85014190D02*
X84552000Y-84725720D01*
X91100000Y-78350000D02*
X91350000Y-78100000D01*
X83118405Y-83699000D02*
X83076405Y-83741000D01*
X91350000Y-78100000D02*
X93616720Y-78100000D01*
X94150000Y-81650000D02*
X91900000Y-81650000D01*
X93762000Y-83485000D02*
X92912001Y-83485000D01*
X91100000Y-80850000D02*
X91100000Y-78350000D01*
X93762000Y-83485000D02*
X94165000Y-83485000D01*
X89646001Y-86751000D02*
X86301620Y-86751000D01*
X94165000Y-83485000D02*
X94575000Y-83075000D01*
X95636000Y-76080720D02*
X95636000Y-72129000D01*
X84552000Y-84725720D02*
X84552000Y-84124280D01*
X83525280Y-83699000D02*
X83118405Y-83699000D01*
X85010810Y-85473000D02*
X84552000Y-85014190D01*
X92912001Y-83485000D02*
X89646001Y-86751000D01*
X85023620Y-85473000D02*
X85010810Y-85473000D01*
X91900000Y-81650000D02*
X91100000Y-80850000D01*
X83076405Y-83741000D02*
X82143595Y-83741000D01*
X80776000Y-83699000D02*
X80675000Y-83800000D01*
%TO.N,/A14*%
X78751415Y-69800000D02*
X75250000Y-69800000D01*
X96475000Y-66000000D02*
X97850000Y-67375000D01*
X80035639Y-66000000D02*
X96475000Y-66000000D01*
X78901416Y-69649999D02*
X78751415Y-69800000D01*
X78575000Y-67200000D02*
X79188000Y-66587000D01*
X75250000Y-73425000D02*
X75250000Y-83658200D01*
X79448639Y-66587000D02*
X80035639Y-66000000D01*
X75250000Y-83658200D02*
X74415000Y-84493200D01*
X79188000Y-66587000D02*
X79448639Y-66587000D01*
%TO.N,/K*%
X60076000Y-66911810D02*
X60076000Y-71676000D01*
X91675000Y-74599492D02*
X86761000Y-69685492D01*
X60076000Y-71676000D02*
X62000000Y-73600000D01*
X60076000Y-66061810D02*
X60076000Y-66338190D01*
X67700000Y-65975000D02*
X66851000Y-65126000D01*
X60076000Y-66338190D02*
X60076000Y-66911810D01*
X62000000Y-73600000D02*
X62850000Y-73600000D01*
X61011810Y-65126000D02*
X60076000Y-66061810D01*
X66851000Y-65126000D02*
X61011810Y-65126000D01*
X91675000Y-76875000D02*
X91675000Y-74599492D01*
%TO.N,+5V*%
X63825000Y-72350000D02*
X65795000Y-70380000D01*
X89200000Y-83000000D02*
X90575000Y-83000000D01*
X72975000Y-75702500D02*
X74245000Y-75702500D01*
X89600000Y-69425000D02*
X91225000Y-69425000D01*
X73000000Y-75677500D02*
X72975000Y-75702500D01*
X68922500Y-70380000D02*
X69742810Y-70380000D01*
X66575000Y-70380000D02*
X68922500Y-70380000D01*
X62850001Y-72350000D02*
X63825000Y-72350000D01*
X65795000Y-70380000D02*
X66575000Y-70380000D01*
X71401000Y-73201000D02*
X73000000Y-74800000D01*
X90575000Y-83000000D02*
X90650000Y-82925000D01*
X69742810Y-70380000D02*
X71401000Y-72038190D01*
X71401000Y-72038190D02*
X71401000Y-73201000D01*
X73000000Y-74800000D02*
X73000000Y-75677500D01*
%TO.N,Net-(D2-A)*%
X92062750Y-79675000D02*
X92062750Y-80550250D01*
X84865000Y-96550000D02*
X95485000Y-96550000D01*
X92062750Y-80550250D02*
X92562500Y-81050000D01*
X95485000Y-81635000D02*
X95485000Y-96550000D01*
X92562500Y-81050000D02*
X94900000Y-81050000D01*
X94900000Y-81050000D02*
X95485000Y-81635000D01*
%TD*%
%TA.AperFunction,Conductor*%
%TO.N,GND*%
G36*
X98314504Y-62809982D02*
G01*
X98474359Y-62823968D01*
X98495987Y-62827781D01*
X98526383Y-62835925D01*
X98645678Y-62867890D01*
X98666303Y-62875396D01*
X98806765Y-62940895D01*
X98825776Y-62951871D01*
X98905304Y-63007557D01*
X98952724Y-63040761D01*
X98969548Y-63054879D01*
X99079120Y-63164451D01*
X99093238Y-63181275D01*
X99182125Y-63308218D01*
X99193107Y-63327239D01*
X99258599Y-63467687D01*
X99266111Y-63488327D01*
X99306218Y-63638012D01*
X99310032Y-63659640D01*
X99324022Y-63819547D01*
X99324501Y-63830481D01*
X99331020Y-80791455D01*
X99311044Y-80859583D01*
X99257406Y-80906097D01*
X99187136Y-80916227D01*
X99122544Y-80886759D01*
X99115925Y-80880598D01*
X98810107Y-80574780D01*
X98776081Y-80512468D01*
X98781146Y-80441653D01*
X98782772Y-80437520D01*
X98812051Y-80366835D01*
X98850500Y-80173541D01*
X98850500Y-79976459D01*
X98812051Y-79783165D01*
X98736632Y-79601086D01*
X98627139Y-79437218D01*
X98487782Y-79297861D01*
X98323914Y-79188368D01*
X98248537Y-79157146D01*
X98141838Y-79112950D01*
X98141835Y-79112949D01*
X97948544Y-79074500D01*
X97948541Y-79074500D01*
X97751459Y-79074500D01*
X97751455Y-79074500D01*
X97558164Y-79112949D01*
X97558161Y-79112950D01*
X97376085Y-79188368D01*
X97212222Y-79297858D01*
X97212215Y-79297863D01*
X97072863Y-79437215D01*
X97072858Y-79437222D01*
X96963368Y-79601085D01*
X96887950Y-79783161D01*
X96887949Y-79783164D01*
X96849500Y-79976455D01*
X96849500Y-80173544D01*
X96887949Y-80366835D01*
X96887950Y-80366838D01*
X96914541Y-80431034D01*
X96963368Y-80548914D01*
X97072861Y-80712782D01*
X97212218Y-80852139D01*
X97376086Y-80961632D01*
X97558165Y-81037051D01*
X97751459Y-81075500D01*
X97948541Y-81075500D01*
X98141835Y-81037051D01*
X98212468Y-81007793D01*
X98283055Y-81000204D01*
X98346542Y-81031982D01*
X98349780Y-81035107D01*
X98613595Y-81298922D01*
X98647621Y-81361234D01*
X98650500Y-81388017D01*
X98650500Y-81710856D01*
X98630498Y-81778977D01*
X98576842Y-81825470D01*
X98506568Y-81835574D01*
X98454498Y-81815621D01*
X98323914Y-81728368D01*
X98141838Y-81652950D01*
X98141835Y-81652949D01*
X97948544Y-81614500D01*
X97948541Y-81614500D01*
X97751459Y-81614500D01*
X97751455Y-81614500D01*
X97558164Y-81652949D01*
X97558161Y-81652950D01*
X97376085Y-81728368D01*
X97212222Y-81837858D01*
X97212215Y-81837863D01*
X97072863Y-81977215D01*
X97072858Y-81977222D01*
X96963368Y-82141085D01*
X96887950Y-82323161D01*
X96887949Y-82323164D01*
X96849500Y-82516455D01*
X96849500Y-82713544D01*
X96887949Y-82906835D01*
X96887950Y-82906838D01*
X96946695Y-83048662D01*
X96963368Y-83088914D01*
X97072861Y-83252782D01*
X97212218Y-83392139D01*
X97376086Y-83501632D01*
X97558165Y-83577051D01*
X97751459Y-83615500D01*
X97948541Y-83615500D01*
X98141835Y-83577051D01*
X98323914Y-83501632D01*
X98454499Y-83414377D01*
X98522251Y-83393163D01*
X98590718Y-83411946D01*
X98638161Y-83464763D01*
X98650500Y-83519143D01*
X98650500Y-84250856D01*
X98630498Y-84318977D01*
X98576842Y-84365470D01*
X98506568Y-84375574D01*
X98454498Y-84355621D01*
X98323914Y-84268368D01*
X98141838Y-84192950D01*
X98141835Y-84192949D01*
X97948544Y-84154500D01*
X97948541Y-84154500D01*
X97751459Y-84154500D01*
X97751455Y-84154500D01*
X97558164Y-84192949D01*
X97558161Y-84192950D01*
X97376085Y-84268368D01*
X97212222Y-84377858D01*
X97212215Y-84377863D01*
X97072863Y-84517215D01*
X97072858Y-84517222D01*
X96963368Y-84681085D01*
X96887950Y-84863161D01*
X96887949Y-84863164D01*
X96849500Y-85056455D01*
X96849500Y-85253544D01*
X96866594Y-85339478D01*
X96887948Y-85446832D01*
X96887949Y-85446833D01*
X96887950Y-85446838D01*
X96935277Y-85561097D01*
X96963368Y-85628914D01*
X97072861Y-85792782D01*
X97212218Y-85932139D01*
X97376086Y-86041632D01*
X97558165Y-86117051D01*
X97751459Y-86155500D01*
X97948541Y-86155500D01*
X98141835Y-86117051D01*
X98323914Y-86041632D01*
X98454499Y-85954377D01*
X98522251Y-85933163D01*
X98590718Y-85951946D01*
X98638161Y-86004763D01*
X98650500Y-86059143D01*
X98650500Y-86790856D01*
X98630498Y-86858977D01*
X98576842Y-86905470D01*
X98506568Y-86915574D01*
X98454498Y-86895621D01*
X98323914Y-86808368D01*
X98141838Y-86732950D01*
X98141835Y-86732949D01*
X97948544Y-86694500D01*
X97948541Y-86694500D01*
X97751459Y-86694500D01*
X97751455Y-86694500D01*
X97558164Y-86732949D01*
X97558161Y-86732950D01*
X97376085Y-86808368D01*
X97212222Y-86917858D01*
X97212215Y-86917863D01*
X97072863Y-87057215D01*
X97072858Y-87057222D01*
X96963368Y-87221085D01*
X96887950Y-87403161D01*
X96887949Y-87403164D01*
X96849500Y-87596455D01*
X96849500Y-87793544D01*
X96887949Y-87986835D01*
X96887950Y-87986838D01*
X96928513Y-88084765D01*
X96963368Y-88168914D01*
X97072861Y-88332782D01*
X97212218Y-88472139D01*
X97376086Y-88581632D01*
X97558165Y-88657051D01*
X97751459Y-88695500D01*
X97948541Y-88695500D01*
X98141835Y-88657051D01*
X98323914Y-88581632D01*
X98454499Y-88494377D01*
X98522251Y-88473163D01*
X98590718Y-88491946D01*
X98638161Y-88544763D01*
X98650500Y-88599143D01*
X98650500Y-89330856D01*
X98630498Y-89398977D01*
X98576842Y-89445470D01*
X98506568Y-89455574D01*
X98454498Y-89435621D01*
X98323914Y-89348368D01*
X98141838Y-89272950D01*
X98141835Y-89272949D01*
X97948544Y-89234500D01*
X97948541Y-89234500D01*
X97751459Y-89234500D01*
X97751455Y-89234500D01*
X97558164Y-89272949D01*
X97558161Y-89272950D01*
X97376085Y-89348368D01*
X97212222Y-89457858D01*
X97212215Y-89457863D01*
X97072863Y-89597215D01*
X97072858Y-89597222D01*
X96963368Y-89761085D01*
X96887950Y-89943161D01*
X96887949Y-89943164D01*
X96849500Y-90136455D01*
X96849500Y-90333544D01*
X96878533Y-90479498D01*
X96887949Y-90526835D01*
X96963368Y-90708914D01*
X97072861Y-90872782D01*
X97212218Y-91012139D01*
X97376086Y-91121632D01*
X97558165Y-91197051D01*
X97751459Y-91235500D01*
X97948541Y-91235500D01*
X98141835Y-91197051D01*
X98323914Y-91121632D01*
X98454499Y-91034377D01*
X98522251Y-91013163D01*
X98590718Y-91031946D01*
X98638161Y-91084763D01*
X98650500Y-91139143D01*
X98650500Y-91870856D01*
X98630498Y-91938977D01*
X98576842Y-91985470D01*
X98506568Y-91995574D01*
X98454498Y-91975621D01*
X98323914Y-91888368D01*
X98141838Y-91812950D01*
X98141835Y-91812949D01*
X97948544Y-91774500D01*
X97948541Y-91774500D01*
X97751459Y-91774500D01*
X97751455Y-91774500D01*
X97558164Y-91812949D01*
X97558161Y-91812950D01*
X97376085Y-91888368D01*
X97212222Y-91997858D01*
X97212215Y-91997863D01*
X97072863Y-92137215D01*
X97072858Y-92137222D01*
X96963368Y-92301085D01*
X96887950Y-92483161D01*
X96887949Y-92483164D01*
X96849500Y-92676455D01*
X96849500Y-92873544D01*
X96887949Y-93066835D01*
X96887950Y-93066838D01*
X96936151Y-93183205D01*
X96963368Y-93248914D01*
X97072861Y-93412782D01*
X97212218Y-93552139D01*
X97376086Y-93661632D01*
X97558165Y-93737051D01*
X97751459Y-93775500D01*
X97948541Y-93775500D01*
X98141835Y-93737051D01*
X98323914Y-93661632D01*
X98454499Y-93574377D01*
X98522251Y-93553163D01*
X98590718Y-93571946D01*
X98638161Y-93624763D01*
X98650500Y-93679143D01*
X98650500Y-94410856D01*
X98630498Y-94478977D01*
X98576842Y-94525470D01*
X98506568Y-94535574D01*
X98454498Y-94515621D01*
X98323914Y-94428368D01*
X98141838Y-94352950D01*
X98141835Y-94352949D01*
X97948544Y-94314500D01*
X97948541Y-94314500D01*
X97751459Y-94314500D01*
X97751455Y-94314500D01*
X97558164Y-94352949D01*
X97558161Y-94352950D01*
X97376085Y-94428368D01*
X97212222Y-94537858D01*
X97212215Y-94537863D01*
X97072863Y-94677215D01*
X97072858Y-94677222D01*
X96963368Y-94841085D01*
X96887950Y-95023161D01*
X96887949Y-95023164D01*
X96849500Y-95216455D01*
X96849500Y-95413544D01*
X96887949Y-95606835D01*
X96887950Y-95606838D01*
X96926746Y-95700500D01*
X96963368Y-95788914D01*
X97072861Y-95952782D01*
X97212218Y-96092139D01*
X97376086Y-96201632D01*
X97558165Y-96277051D01*
X97751459Y-96315500D01*
X97948541Y-96315500D01*
X98141835Y-96277051D01*
X98323914Y-96201632D01*
X98454499Y-96114377D01*
X98522251Y-96093163D01*
X98590718Y-96111946D01*
X98638161Y-96164763D01*
X98650500Y-96219143D01*
X98650500Y-96950856D01*
X98630498Y-97018977D01*
X98576842Y-97065470D01*
X98506568Y-97075574D01*
X98454498Y-97055621D01*
X98323914Y-96968368D01*
X98141838Y-96892950D01*
X98141835Y-96892949D01*
X97948544Y-96854500D01*
X97948541Y-96854500D01*
X97751459Y-96854500D01*
X97751455Y-96854500D01*
X97558164Y-96892949D01*
X97558161Y-96892950D01*
X97376085Y-96968368D01*
X97212222Y-97077858D01*
X97212215Y-97077863D01*
X97072863Y-97217215D01*
X97072858Y-97217222D01*
X96963368Y-97381085D01*
X96887950Y-97563161D01*
X96887949Y-97563164D01*
X96849500Y-97756455D01*
X96849500Y-97953544D01*
X96874061Y-98077017D01*
X96887949Y-98146835D01*
X96963368Y-98328914D01*
X97072861Y-98492782D01*
X97212218Y-98632139D01*
X97376086Y-98741632D01*
X97558165Y-98817051D01*
X97751459Y-98855500D01*
X97948541Y-98855500D01*
X98141835Y-98817051D01*
X98323914Y-98741632D01*
X98454499Y-98654377D01*
X98522251Y-98633163D01*
X98590718Y-98651946D01*
X98638161Y-98704763D01*
X98650500Y-98759143D01*
X98650500Y-101986983D01*
X98630498Y-102055104D01*
X98613595Y-102076078D01*
X98177078Y-102512595D01*
X98114766Y-102546621D01*
X98087983Y-102549500D01*
X63237017Y-102549500D01*
X63168896Y-102529498D01*
X63147921Y-102512595D01*
X62637404Y-102002077D01*
X62603379Y-101939765D01*
X62600500Y-101912982D01*
X62600500Y-95045943D01*
X64249500Y-95045943D01*
X64249500Y-95204057D01*
X64283724Y-95331784D01*
X64290424Y-95356788D01*
X64369477Y-95493712D01*
X64369485Y-95493722D01*
X64481277Y-95605514D01*
X64481282Y-95605518D01*
X64481284Y-95605520D01*
X64481285Y-95605521D01*
X64481287Y-95605522D01*
X64618211Y-95684575D01*
X64618213Y-95684575D01*
X64618216Y-95684577D01*
X64770943Y-95725500D01*
X64770945Y-95725500D01*
X64929055Y-95725500D01*
X64929057Y-95725500D01*
X65081784Y-95684577D01*
X65081787Y-95684575D01*
X65081788Y-95684575D01*
X65185841Y-95624500D01*
X65218716Y-95605520D01*
X65275078Y-95549158D01*
X65336360Y-95487877D01*
X65338818Y-95490335D01*
X65383164Y-95457939D01*
X65425817Y-95450500D01*
X67624073Y-95450500D01*
X67692194Y-95470502D01*
X67713168Y-95487405D01*
X67806277Y-95580514D01*
X67806282Y-95580518D01*
X67806284Y-95580520D01*
X67806285Y-95580521D01*
X67806287Y-95580522D01*
X67943211Y-95659575D01*
X67943213Y-95659575D01*
X67943216Y-95659577D01*
X68095943Y-95700500D01*
X68095945Y-95700500D01*
X68254055Y-95700500D01*
X68254057Y-95700500D01*
X68406784Y-95659577D01*
X68406787Y-95659575D01*
X68406788Y-95659575D01*
X68498131Y-95606838D01*
X68543716Y-95580520D01*
X68655520Y-95468716D01*
X68701873Y-95388430D01*
X68734575Y-95331788D01*
X68734575Y-95331787D01*
X68734577Y-95331784D01*
X68775500Y-95179057D01*
X68775500Y-95020943D01*
X68734577Y-94868216D01*
X68734575Y-94868213D01*
X68734575Y-94868211D01*
X68655522Y-94731287D01*
X68655514Y-94731277D01*
X68543722Y-94619485D01*
X68543712Y-94619477D01*
X68406788Y-94540424D01*
X68388687Y-94535574D01*
X68254057Y-94499500D01*
X68095943Y-94499500D01*
X68002642Y-94524500D01*
X67943211Y-94540424D01*
X67806287Y-94619477D01*
X67806277Y-94619485D01*
X67694485Y-94731277D01*
X67694477Y-94731287D01*
X67691467Y-94736502D01*
X67640083Y-94785494D01*
X67582349Y-94799500D01*
X65425817Y-94799500D01*
X65357696Y-94779498D01*
X65337536Y-94760946D01*
X65336360Y-94762123D01*
X65218722Y-94644485D01*
X65218712Y-94644477D01*
X65081788Y-94565424D01*
X65063743Y-94560589D01*
X64929057Y-94524500D01*
X64770943Y-94524500D01*
X64711514Y-94540424D01*
X64618211Y-94565424D01*
X64481287Y-94644477D01*
X64481277Y-94644485D01*
X64369485Y-94756277D01*
X64369477Y-94756287D01*
X64290424Y-94893211D01*
X64290423Y-94893216D01*
X64249500Y-95045943D01*
X62600500Y-95045943D01*
X62600500Y-77662016D01*
X62620502Y-77593895D01*
X62637405Y-77572921D01*
X64364383Y-75845943D01*
X65624500Y-75845943D01*
X65624500Y-76004057D01*
X65647275Y-76089053D01*
X65665424Y-76156788D01*
X65744477Y-76293712D01*
X65744485Y-76293722D01*
X65856277Y-76405514D01*
X65856282Y-76405518D01*
X65856284Y-76405520D01*
X65856285Y-76405521D01*
X65856287Y-76405522D01*
X65993211Y-76484575D01*
X65993213Y-76484575D01*
X65993216Y-76484577D01*
X66145943Y-76525500D01*
X66145945Y-76525500D01*
X66304055Y-76525500D01*
X66304057Y-76525500D01*
X66456784Y-76484577D01*
X66456787Y-76484575D01*
X66456788Y-76484575D01*
X66550501Y-76430470D01*
X66593716Y-76405520D01*
X66705520Y-76293716D01*
X66784577Y-76156784D01*
X66786739Y-76148716D01*
X66788033Y-76143887D01*
X66824985Y-76083265D01*
X66888846Y-76052244D01*
X66909739Y-76050500D01*
X68299183Y-76050500D01*
X68367304Y-76070502D01*
X68387463Y-76089053D01*
X68388640Y-76087877D01*
X68506277Y-76205514D01*
X68506282Y-76205518D01*
X68506284Y-76205520D01*
X68506285Y-76205521D01*
X68506287Y-76205522D01*
X68643211Y-76284575D01*
X68643213Y-76284575D01*
X68643216Y-76284577D01*
X68795943Y-76325500D01*
X68795945Y-76325500D01*
X68954055Y-76325500D01*
X68954057Y-76325500D01*
X69106784Y-76284577D01*
X69106787Y-76284575D01*
X69106788Y-76284575D01*
X69219472Y-76219517D01*
X69243716Y-76205520D01*
X69355520Y-76093716D01*
X69427793Y-75968534D01*
X69434575Y-75956788D01*
X69434575Y-75956787D01*
X69434577Y-75956784D01*
X69475500Y-75804057D01*
X69475500Y-75645943D01*
X69434577Y-75493216D01*
X69434575Y-75493213D01*
X69434575Y-75493211D01*
X69355522Y-75356287D01*
X69355514Y-75356277D01*
X69243722Y-75244485D01*
X69243712Y-75244477D01*
X69106788Y-75165424D01*
X69047306Y-75149486D01*
X68954057Y-75124500D01*
X68795943Y-75124500D01*
X68727184Y-75142924D01*
X68643211Y-75165424D01*
X68506287Y-75244477D01*
X68506277Y-75244485D01*
X68388640Y-75362123D01*
X68386181Y-75359664D01*
X68341836Y-75392061D01*
X68299183Y-75399500D01*
X66549569Y-75399500D01*
X66486569Y-75382619D01*
X66456786Y-75365424D01*
X66456785Y-75365423D01*
X66456784Y-75365423D01*
X66304057Y-75324500D01*
X66145943Y-75324500D01*
X66052470Y-75349545D01*
X65993211Y-75365424D01*
X65856287Y-75444477D01*
X65856277Y-75444485D01*
X65744485Y-75556277D01*
X65744477Y-75556287D01*
X65665424Y-75693211D01*
X65665423Y-75693216D01*
X65624500Y-75845943D01*
X64364383Y-75845943D01*
X65657921Y-74552405D01*
X65720233Y-74518379D01*
X65747016Y-74515500D01*
X68346683Y-74515500D01*
X68414804Y-74535502D01*
X68434963Y-74554053D01*
X68436140Y-74552877D01*
X68553777Y-74670514D01*
X68553782Y-74670518D01*
X68553784Y-74670520D01*
X68553785Y-74670521D01*
X68553787Y-74670522D01*
X68690711Y-74749575D01*
X68690713Y-74749575D01*
X68690716Y-74749577D01*
X68843443Y-74790500D01*
X68843445Y-74790500D01*
X69001555Y-74790500D01*
X69001557Y-74790500D01*
X69154284Y-74749577D01*
X69154287Y-74749575D01*
X69154288Y-74749575D01*
X69256741Y-74690424D01*
X69291216Y-74670520D01*
X69403020Y-74558716D01*
X69482077Y-74421784D01*
X69523000Y-74269057D01*
X69523000Y-74110943D01*
X69482077Y-73958216D01*
X69482075Y-73958213D01*
X69482075Y-73958211D01*
X69403022Y-73821287D01*
X69403014Y-73821277D01*
X69291222Y-73709485D01*
X69291212Y-73709477D01*
X69154288Y-73630424D01*
X69136243Y-73625589D01*
X69001557Y-73589500D01*
X68843443Y-73589500D01*
X68749970Y-73614545D01*
X68690711Y-73630424D01*
X68553787Y-73709477D01*
X68553777Y-73709485D01*
X68436140Y-73827123D01*
X68433681Y-73824664D01*
X68389336Y-73857061D01*
X68346683Y-73864500D01*
X65610587Y-73864500D01*
X65610571Y-73864499D01*
X65602853Y-73864499D01*
X65517148Y-73864499D01*
X65517144Y-73864499D01*
X65434365Y-73886680D01*
X65360139Y-73929534D01*
X65360136Y-73929536D01*
X65331509Y-73958164D01*
X65299535Y-73990138D01*
X65299533Y-73990140D01*
X64867889Y-74421784D01*
X63660521Y-75629151D01*
X63598209Y-75663176D01*
X63527393Y-75658111D01*
X63470558Y-75615564D01*
X63445747Y-75549044D01*
X63458526Y-75490294D01*
X63456415Y-75489420D01*
X63459574Y-75481791D01*
X63459574Y-75481787D01*
X63459577Y-75481784D01*
X63500500Y-75329057D01*
X63500500Y-75170943D01*
X63459577Y-75018216D01*
X63459575Y-75018213D01*
X63459575Y-75018211D01*
X63380522Y-74881287D01*
X63380514Y-74881277D01*
X63268722Y-74769485D01*
X63268712Y-74769477D01*
X63131788Y-74690424D01*
X63071843Y-74674362D01*
X62979057Y-74649500D01*
X62820943Y-74649500D01*
X62812685Y-74649500D01*
X62812685Y-74646052D01*
X62758239Y-74637487D01*
X62722999Y-74612672D01*
X62470847Y-74360520D01*
X62436821Y-74298208D01*
X62441886Y-74227393D01*
X62484433Y-74170557D01*
X62550953Y-74145746D01*
X62609705Y-74158526D01*
X62610580Y-74156415D01*
X62618208Y-74159574D01*
X62618213Y-74159575D01*
X62618216Y-74159577D01*
X62770943Y-74200500D01*
X62770945Y-74200500D01*
X62929055Y-74200500D01*
X62929057Y-74200500D01*
X63081784Y-74159577D01*
X63081787Y-74159575D01*
X63081788Y-74159575D01*
X63150250Y-74120048D01*
X63218716Y-74080520D01*
X63330520Y-73968716D01*
X63390689Y-73864499D01*
X63409575Y-73831788D01*
X63409575Y-73831787D01*
X63409577Y-73831784D01*
X63450500Y-73679057D01*
X63450500Y-73520943D01*
X63409577Y-73368216D01*
X63409575Y-73368213D01*
X63409575Y-73368211D01*
X63330522Y-73231287D01*
X63330514Y-73231277D01*
X63218722Y-73119485D01*
X63218712Y-73119477D01*
X63157469Y-73084119D01*
X63108476Y-73032737D01*
X63095040Y-72963023D01*
X63121426Y-72897112D01*
X63157467Y-72865881D01*
X63218717Y-72830520D01*
X63267453Y-72781784D01*
X63336361Y-72712877D01*
X63338819Y-72715335D01*
X63383165Y-72682939D01*
X63425818Y-72675500D01*
X63867851Y-72675500D01*
X63867853Y-72675500D01*
X63950639Y-72653318D01*
X64024862Y-72610465D01*
X65892922Y-70742403D01*
X65920288Y-70727460D01*
X65946518Y-70710604D01*
X65952819Y-70709697D01*
X65955233Y-70708380D01*
X65982016Y-70705500D01*
X65999183Y-70705500D01*
X66067304Y-70725502D01*
X66087463Y-70744053D01*
X66088640Y-70742877D01*
X66206277Y-70860514D01*
X66206282Y-70860518D01*
X66206284Y-70860520D01*
X66206285Y-70860521D01*
X66206287Y-70860522D01*
X66343211Y-70939575D01*
X66343213Y-70939575D01*
X66343216Y-70939577D01*
X66495943Y-70980500D01*
X66495945Y-70980500D01*
X66654055Y-70980500D01*
X66654057Y-70980500D01*
X66806784Y-70939577D01*
X66806787Y-70939575D01*
X66806788Y-70939575D01*
X66915085Y-70877050D01*
X66943716Y-70860520D01*
X66989704Y-70814532D01*
X67061360Y-70742877D01*
X67063818Y-70745335D01*
X67108164Y-70712939D01*
X67150817Y-70705500D01*
X68346683Y-70705500D01*
X68414804Y-70725502D01*
X68434963Y-70744053D01*
X68436140Y-70742877D01*
X68553777Y-70860514D01*
X68553782Y-70860518D01*
X68553784Y-70860520D01*
X68553785Y-70860521D01*
X68553787Y-70860522D01*
X68632351Y-70905881D01*
X68681344Y-70957264D01*
X68694780Y-71026977D01*
X68668394Y-71092888D01*
X68632351Y-71124119D01*
X68553787Y-71169477D01*
X68553777Y-71169485D01*
X68441985Y-71281277D01*
X68441977Y-71281287D01*
X68362924Y-71418211D01*
X68362923Y-71418216D01*
X68322000Y-71570943D01*
X68322000Y-71729057D01*
X68333422Y-71771684D01*
X68362924Y-71881788D01*
X68441977Y-72018712D01*
X68441985Y-72018722D01*
X68553777Y-72130514D01*
X68553782Y-72130518D01*
X68553784Y-72130520D01*
X68553785Y-72130521D01*
X68553787Y-72130522D01*
X68690711Y-72209575D01*
X68690713Y-72209575D01*
X68690716Y-72209577D01*
X68843443Y-72250500D01*
X68843445Y-72250500D01*
X69001555Y-72250500D01*
X69001557Y-72250500D01*
X69154284Y-72209577D01*
X69154287Y-72209575D01*
X69154288Y-72209575D01*
X69234681Y-72163160D01*
X69291216Y-72130520D01*
X69342765Y-72078971D01*
X69408860Y-72012877D01*
X69411318Y-72015335D01*
X69455664Y-71982939D01*
X69498317Y-71975500D01*
X70187982Y-71975500D01*
X70256103Y-71995502D01*
X70277077Y-72012404D01*
X70587595Y-72322921D01*
X70621620Y-72385234D01*
X70624500Y-72412017D01*
X70624500Y-76773500D01*
X70604498Y-76841621D01*
X70550842Y-76888114D01*
X70504113Y-76898278D01*
X70504132Y-76898422D01*
X70502418Y-76898647D01*
X70498500Y-76899500D01*
X70495943Y-76899500D01*
X70402470Y-76924545D01*
X70343211Y-76940424D01*
X70206287Y-77019477D01*
X70206277Y-77019485D01*
X70094485Y-77131277D01*
X70094477Y-77131287D01*
X70015424Y-77268211D01*
X70000759Y-77322942D01*
X69974500Y-77420943D01*
X69974500Y-77579057D01*
X69989099Y-77633541D01*
X70015424Y-77731788D01*
X70089736Y-77860500D01*
X70106474Y-77929496D01*
X70083253Y-77996587D01*
X70027446Y-78040474D01*
X69980617Y-78049500D01*
X65792853Y-78049500D01*
X65707147Y-78049500D01*
X65624361Y-78071682D01*
X65624359Y-78071683D01*
X65624356Y-78071684D01*
X65550141Y-78114532D01*
X65550131Y-78114540D01*
X64664540Y-79000131D01*
X64664532Y-79000141D01*
X64621681Y-79074361D01*
X64621681Y-79074365D01*
X64606199Y-79132147D01*
X64599500Y-79157147D01*
X64599500Y-88107147D01*
X64599500Y-88192853D01*
X64621682Y-88275639D01*
X64621683Y-88275641D01*
X64621684Y-88275643D01*
X64664532Y-88349858D01*
X64664540Y-88349868D01*
X65310131Y-88995459D01*
X65310136Y-88995463D01*
X65310138Y-88995465D01*
X65310139Y-88995466D01*
X65310141Y-88995467D01*
X65327380Y-89005420D01*
X65384361Y-89038318D01*
X65467147Y-89060500D01*
X65552853Y-89060500D01*
X65787383Y-89060500D01*
X65855504Y-89080502D01*
X65875663Y-89099053D01*
X65876840Y-89097877D01*
X65994477Y-89215514D01*
X65994482Y-89215518D01*
X65994484Y-89215520D01*
X65994485Y-89215521D01*
X65994487Y-89215522D01*
X66073051Y-89260881D01*
X66122044Y-89312264D01*
X66135480Y-89381977D01*
X66109094Y-89447888D01*
X66073051Y-89479119D01*
X65994487Y-89524477D01*
X65994477Y-89524485D01*
X65882685Y-89636277D01*
X65882677Y-89636287D01*
X65803624Y-89773211D01*
X65780744Y-89858599D01*
X65762700Y-89925943D01*
X65762700Y-90084057D01*
X65794764Y-90203722D01*
X65803624Y-90236788D01*
X65882677Y-90373712D01*
X65882685Y-90373722D01*
X65994477Y-90485514D01*
X65994482Y-90485518D01*
X65994484Y-90485520D01*
X65994485Y-90485521D01*
X65994487Y-90485522D01*
X66073051Y-90530881D01*
X66122044Y-90582264D01*
X66135480Y-90651977D01*
X66109094Y-90717888D01*
X66073051Y-90749119D01*
X65994487Y-90794477D01*
X65994477Y-90794485D01*
X65882685Y-90906277D01*
X65882677Y-90906287D01*
X65803624Y-91043211D01*
X65782612Y-91121631D01*
X65762700Y-91195943D01*
X65762700Y-91354057D01*
X65785645Y-91439688D01*
X65803624Y-91506788D01*
X65882677Y-91643712D01*
X65882685Y-91643722D01*
X65994477Y-91755514D01*
X65994482Y-91755518D01*
X65994484Y-91755520D01*
X65994485Y-91755521D01*
X65994487Y-91755522D01*
X66073051Y-91800881D01*
X66122044Y-91852264D01*
X66135480Y-91921977D01*
X66109094Y-91987888D01*
X66073051Y-92019119D01*
X65994487Y-92064477D01*
X65994477Y-92064485D01*
X65882685Y-92176277D01*
X65882677Y-92176287D01*
X65803624Y-92313211D01*
X65798543Y-92332174D01*
X65762700Y-92465943D01*
X65762700Y-92624057D01*
X65774549Y-92668278D01*
X65803624Y-92776788D01*
X65882677Y-92913712D01*
X65882685Y-92913722D01*
X65994477Y-93025514D01*
X65994482Y-93025518D01*
X65994484Y-93025520D01*
X65994485Y-93025521D01*
X65994487Y-93025522D01*
X66131411Y-93104575D01*
X66131413Y-93104575D01*
X66131416Y-93104577D01*
X66284143Y-93145500D01*
X66284145Y-93145500D01*
X66442255Y-93145500D01*
X66442257Y-93145500D01*
X66594984Y-93104577D01*
X66594987Y-93104575D01*
X66594988Y-93104575D01*
X66676519Y-93057503D01*
X66731916Y-93025520D01*
X66843720Y-92913716D01*
X66906370Y-92805202D01*
X66922775Y-92776788D01*
X66922775Y-92776787D01*
X66922777Y-92776784D01*
X66963700Y-92624057D01*
X66963700Y-92465943D01*
X66963700Y-92457684D01*
X66967183Y-92457684D01*
X66975610Y-92403453D01*
X67000524Y-92368001D01*
X67280123Y-92088404D01*
X67342435Y-92054379D01*
X67369218Y-92051500D01*
X71808983Y-92051500D01*
X71877104Y-92071502D01*
X71923597Y-92125158D01*
X71933701Y-92195432D01*
X71904207Y-92260012D01*
X71898093Y-92266578D01*
X71155195Y-93009477D01*
X70949601Y-93215071D01*
X70887289Y-93249096D01*
X70827895Y-93247682D01*
X70770665Y-93232347D01*
X70704057Y-93214500D01*
X70545943Y-93214500D01*
X70452470Y-93239545D01*
X70393211Y-93255424D01*
X70256287Y-93334477D01*
X70256277Y-93334485D01*
X70144485Y-93446277D01*
X70144477Y-93446287D01*
X70065424Y-93583211D01*
X70050880Y-93637491D01*
X70024500Y-93735943D01*
X70024500Y-93894057D01*
X70040370Y-93953283D01*
X70065424Y-94046788D01*
X70144477Y-94183712D01*
X70144485Y-94183722D01*
X70256277Y-94295514D01*
X70256282Y-94295518D01*
X70256284Y-94295520D01*
X70256285Y-94295521D01*
X70256287Y-94295522D01*
X70393211Y-94374575D01*
X70393213Y-94374575D01*
X70393216Y-94374577D01*
X70545943Y-94415500D01*
X70545945Y-94415500D01*
X70704055Y-94415500D01*
X70704057Y-94415500D01*
X70856784Y-94374577D01*
X70856787Y-94374575D01*
X70856788Y-94374575D01*
X70960841Y-94314500D01*
X70993716Y-94295520D01*
X71105520Y-94183716D01*
X71184577Y-94046784D01*
X71225500Y-93894057D01*
X71225500Y-93894055D01*
X71227637Y-93886080D01*
X71229713Y-93886636D01*
X71253815Y-93832131D01*
X71260933Y-93824394D01*
X71958606Y-93126721D01*
X72020918Y-93092695D01*
X72091733Y-93097760D01*
X72148569Y-93140307D01*
X72169407Y-93183203D01*
X72188759Y-93255424D01*
X72206148Y-93320322D01*
X72285201Y-93457246D01*
X72285209Y-93457256D01*
X72397001Y-93569048D01*
X72397006Y-93569052D01*
X72397008Y-93569054D01*
X72397009Y-93569055D01*
X72397011Y-93569056D01*
X72533935Y-93648109D01*
X72533937Y-93648109D01*
X72533940Y-93648111D01*
X72686667Y-93689034D01*
X72844781Y-93689034D01*
X72997508Y-93648111D01*
X72997511Y-93648109D01*
X72997512Y-93648109D01*
X73125218Y-93574378D01*
X73134440Y-93569054D01*
X73246244Y-93457250D01*
X73282267Y-93394854D01*
X73333650Y-93345861D01*
X73403363Y-93332424D01*
X73454387Y-93348735D01*
X73495140Y-93372264D01*
X73495142Y-93372264D01*
X73495145Y-93372266D01*
X73647872Y-93413189D01*
X73647874Y-93413189D01*
X73805984Y-93413189D01*
X73805986Y-93413189D01*
X73958713Y-93372266D01*
X73958716Y-93372264D01*
X73958717Y-93372264D01*
X74078241Y-93303257D01*
X74095645Y-93293209D01*
X74207449Y-93181405D01*
X74246742Y-93113346D01*
X74298124Y-93064354D01*
X74355861Y-93050347D01*
X74614499Y-93050347D01*
X74638872Y-93057503D01*
X74664099Y-93060520D01*
X74672351Y-93067333D01*
X74682620Y-93070349D01*
X74699256Y-93089548D01*
X74718846Y-93105723D01*
X74722104Y-93115916D01*
X74729113Y-93124005D01*
X74732728Y-93149153D01*
X74740463Y-93173349D01*
X74738531Y-93189508D01*
X74739217Y-93194279D01*
X74736210Y-93208938D01*
X74699500Y-93345943D01*
X74699500Y-93504057D01*
X74720709Y-93583211D01*
X74740424Y-93656788D01*
X74795106Y-93751500D01*
X74811844Y-93820496D01*
X74788623Y-93887588D01*
X74732816Y-93931475D01*
X74685987Y-93940500D01*
X72001233Y-93940500D01*
X71915527Y-93940500D01*
X71832741Y-93962682D01*
X71832739Y-93962683D01*
X71832736Y-93962684D01*
X71758521Y-94005532D01*
X71758511Y-94005540D01*
X70477563Y-95286490D01*
X70415251Y-95320515D01*
X70388468Y-95323395D01*
X69877948Y-95323395D01*
X69792242Y-95323395D01*
X69709456Y-95345577D01*
X69709454Y-95345578D01*
X69709451Y-95345579D01*
X69635236Y-95388427D01*
X69635230Y-95388432D01*
X69482051Y-95541612D01*
X69061066Y-95962596D01*
X68998756Y-95996620D01*
X68971973Y-95999500D01*
X66909126Y-95999500D01*
X66841005Y-95979498D01*
X66820035Y-95962599D01*
X66731916Y-95874480D01*
X66731915Y-95874479D01*
X66731912Y-95874477D01*
X66594988Y-95795424D01*
X66570692Y-95788914D01*
X66442257Y-95754500D01*
X66284143Y-95754500D01*
X66190670Y-95779545D01*
X66131411Y-95795424D01*
X65994487Y-95874477D01*
X65994477Y-95874485D01*
X65882685Y-95986277D01*
X65882677Y-95986287D01*
X65803624Y-96123211D01*
X65784109Y-96196042D01*
X65762700Y-96275943D01*
X65762700Y-96434057D01*
X65768790Y-96456784D01*
X65803624Y-96586788D01*
X65882677Y-96723712D01*
X65882685Y-96723722D01*
X65994477Y-96835514D01*
X65994482Y-96835518D01*
X65994484Y-96835520D01*
X65994485Y-96835521D01*
X65994487Y-96835522D01*
X66131411Y-96914575D01*
X66131413Y-96914575D01*
X66131416Y-96914577D01*
X66284143Y-96955500D01*
X66284145Y-96955500D01*
X66442255Y-96955500D01*
X66442257Y-96955500D01*
X66594984Y-96914577D01*
X66594987Y-96914575D01*
X66594988Y-96914575D01*
X66691226Y-96859012D01*
X66731916Y-96835520D01*
X66843720Y-96723716D01*
X66849617Y-96713501D01*
X66900998Y-96664508D01*
X66958737Y-96650500D01*
X68706782Y-96650500D01*
X68774903Y-96670502D01*
X68821396Y-96724158D01*
X68831500Y-96794432D01*
X68802006Y-96859012D01*
X68795877Y-96865596D01*
X68241998Y-97419473D01*
X68179686Y-97453498D01*
X68152315Y-97454647D01*
X68152315Y-97456300D01*
X68144057Y-97456300D01*
X67985943Y-97456300D01*
X67907010Y-97477450D01*
X67833211Y-97497224D01*
X67696287Y-97576277D01*
X67696277Y-97576285D01*
X67584485Y-97688077D01*
X67584477Y-97688087D01*
X67505424Y-97825011D01*
X67485369Y-97899858D01*
X67464500Y-97977743D01*
X67464500Y-98135857D01*
X67489120Y-98227741D01*
X67505424Y-98288588D01*
X67584477Y-98425512D01*
X67584485Y-98425522D01*
X67696277Y-98537314D01*
X67696282Y-98537318D01*
X67696284Y-98537320D01*
X67696285Y-98537321D01*
X67696287Y-98537322D01*
X67833211Y-98616375D01*
X67833213Y-98616375D01*
X67833216Y-98616377D01*
X67985943Y-98657300D01*
X67985945Y-98657300D01*
X68144055Y-98657300D01*
X68144057Y-98657300D01*
X68296784Y-98616377D01*
X68296787Y-98616375D01*
X68296788Y-98616375D01*
X68365250Y-98576848D01*
X68433716Y-98537320D01*
X68545520Y-98425516D01*
X68590881Y-98346948D01*
X68642263Y-98297955D01*
X68711977Y-98284518D01*
X68777888Y-98310905D01*
X68809119Y-98346948D01*
X68854477Y-98425512D01*
X68854485Y-98425522D01*
X68966277Y-98537314D01*
X68966282Y-98537318D01*
X68966284Y-98537320D01*
X68966285Y-98537321D01*
X68966287Y-98537322D01*
X69103211Y-98616375D01*
X69103213Y-98616375D01*
X69103216Y-98616377D01*
X69255943Y-98657300D01*
X69255945Y-98657300D01*
X69414055Y-98657300D01*
X69414057Y-98657300D01*
X69566784Y-98616377D01*
X69566787Y-98616375D01*
X69566788Y-98616375D01*
X69635250Y-98576848D01*
X69703716Y-98537320D01*
X69815520Y-98425516D01*
X69881690Y-98310905D01*
X69894575Y-98288588D01*
X69894575Y-98288587D01*
X69894577Y-98288584D01*
X69935500Y-98135857D01*
X69935500Y-98077017D01*
X69955502Y-98008896D01*
X69972405Y-97987922D01*
X72429922Y-95530405D01*
X72492234Y-95496379D01*
X72519017Y-95493500D01*
X74920756Y-95493500D01*
X74988877Y-95513502D01*
X75035370Y-95567158D01*
X75045474Y-95637432D01*
X75015980Y-95702012D01*
X74983756Y-95728619D01*
X74956287Y-95744477D01*
X74956277Y-95744485D01*
X74844485Y-95856277D01*
X74844477Y-95856287D01*
X74765424Y-95993211D01*
X74749998Y-96050784D01*
X74724500Y-96145943D01*
X74724500Y-96304057D01*
X74759333Y-96434055D01*
X74765424Y-96456788D01*
X74844477Y-96593712D01*
X74844485Y-96593722D01*
X74962123Y-96711360D01*
X74959664Y-96713818D01*
X74992061Y-96758164D01*
X74999500Y-96800817D01*
X74999500Y-97657147D01*
X74999500Y-97742853D01*
X75021682Y-97825639D01*
X75021683Y-97825641D01*
X75021684Y-97825643D01*
X75064532Y-97899858D01*
X75064534Y-97899860D01*
X75064535Y-97899862D01*
X76889533Y-99724859D01*
X76889535Y-99724862D01*
X76950138Y-99785465D01*
X76987250Y-99806891D01*
X77024361Y-99828318D01*
X77024363Y-99828318D01*
X77024364Y-99828319D01*
X77107143Y-99850500D01*
X77107147Y-99850501D01*
X77200571Y-99850501D01*
X77200587Y-99850500D01*
X85392851Y-99850500D01*
X85392853Y-99850500D01*
X85475639Y-99828318D01*
X85549862Y-99785465D01*
X86648001Y-98687324D01*
X86710310Y-98653302D01*
X86737684Y-98652165D01*
X86737684Y-98650500D01*
X86904055Y-98650500D01*
X86904057Y-98650500D01*
X87056784Y-98609577D01*
X87056787Y-98609575D01*
X87056788Y-98609575D01*
X87125250Y-98570048D01*
X87193716Y-98530520D01*
X87305520Y-98418716D01*
X87367764Y-98310905D01*
X87384575Y-98281788D01*
X87384575Y-98281787D01*
X87384577Y-98281784D01*
X87425500Y-98129057D01*
X87425500Y-97970943D01*
X87384577Y-97818216D01*
X87384575Y-97818213D01*
X87384575Y-97818211D01*
X87305522Y-97681287D01*
X87305514Y-97681277D01*
X87193722Y-97569485D01*
X87193712Y-97569477D01*
X87056788Y-97490424D01*
X87008368Y-97477450D01*
X86904057Y-97449500D01*
X86745943Y-97449500D01*
X86652470Y-97474545D01*
X86593211Y-97490424D01*
X86456287Y-97569477D01*
X86456277Y-97569485D01*
X86344485Y-97681277D01*
X86344477Y-97681287D01*
X86265424Y-97818211D01*
X86224500Y-97970944D01*
X86224500Y-98137315D01*
X86221044Y-98137315D01*
X86212511Y-98191710D01*
X86187672Y-98226999D01*
X85252076Y-99162596D01*
X85189766Y-99196620D01*
X85162983Y-99199500D01*
X83089384Y-99199500D01*
X83021263Y-99179498D01*
X82974770Y-99125842D01*
X82964666Y-99055568D01*
X82994160Y-98990988D01*
X83050447Y-98953667D01*
X83063345Y-98949475D01*
X83063348Y-98949474D01*
X83228980Y-98865080D01*
X83228982Y-98865079D01*
X83299462Y-98813871D01*
X83299463Y-98813870D01*
X82724124Y-98238531D01*
X82764394Y-98227741D01*
X82855606Y-98175080D01*
X82930080Y-98100606D01*
X82982741Y-98009394D01*
X82993531Y-97969124D01*
X83568870Y-98544463D01*
X83568871Y-98544462D01*
X83620079Y-98473982D01*
X83620080Y-98473980D01*
X83704474Y-98308348D01*
X83704477Y-98308342D01*
X83761918Y-98131557D01*
X83791000Y-97947943D01*
X83791000Y-97762056D01*
X83767566Y-97614102D01*
X83776666Y-97543691D01*
X83822387Y-97489377D01*
X83890215Y-97468404D01*
X83958615Y-97487431D01*
X83981110Y-97505296D01*
X84017779Y-97541965D01*
X84110588Y-97609394D01*
X84183390Y-97662287D01*
X84365781Y-97755220D01*
X84560466Y-97818477D01*
X84762648Y-97850500D01*
X84762651Y-97850500D01*
X84967349Y-97850500D01*
X84967352Y-97850500D01*
X85169534Y-97818477D01*
X85364219Y-97755220D01*
X85546610Y-97662287D01*
X85712219Y-97541966D01*
X85856966Y-97397219D01*
X85977287Y-97231610D01*
X86070220Y-97049219D01*
X86098376Y-96962563D01*
X86138449Y-96903958D01*
X86203846Y-96876321D01*
X86218209Y-96875500D01*
X94131791Y-96875500D01*
X94199912Y-96895502D01*
X94246405Y-96949158D01*
X94251624Y-96962564D01*
X94279778Y-97049215D01*
X94372713Y-97231610D01*
X94493034Y-97397220D01*
X94637779Y-97541965D01*
X94730588Y-97609394D01*
X94803390Y-97662287D01*
X94985781Y-97755220D01*
X95180466Y-97818477D01*
X95382648Y-97850500D01*
X95382651Y-97850500D01*
X95587349Y-97850500D01*
X95587352Y-97850500D01*
X95789534Y-97818477D01*
X95984219Y-97755220D01*
X96166610Y-97662287D01*
X96332219Y-97541966D01*
X96476966Y-97397219D01*
X96597287Y-97231610D01*
X96690220Y-97049219D01*
X96753477Y-96854534D01*
X96785500Y-96652352D01*
X96785500Y-96447648D01*
X96753477Y-96245466D01*
X96690220Y-96050781D01*
X96597287Y-95868390D01*
X96588492Y-95856284D01*
X96476965Y-95702779D01*
X96332220Y-95558034D01*
X96166612Y-95437714D01*
X95986503Y-95345944D01*
X95984219Y-95344780D01*
X95984218Y-95344779D01*
X95984217Y-95344779D01*
X95897563Y-95316623D01*
X95838957Y-95276549D01*
X95811321Y-95211152D01*
X95810500Y-95196790D01*
X95810500Y-81592149D01*
X95810499Y-81592144D01*
X95792767Y-81525963D01*
X95788318Y-81509362D01*
X95788318Y-81509361D01*
X95749415Y-81441980D01*
X95745467Y-81435141D01*
X95745459Y-81435131D01*
X95099868Y-80789540D01*
X95099858Y-80789532D01*
X95025643Y-80746684D01*
X95025641Y-80746683D01*
X95025639Y-80746682D01*
X94942853Y-80724500D01*
X94942851Y-80724500D01*
X92749517Y-80724500D01*
X92681396Y-80704498D01*
X92660422Y-80687595D01*
X92425155Y-80452328D01*
X92410210Y-80424959D01*
X92393354Y-80398731D01*
X92392448Y-80392432D01*
X92391129Y-80390016D01*
X92388250Y-80363233D01*
X92388250Y-80250817D01*
X92408252Y-80182696D01*
X92426803Y-80162536D01*
X92425627Y-80161360D01*
X92543264Y-80043722D01*
X92543270Y-80043716D01*
X92607891Y-79931788D01*
X92622325Y-79906788D01*
X92622325Y-79906787D01*
X92622327Y-79906784D01*
X92663250Y-79754057D01*
X92663250Y-79595943D01*
X92622327Y-79443216D01*
X92622325Y-79443213D01*
X92622325Y-79443211D01*
X92543272Y-79306287D01*
X92543264Y-79306277D01*
X92431472Y-79194485D01*
X92431462Y-79194477D01*
X92294538Y-79115424D01*
X92276493Y-79110589D01*
X92141807Y-79074500D01*
X91983693Y-79074500D01*
X91890220Y-79099545D01*
X91830961Y-79115424D01*
X91694037Y-79194477D01*
X91694027Y-79194485D01*
X91640595Y-79247918D01*
X91578283Y-79281944D01*
X91507468Y-79276879D01*
X91450632Y-79234332D01*
X91425821Y-79167812D01*
X91425500Y-79158823D01*
X91425500Y-78551500D01*
X91445502Y-78483379D01*
X91499158Y-78436886D01*
X91551500Y-78425500D01*
X93659571Y-78425500D01*
X93659573Y-78425500D01*
X93742359Y-78403318D01*
X93816582Y-78360465D01*
X95684405Y-76492642D01*
X95746717Y-76458617D01*
X95817532Y-76463681D01*
X95874368Y-76506228D01*
X95899179Y-76572748D01*
X95899500Y-76581737D01*
X95899500Y-77196942D01*
X95879498Y-77265063D01*
X95825842Y-77311556D01*
X95773500Y-77322942D01*
X95719385Y-77322942D01*
X95625912Y-77347987D01*
X95566653Y-77363866D01*
X95429729Y-77442919D01*
X95429719Y-77442927D01*
X95317927Y-77554719D01*
X95317919Y-77554729D01*
X95238866Y-77691653D01*
X95228113Y-77731784D01*
X95197942Y-77844385D01*
X95197942Y-78002499D01*
X95227961Y-78114532D01*
X95238866Y-78155230D01*
X95317919Y-78292154D01*
X95317927Y-78292164D01*
X95429719Y-78403956D01*
X95429724Y-78403960D01*
X95429726Y-78403962D01*
X95429727Y-78403963D01*
X95429729Y-78403964D01*
X95566653Y-78483017D01*
X95566655Y-78483017D01*
X95566658Y-78483019D01*
X95719385Y-78523942D01*
X95719387Y-78523942D01*
X95877497Y-78523942D01*
X95877499Y-78523942D01*
X96030226Y-78483019D01*
X96030229Y-78483017D01*
X96030230Y-78483017D01*
X96161757Y-78407080D01*
X96167158Y-78403962D01*
X96278962Y-78292158D01*
X96339486Y-78187327D01*
X96358017Y-78155230D01*
X96358017Y-78155229D01*
X96358019Y-78155226D01*
X96398942Y-78002499D01*
X96398942Y-77844385D01*
X96398942Y-77836126D01*
X96402430Y-77836126D01*
X96410840Y-77781921D01*
X96435767Y-77746442D01*
X96485465Y-77696746D01*
X96528318Y-77622523D01*
X96550500Y-77539737D01*
X96550500Y-77454031D01*
X96550500Y-77436455D01*
X96849500Y-77436455D01*
X96849500Y-77633544D01*
X96887949Y-77826835D01*
X96887950Y-77826838D01*
X96940381Y-77953418D01*
X96963368Y-78008914D01*
X97072861Y-78172782D01*
X97212218Y-78312139D01*
X97376086Y-78421632D01*
X97558165Y-78497051D01*
X97751459Y-78535500D01*
X97948541Y-78535500D01*
X98141835Y-78497051D01*
X98323914Y-78421632D01*
X98487782Y-78312139D01*
X98627139Y-78172782D01*
X98736632Y-78008914D01*
X98812051Y-77826835D01*
X98850500Y-77633541D01*
X98850500Y-77436459D01*
X98812051Y-77243165D01*
X98736632Y-77061086D01*
X98627139Y-76897218D01*
X98487782Y-76757861D01*
X98323914Y-76648368D01*
X98311464Y-76643211D01*
X98141838Y-76572950D01*
X98141835Y-76572949D01*
X97948544Y-76534500D01*
X97948541Y-76534500D01*
X97751459Y-76534500D01*
X97751455Y-76534500D01*
X97558164Y-76572949D01*
X97558161Y-76572950D01*
X97376085Y-76648368D01*
X97212222Y-76757858D01*
X97212215Y-76757863D01*
X97072863Y-76897215D01*
X97072858Y-76897222D01*
X96963368Y-77061085D01*
X96887950Y-77243161D01*
X96887949Y-77243164D01*
X96849500Y-77436455D01*
X96550500Y-77436455D01*
X96550500Y-74896455D01*
X96849500Y-74896455D01*
X96849500Y-75093544D01*
X96887949Y-75286835D01*
X96887950Y-75286838D01*
X96949424Y-75435249D01*
X96963368Y-75468914D01*
X97072861Y-75632782D01*
X97212218Y-75772139D01*
X97376086Y-75881632D01*
X97558165Y-75957051D01*
X97751459Y-75995500D01*
X97948541Y-75995500D01*
X98141835Y-75957051D01*
X98323914Y-75881632D01*
X98487782Y-75772139D01*
X98627139Y-75632782D01*
X98736632Y-75468914D01*
X98812051Y-75286835D01*
X98850500Y-75093541D01*
X98850500Y-74896459D01*
X98812051Y-74703165D01*
X98736632Y-74521086D01*
X98627139Y-74357218D01*
X98487782Y-74217861D01*
X98323914Y-74108368D01*
X98256687Y-74080522D01*
X98141838Y-74032950D01*
X98141835Y-74032949D01*
X97948544Y-73994500D01*
X97948541Y-73994500D01*
X97751459Y-73994500D01*
X97751455Y-73994500D01*
X97558164Y-74032949D01*
X97558161Y-74032950D01*
X97376085Y-74108368D01*
X97212222Y-74217858D01*
X97212215Y-74217863D01*
X97072863Y-74357215D01*
X97072858Y-74357222D01*
X96963368Y-74521085D01*
X96887950Y-74703161D01*
X96887949Y-74703164D01*
X96849500Y-74896455D01*
X96550500Y-74896455D01*
X96550500Y-74267017D01*
X96570502Y-74198896D01*
X96587400Y-74177926D01*
X97350219Y-73415106D01*
X97412530Y-73381083D01*
X97483345Y-73386147D01*
X97487531Y-73387794D01*
X97521613Y-73401911D01*
X97558165Y-73417051D01*
X97751459Y-73455500D01*
X97948541Y-73455500D01*
X98141835Y-73417051D01*
X98323914Y-73341632D01*
X98487782Y-73232139D01*
X98627139Y-73092782D01*
X98736632Y-72928914D01*
X98812051Y-72746835D01*
X98850500Y-72553541D01*
X98850500Y-72356459D01*
X98812051Y-72163165D01*
X98736632Y-71981086D01*
X98627139Y-71817218D01*
X98487782Y-71677861D01*
X98323914Y-71568368D01*
X98196921Y-71515766D01*
X98141838Y-71492950D01*
X98141835Y-71492949D01*
X97948544Y-71454500D01*
X97948541Y-71454500D01*
X97751459Y-71454500D01*
X97751455Y-71454500D01*
X97558164Y-71492949D01*
X97558161Y-71492950D01*
X97376085Y-71568368D01*
X97212222Y-71677858D01*
X97212215Y-71677863D01*
X97072863Y-71817215D01*
X97072858Y-71817222D01*
X96963368Y-71981085D01*
X96887950Y-72163161D01*
X96887949Y-72163164D01*
X96849500Y-72356455D01*
X96849500Y-72553544D01*
X96887949Y-72746835D01*
X96887952Y-72746844D01*
X96917205Y-72817468D01*
X96924794Y-72888058D01*
X96893014Y-72951544D01*
X96889892Y-72954780D01*
X96458526Y-73386147D01*
X96176596Y-73668077D01*
X96114283Y-73702102D01*
X96043468Y-73697038D01*
X95986632Y-73654491D01*
X95961821Y-73587971D01*
X95961500Y-73578982D01*
X95961500Y-72316016D01*
X95981502Y-72247895D01*
X95998405Y-72226921D01*
X96656958Y-71568368D01*
X97350220Y-70875105D01*
X97412530Y-70841082D01*
X97483345Y-70846146D01*
X97487479Y-70847772D01*
X97558165Y-70877051D01*
X97751459Y-70915500D01*
X97948541Y-70915500D01*
X98141835Y-70877051D01*
X98323914Y-70801632D01*
X98487782Y-70692139D01*
X98627139Y-70552782D01*
X98736632Y-70388914D01*
X98812051Y-70206835D01*
X98850500Y-70013541D01*
X98850500Y-69816459D01*
X98812051Y-69623165D01*
X98736632Y-69441086D01*
X98627139Y-69277218D01*
X98487782Y-69137861D01*
X98323914Y-69028368D01*
X98179915Y-68968722D01*
X98141838Y-68952950D01*
X98141835Y-68952949D01*
X97948544Y-68914500D01*
X97948541Y-68914500D01*
X97751459Y-68914500D01*
X97751455Y-68914500D01*
X97558164Y-68952949D01*
X97558161Y-68952950D01*
X97376085Y-69028368D01*
X97212222Y-69137858D01*
X97212215Y-69137863D01*
X97072863Y-69277215D01*
X97072858Y-69277222D01*
X96963368Y-69441085D01*
X96887950Y-69623161D01*
X96887949Y-69623164D01*
X96849500Y-69816455D01*
X96849500Y-70013544D01*
X96887949Y-70206835D01*
X96887952Y-70206844D01*
X96917205Y-70277468D01*
X96924794Y-70348058D01*
X96893014Y-70411544D01*
X96889891Y-70414780D01*
X95375540Y-71929131D01*
X95375532Y-71929141D01*
X95332684Y-72003356D01*
X95332679Y-72003368D01*
X95320437Y-72049055D01*
X95320438Y-72049056D01*
X95310500Y-72086146D01*
X95310500Y-75101735D01*
X95290498Y-75169856D01*
X95236842Y-75216349D01*
X95166568Y-75226453D01*
X95149940Y-75221892D01*
X95149761Y-75222561D01*
X95141785Y-75220424D01*
X95141784Y-75220423D01*
X94989057Y-75179500D01*
X94830943Y-75179500D01*
X94737470Y-75204545D01*
X94678211Y-75220424D01*
X94541287Y-75299477D01*
X94541277Y-75299485D01*
X94423640Y-75417123D01*
X94421181Y-75414664D01*
X94376836Y-75447061D01*
X94334183Y-75454500D01*
X92667017Y-75454500D01*
X92637096Y-75445714D01*
X92606631Y-75439087D01*
X92601536Y-75435273D01*
X92598896Y-75434498D01*
X92577921Y-75417595D01*
X92497404Y-75337077D01*
X92463379Y-75274764D01*
X92460500Y-75247982D01*
X92460500Y-68750816D01*
X92480502Y-68682695D01*
X92499053Y-68662535D01*
X92497877Y-68661359D01*
X92615514Y-68543721D01*
X92615520Y-68543715D01*
X92673380Y-68443498D01*
X92694575Y-68406787D01*
X92694575Y-68406786D01*
X92694577Y-68406783D01*
X92735500Y-68254056D01*
X92735500Y-68095942D01*
X92694577Y-67943215D01*
X92694575Y-67943212D01*
X92694575Y-67943210D01*
X92615522Y-67806286D01*
X92615514Y-67806276D01*
X92497877Y-67688639D01*
X92500317Y-67686198D01*
X92467882Y-67641676D01*
X92460500Y-67599181D01*
X92460500Y-67367148D01*
X92460500Y-67367147D01*
X92438318Y-67284362D01*
X92438318Y-67284361D01*
X92433753Y-67276455D01*
X92395467Y-67210141D01*
X92395459Y-67210131D01*
X91799868Y-66614540D01*
X91799858Y-66614532D01*
X91725643Y-66571684D01*
X91725641Y-66571683D01*
X91725639Y-66571682D01*
X91725636Y-66571681D01*
X91718008Y-66568522D01*
X91719143Y-66565779D01*
X91670707Y-66536258D01*
X91639684Y-66472398D01*
X91648111Y-66401903D01*
X91693312Y-66347155D01*
X91760937Y-66325536D01*
X91763939Y-66325500D01*
X96287983Y-66325500D01*
X96356104Y-66345502D01*
X96377078Y-66362405D01*
X96889891Y-66875218D01*
X96923917Y-66937530D01*
X96918852Y-67008345D01*
X96917206Y-67012529D01*
X96887951Y-67083159D01*
X96887949Y-67083164D01*
X96849500Y-67276455D01*
X96849500Y-67473544D01*
X96887949Y-67666835D01*
X96887950Y-67666838D01*
X96943432Y-67800783D01*
X96963368Y-67848914D01*
X97072861Y-68012782D01*
X97212218Y-68152139D01*
X97376086Y-68261632D01*
X97558165Y-68337051D01*
X97751459Y-68375500D01*
X97948541Y-68375500D01*
X98141835Y-68337051D01*
X98323914Y-68261632D01*
X98487782Y-68152139D01*
X98627139Y-68012782D01*
X98736632Y-67848914D01*
X98812051Y-67666835D01*
X98850500Y-67473541D01*
X98850500Y-67276459D01*
X98812051Y-67083165D01*
X98736632Y-66901086D01*
X98627139Y-66737218D01*
X98487782Y-66597861D01*
X98323914Y-66488368D01*
X98246456Y-66456284D01*
X98141838Y-66412950D01*
X98141835Y-66412949D01*
X97948544Y-66374500D01*
X97948541Y-66374500D01*
X97751459Y-66374500D01*
X97751455Y-66374500D01*
X97558164Y-66412949D01*
X97558159Y-66412951D01*
X97487529Y-66442206D01*
X97416939Y-66449794D01*
X97353453Y-66418013D01*
X97350245Y-66414918D01*
X96674862Y-65739535D01*
X96674860Y-65739534D01*
X96674858Y-65739532D01*
X96600643Y-65696684D01*
X96600641Y-65696683D01*
X96600639Y-65696682D01*
X96517853Y-65674500D01*
X96517851Y-65674500D01*
X83713564Y-65674500D01*
X83645443Y-65654498D01*
X83598950Y-65600842D01*
X83588846Y-65530568D01*
X83594634Y-65506886D01*
X83598976Y-65494477D01*
X83607646Y-65469699D01*
X83610500Y-65439266D01*
X83610500Y-64736455D01*
X96849500Y-64736455D01*
X96849500Y-64933544D01*
X96867818Y-65025632D01*
X96887949Y-65126835D01*
X96963368Y-65308914D01*
X97072861Y-65472782D01*
X97212218Y-65612139D01*
X97376086Y-65721632D01*
X97558165Y-65797051D01*
X97751459Y-65835500D01*
X97948541Y-65835500D01*
X98141835Y-65797051D01*
X98323914Y-65721632D01*
X98487782Y-65612139D01*
X98627139Y-65472782D01*
X98736632Y-65308914D01*
X98812051Y-65126835D01*
X98850500Y-64933541D01*
X98850500Y-64736459D01*
X98812051Y-64543165D01*
X98736632Y-64361086D01*
X98627139Y-64197218D01*
X98487782Y-64057861D01*
X98323914Y-63948368D01*
X98141838Y-63872950D01*
X98141835Y-63872949D01*
X97948544Y-63834500D01*
X97948541Y-63834500D01*
X97751459Y-63834500D01*
X97751455Y-63834500D01*
X97558164Y-63872949D01*
X97558161Y-63872950D01*
X97376085Y-63948368D01*
X97212222Y-64057858D01*
X97212215Y-64057863D01*
X97072863Y-64197215D01*
X97072858Y-64197222D01*
X96963368Y-64361085D01*
X96887950Y-64543161D01*
X96887949Y-64543164D01*
X96849500Y-64736455D01*
X83610500Y-64736455D01*
X83610500Y-64230734D01*
X83607646Y-64200301D01*
X83562793Y-64072118D01*
X83562791Y-64072114D01*
X83482150Y-63962849D01*
X83372885Y-63882208D01*
X83372881Y-63882206D01*
X83244704Y-63837355D01*
X83244700Y-63837354D01*
X83214266Y-63834500D01*
X82005734Y-63834500D01*
X82005733Y-63834500D01*
X81975299Y-63837354D01*
X81975295Y-63837355D01*
X81847118Y-63882206D01*
X81847114Y-63882208D01*
X81737849Y-63962849D01*
X81657208Y-64072114D01*
X81657206Y-64072118D01*
X81612355Y-64200295D01*
X81612354Y-64200299D01*
X81609500Y-64230733D01*
X81609500Y-65439266D01*
X81612354Y-65469699D01*
X81625366Y-65506886D01*
X81628984Y-65577790D01*
X81593695Y-65639395D01*
X81530701Y-65672141D01*
X81506436Y-65674500D01*
X79992786Y-65674500D01*
X79948424Y-65686386D01*
X79910003Y-65696681D01*
X79909996Y-65696684D01*
X79891870Y-65707150D01*
X79866788Y-65721631D01*
X79835778Y-65739534D01*
X79835774Y-65739537D01*
X79687627Y-65887685D01*
X79350715Y-66224596D01*
X79288405Y-66258620D01*
X79261622Y-66261500D01*
X79230853Y-66261500D01*
X79145147Y-66261500D01*
X79062361Y-66283682D01*
X79062359Y-66283683D01*
X79062356Y-66283684D01*
X78988141Y-66326532D01*
X78988135Y-66326537D01*
X78751998Y-66562673D01*
X78689686Y-66596698D01*
X78662315Y-66597847D01*
X78662315Y-66599500D01*
X78654057Y-66599500D01*
X78495943Y-66599500D01*
X78402470Y-66624545D01*
X78343211Y-66640424D01*
X78206287Y-66719477D01*
X78206277Y-66719485D01*
X78094485Y-66831277D01*
X78094477Y-66831287D01*
X78015424Y-66968211D01*
X77996745Y-67037923D01*
X77974500Y-67120943D01*
X77974500Y-67279057D01*
X77986111Y-67322389D01*
X78015423Y-67431785D01*
X78017567Y-67435497D01*
X78018425Y-67439033D01*
X78018585Y-67439420D01*
X78018524Y-67439444D01*
X78019022Y-67441494D01*
X78023063Y-67446158D01*
X78027295Y-67475597D01*
X78034306Y-67504492D01*
X78032288Y-67510321D01*
X78033167Y-67516432D01*
X78020811Y-67543486D01*
X78011087Y-67571585D01*
X78006236Y-67575399D01*
X78003673Y-67581012D01*
X77978658Y-67597088D01*
X77955281Y-67615473D01*
X77947810Y-67616912D01*
X77943947Y-67619396D01*
X77908449Y-67624500D01*
X77687017Y-67624500D01*
X77618896Y-67604498D01*
X77597921Y-67587595D01*
X76862404Y-66852077D01*
X76828379Y-66789765D01*
X76825500Y-66762982D01*
X76825500Y-65032148D01*
X76823754Y-65025632D01*
X76803318Y-64949362D01*
X76803316Y-64949359D01*
X76803316Y-64949357D01*
X76760467Y-64875141D01*
X76760463Y-64875136D01*
X76699862Y-64814535D01*
X76299862Y-64414535D01*
X76299860Y-64414534D01*
X76299858Y-64414532D01*
X76225643Y-64371684D01*
X76225641Y-64371683D01*
X76225639Y-64371682D01*
X76142853Y-64349500D01*
X60867853Y-64349500D01*
X60782147Y-64349500D01*
X60699361Y-64371682D01*
X60699359Y-64371683D01*
X60699356Y-64371684D01*
X60625141Y-64414532D01*
X60625131Y-64414540D01*
X59364540Y-65675131D01*
X59364532Y-65675141D01*
X59321684Y-65749356D01*
X59321682Y-65749361D01*
X59308904Y-65797051D01*
X59299500Y-65832147D01*
X59299500Y-66482147D01*
X59299500Y-71932147D01*
X59299500Y-72017853D01*
X59321682Y-72100639D01*
X59321683Y-72100641D01*
X59321684Y-72100643D01*
X59364532Y-72174858D01*
X59364540Y-72174868D01*
X62262672Y-75072999D01*
X62296698Y-75135311D01*
X62297857Y-75162685D01*
X62299500Y-75162685D01*
X62299500Y-75170943D01*
X62299500Y-75329057D01*
X62330429Y-75444485D01*
X62340424Y-75481788D01*
X62419477Y-75618712D01*
X62419485Y-75618722D01*
X62531277Y-75730514D01*
X62531282Y-75730518D01*
X62531284Y-75730520D01*
X62531285Y-75730521D01*
X62531287Y-75730522D01*
X62668211Y-75809575D01*
X62668213Y-75809575D01*
X62668216Y-75809577D01*
X62820943Y-75850500D01*
X62820945Y-75850500D01*
X62979055Y-75850500D01*
X62979057Y-75850500D01*
X63131784Y-75809577D01*
X63131787Y-75809574D01*
X63131791Y-75809574D01*
X63139420Y-75806415D01*
X63140511Y-75809050D01*
X63196008Y-75795567D01*
X63263108Y-75818765D01*
X63307014Y-75874557D01*
X63313786Y-75945230D01*
X63281275Y-76008345D01*
X63279150Y-76010521D01*
X62014540Y-77275131D01*
X62014534Y-77275139D01*
X61971681Y-77349360D01*
X61971680Y-77349363D01*
X61964514Y-77376112D01*
X61964514Y-77376113D01*
X61964514Y-77376114D01*
X61949500Y-77432147D01*
X61949500Y-102057147D01*
X61949500Y-102142853D01*
X61971682Y-102225639D01*
X61971683Y-102225641D01*
X61971684Y-102225643D01*
X62014532Y-102299858D01*
X62014537Y-102299864D01*
X62785129Y-103070455D01*
X62785133Y-103070462D01*
X62785134Y-103070462D01*
X62850131Y-103135459D01*
X62850135Y-103135462D01*
X62850138Y-103135465D01*
X62891775Y-103159504D01*
X62894552Y-103161107D01*
X62943553Y-103212482D01*
X62956999Y-103282194D01*
X62930622Y-103348109D01*
X62872796Y-103389299D01*
X62831545Y-103396235D01*
X62688952Y-103396209D01*
X62677996Y-103395730D01*
X62528058Y-103382615D01*
X62506428Y-103378801D01*
X62356744Y-103338696D01*
X62336106Y-103331184D01*
X62195653Y-103265692D01*
X62176640Y-103254715D01*
X62049687Y-103165822D01*
X62032868Y-103151708D01*
X61923291Y-103042131D01*
X61909178Y-103025313D01*
X61820282Y-102898355D01*
X61809309Y-102879350D01*
X61743812Y-102738887D01*
X61736305Y-102718263D01*
X61696197Y-102568565D01*
X61692385Y-102546947D01*
X61678399Y-102387055D01*
X61677920Y-102376076D01*
X61677920Y-102329400D01*
X61677860Y-102328843D01*
X61677831Y-102057147D01*
X61675500Y-80449793D01*
X61675499Y-80449792D01*
X61675497Y-80431034D01*
X61673080Y-80418884D01*
X61673082Y-80354487D01*
X61642793Y-80182696D01*
X61642199Y-80179328D01*
X61638614Y-80169477D01*
X61581367Y-80012184D01*
X61492435Y-79858147D01*
X61378106Y-79721894D01*
X61241853Y-79607565D01*
X61087816Y-79518633D01*
X60949276Y-79468211D01*
X60920671Y-79457800D01*
X60753918Y-79428400D01*
X60745513Y-79426918D01*
X60745512Y-79426918D01*
X60656580Y-79426920D01*
X60650261Y-79426920D01*
X57721555Y-79422705D01*
X57719438Y-79422080D01*
X57673924Y-79422080D01*
X57662944Y-79421601D01*
X57503057Y-79407615D01*
X57481428Y-79403801D01*
X57331744Y-79363696D01*
X57311106Y-79356184D01*
X57170653Y-79290692D01*
X57151640Y-79279715D01*
X57024687Y-79190822D01*
X57007868Y-79176708D01*
X56898291Y-79067131D01*
X56884178Y-79050313D01*
X56795282Y-78923355D01*
X56784309Y-78904350D01*
X56718812Y-78763887D01*
X56711305Y-78743263D01*
X56671197Y-78593565D01*
X56667385Y-78571947D01*
X56653399Y-78412055D01*
X56652920Y-78401076D01*
X56652920Y-78373981D01*
X56650500Y-78351469D01*
X56650500Y-63848923D01*
X56650979Y-63837944D01*
X56659890Y-63736068D01*
X56664965Y-63678047D01*
X56668776Y-63656436D01*
X56708887Y-63506729D01*
X56716390Y-63486112D01*
X56781892Y-63345640D01*
X56792857Y-63326647D01*
X56881758Y-63199678D01*
X56895863Y-63182869D01*
X57005453Y-63073276D01*
X57022264Y-63059170D01*
X57149225Y-62970270D01*
X57168225Y-62959300D01*
X57308692Y-62893798D01*
X57329313Y-62886293D01*
X57479012Y-62846180D01*
X57500628Y-62842368D01*
X57645319Y-62829709D01*
X57660294Y-62828399D01*
X57671275Y-62827920D01*
X57718446Y-62827920D01*
X57718654Y-62827895D01*
X98303476Y-62809502D01*
X98314504Y-62809982D01*
G37*
%TD.AperFunction*%
%TA.AperFunction,Conductor*%
G36*
X94781104Y-81395502D02*
G01*
X94802078Y-81412405D01*
X95122595Y-81732922D01*
X95156621Y-81795234D01*
X95159500Y-81822017D01*
X95159500Y-95196790D01*
X95139498Y-95264911D01*
X95085842Y-95311404D01*
X95072437Y-95316623D01*
X94985782Y-95344779D01*
X94803387Y-95437714D01*
X94637779Y-95558034D01*
X94493034Y-95702779D01*
X94372714Y-95868387D01*
X94279778Y-96050784D01*
X94251624Y-96137436D01*
X94211551Y-96196042D01*
X94146154Y-96223679D01*
X94131791Y-96224500D01*
X87161005Y-96224500D01*
X87092884Y-96204498D01*
X87046391Y-96150842D01*
X87036287Y-96080568D01*
X87065781Y-96015988D01*
X87100801Y-95990732D01*
X87099632Y-95988707D01*
X87222413Y-95917819D01*
X87243716Y-95905520D01*
X87355520Y-95793716D01*
X87422769Y-95677237D01*
X87434575Y-95656788D01*
X87434575Y-95656787D01*
X87434577Y-95656784D01*
X87475500Y-95504057D01*
X87475500Y-95345943D01*
X87434577Y-95193216D01*
X87434575Y-95193213D01*
X87434575Y-95193211D01*
X87355522Y-95056287D01*
X87355514Y-95056277D01*
X87237877Y-94938640D01*
X87240317Y-94936199D01*
X87207882Y-94891677D01*
X87200500Y-94849182D01*
X87200500Y-94258148D01*
X87200499Y-94258144D01*
X87191122Y-94223145D01*
X87191122Y-94223144D01*
X87178320Y-94175368D01*
X87178319Y-94175367D01*
X87178318Y-94175361D01*
X87135465Y-94101138D01*
X87135463Y-94101136D01*
X87135459Y-94101131D01*
X87049923Y-94015595D01*
X87015897Y-93953283D01*
X87020962Y-93882468D01*
X87063509Y-93825632D01*
X87130029Y-93800821D01*
X87139018Y-93800500D01*
X92607800Y-93800500D01*
X92607802Y-93800500D01*
X92690588Y-93778318D01*
X92764811Y-93735465D01*
X92825958Y-93674317D01*
X92888267Y-93640293D01*
X92915642Y-93639159D01*
X92915642Y-93637491D01*
X93082013Y-93637491D01*
X93082015Y-93637491D01*
X93234742Y-93596568D01*
X93234745Y-93596566D01*
X93234746Y-93596566D01*
X93309922Y-93553163D01*
X93371674Y-93517511D01*
X93483478Y-93405707D01*
X93559157Y-93274626D01*
X93562533Y-93268779D01*
X93562533Y-93268778D01*
X93562535Y-93268775D01*
X93603458Y-93116048D01*
X93603458Y-92957934D01*
X93562535Y-92805207D01*
X93562533Y-92805204D01*
X93562533Y-92805202D01*
X93483480Y-92668278D01*
X93483472Y-92668268D01*
X93371680Y-92556476D01*
X93371670Y-92556468D01*
X93234746Y-92477415D01*
X93191935Y-92465944D01*
X93082015Y-92436491D01*
X92923901Y-92436491D01*
X92830428Y-92461536D01*
X92771169Y-92477415D01*
X92634245Y-92556468D01*
X92634235Y-92556476D01*
X92522443Y-92668268D01*
X92522435Y-92668278D01*
X92443382Y-92805202D01*
X92402458Y-92957935D01*
X92402458Y-93023500D01*
X92382456Y-93091621D01*
X92328800Y-93138114D01*
X92276458Y-93149500D01*
X87262737Y-93149500D01*
X87194616Y-93129498D01*
X87173646Y-93112599D01*
X86250582Y-92189535D01*
X86250580Y-92189534D01*
X86250578Y-92189532D01*
X86176363Y-92146684D01*
X86176361Y-92146683D01*
X86176359Y-92146682D01*
X86093573Y-92124500D01*
X86093571Y-92124500D01*
X85762017Y-92124500D01*
X85693896Y-92104498D01*
X85672922Y-92087595D01*
X85087327Y-91502000D01*
X85053301Y-91439688D01*
X85052171Y-91412316D01*
X85050500Y-91412316D01*
X85050500Y-91245944D01*
X85047702Y-91235500D01*
X85009577Y-91093216D01*
X85009575Y-91093213D01*
X85009575Y-91093211D01*
X84930522Y-90956287D01*
X84930514Y-90956277D01*
X84818722Y-90844485D01*
X84818712Y-90844477D01*
X84681788Y-90765424D01*
X84663743Y-90760589D01*
X84529057Y-90724500D01*
X84370943Y-90724500D01*
X84277470Y-90749545D01*
X84218211Y-90765424D01*
X84081287Y-90844477D01*
X84081277Y-90844485D01*
X83969485Y-90956277D01*
X83969477Y-90956287D01*
X83890424Y-91093211D01*
X83867544Y-91178599D01*
X83849500Y-91245943D01*
X83849500Y-91404057D01*
X83862415Y-91452257D01*
X83890424Y-91556788D01*
X83969477Y-91693712D01*
X83969485Y-91693722D01*
X84081277Y-91805514D01*
X84081282Y-91805518D01*
X84081284Y-91805520D01*
X84081285Y-91805521D01*
X84081287Y-91805522D01*
X84218211Y-91884575D01*
X84218213Y-91884575D01*
X84218216Y-91884577D01*
X84370943Y-91925500D01*
X84370945Y-91925500D01*
X84537316Y-91925500D01*
X84537316Y-91928987D01*
X84591521Y-91937398D01*
X84627000Y-91962327D01*
X85281623Y-92616950D01*
X85315649Y-92679262D01*
X85310584Y-92750077D01*
X85281626Y-92795138D01*
X85269478Y-92807286D01*
X85190424Y-92944211D01*
X85190423Y-92944216D01*
X85149500Y-93096943D01*
X85149500Y-93255057D01*
X85180906Y-93372266D01*
X85190424Y-93407788D01*
X85269477Y-93544712D01*
X85269485Y-93544722D01*
X85381277Y-93656514D01*
X85381282Y-93656518D01*
X85381284Y-93656520D01*
X85381285Y-93656521D01*
X85381287Y-93656522D01*
X85518211Y-93735575D01*
X85518213Y-93735575D01*
X85518216Y-93735577D01*
X85670943Y-93776500D01*
X85670945Y-93776500D01*
X85837316Y-93776500D01*
X85837316Y-93779987D01*
X85891521Y-93788398D01*
X85927000Y-93813327D01*
X86512595Y-94398922D01*
X86546621Y-94461234D01*
X86549500Y-94488017D01*
X86549500Y-94849182D01*
X86529498Y-94917303D01*
X86510958Y-94937475D01*
X86512123Y-94938640D01*
X86394485Y-95056277D01*
X86394477Y-95056287D01*
X86315424Y-95193211D01*
X86312518Y-95204057D01*
X86274500Y-95345943D01*
X86274500Y-95504057D01*
X86302039Y-95606834D01*
X86315424Y-95656788D01*
X86394477Y-95793712D01*
X86394485Y-95793722D01*
X86506277Y-95905514D01*
X86506282Y-95905518D01*
X86506284Y-95905520D01*
X86506285Y-95905521D01*
X86506287Y-95905522D01*
X86650368Y-95988707D01*
X86648798Y-95991425D01*
X86692497Y-96026643D01*
X86714915Y-96094008D01*
X86697354Y-96162798D01*
X86645390Y-96211175D01*
X86588995Y-96224500D01*
X86218209Y-96224500D01*
X86150088Y-96204498D01*
X86103595Y-96150842D01*
X86098376Y-96137436D01*
X86070221Y-96050784D01*
X86070220Y-96050783D01*
X86070220Y-96050781D01*
X85977287Y-95868390D01*
X85968492Y-95856284D01*
X85856965Y-95702779D01*
X85712220Y-95558034D01*
X85546612Y-95437714D01*
X85499170Y-95413541D01*
X85364219Y-95344780D01*
X85364216Y-95344779D01*
X85364214Y-95344778D01*
X85169538Y-95281524D01*
X85169536Y-95281523D01*
X85169534Y-95281523D01*
X84967352Y-95249500D01*
X84762648Y-95249500D01*
X84560466Y-95281523D01*
X84560464Y-95281523D01*
X84560461Y-95281524D01*
X84365785Y-95344778D01*
X84365779Y-95344781D01*
X84183387Y-95437714D01*
X84017779Y-95558034D01*
X83873034Y-95702779D01*
X83752714Y-95868387D01*
X83659781Y-96050779D01*
X83659778Y-96050785D01*
X83596524Y-96245461D01*
X83596523Y-96245464D01*
X83596523Y-96245466D01*
X83564500Y-96447648D01*
X83564500Y-96652352D01*
X83596518Y-96854500D01*
X83596524Y-96854538D01*
X83642679Y-96996588D01*
X83644707Y-97067555D01*
X83608044Y-97128353D01*
X83604129Y-97130277D01*
X82993531Y-97740875D01*
X82982741Y-97700606D01*
X82930080Y-97609394D01*
X82855606Y-97534920D01*
X82764394Y-97482259D01*
X82724123Y-97471468D01*
X83299462Y-96896128D01*
X83228978Y-96844918D01*
X83063348Y-96760525D01*
X83063342Y-96760522D01*
X82886557Y-96703081D01*
X82702944Y-96674000D01*
X82517056Y-96674000D01*
X82333442Y-96703081D01*
X82156657Y-96760522D01*
X82156651Y-96760525D01*
X81991017Y-96844920D01*
X81920536Y-96896127D01*
X81920536Y-96896129D01*
X82495875Y-97471468D01*
X82455606Y-97482259D01*
X82364394Y-97534920D01*
X82289920Y-97609394D01*
X82237259Y-97700606D01*
X82226468Y-97740875D01*
X81651129Y-97165536D01*
X81651127Y-97165536D01*
X81599920Y-97236017D01*
X81515525Y-97401651D01*
X81515522Y-97401657D01*
X81458081Y-97578442D01*
X81429000Y-97762056D01*
X81429000Y-97947943D01*
X81458081Y-98131557D01*
X81515522Y-98308342D01*
X81515525Y-98308348D01*
X81599918Y-98473978D01*
X81651128Y-98544462D01*
X82226468Y-97969122D01*
X82237259Y-98009394D01*
X82289920Y-98100606D01*
X82364394Y-98175080D01*
X82455606Y-98227741D01*
X82495876Y-98238531D01*
X81920536Y-98813870D01*
X81991021Y-98865081D01*
X82156651Y-98949474D01*
X82156654Y-98949475D01*
X82169553Y-98953667D01*
X82228158Y-98993741D01*
X82255795Y-99059138D01*
X82243688Y-99129095D01*
X82195681Y-99181400D01*
X82130616Y-99199500D01*
X77337016Y-99199500D01*
X77268895Y-99179498D01*
X77247921Y-99162595D01*
X75931524Y-97846197D01*
X75687405Y-97602078D01*
X75653379Y-97539766D01*
X75650500Y-97512983D01*
X75650500Y-96800817D01*
X75670502Y-96732696D01*
X75689053Y-96712536D01*
X75687877Y-96711360D01*
X75805514Y-96593722D01*
X75805520Y-96593716D01*
X75884577Y-96456784D01*
X75925500Y-96304057D01*
X75925500Y-96145943D01*
X75884577Y-95993216D01*
X75884575Y-95993213D01*
X75884575Y-95993211D01*
X75805522Y-95856287D01*
X75805514Y-95856277D01*
X75693722Y-95744485D01*
X75693712Y-95744477D01*
X75666244Y-95728619D01*
X75617251Y-95677237D01*
X75603814Y-95607523D01*
X75630201Y-95541612D01*
X75688033Y-95500430D01*
X75729244Y-95493500D01*
X80897662Y-95493500D01*
X80897663Y-95493500D01*
X80938414Y-95482580D01*
X80948820Y-95479793D01*
X80981430Y-95475500D01*
X81518420Y-95475500D01*
X81586541Y-95495502D01*
X81633034Y-95549158D01*
X81641997Y-95576913D01*
X81647688Y-95605522D01*
X81647949Y-95606834D01*
X81647951Y-95606840D01*
X81686746Y-95700500D01*
X81723368Y-95788914D01*
X81832861Y-95952782D01*
X81972218Y-96092139D01*
X82136086Y-96201632D01*
X82318165Y-96277051D01*
X82511459Y-96315500D01*
X82708541Y-96315500D01*
X82901835Y-96277051D01*
X83083914Y-96201632D01*
X83247782Y-96092139D01*
X83387139Y-95952782D01*
X83496632Y-95788914D01*
X83572051Y-95606835D01*
X83610500Y-95413541D01*
X83610500Y-95216459D01*
X83572051Y-95023165D01*
X83496632Y-94841086D01*
X83387139Y-94677218D01*
X83247782Y-94537861D01*
X83083914Y-94428368D01*
X82954050Y-94374577D01*
X82901838Y-94352950D01*
X82901835Y-94352949D01*
X82708544Y-94314500D01*
X82708541Y-94314500D01*
X82511459Y-94314500D01*
X82511455Y-94314500D01*
X82318164Y-94352949D01*
X82318161Y-94352950D01*
X82136085Y-94428368D01*
X81972222Y-94537858D01*
X81972220Y-94537859D01*
X81832860Y-94677218D01*
X81771867Y-94768502D01*
X81717390Y-94814030D01*
X81667102Y-94824500D01*
X81325017Y-94824500D01*
X81256896Y-94804498D01*
X81210403Y-94750842D01*
X81200299Y-94680568D01*
X81229793Y-94615988D01*
X81235910Y-94609416D01*
X82110221Y-93735104D01*
X82172530Y-93701082D01*
X82243345Y-93706146D01*
X82247479Y-93707772D01*
X82318165Y-93737051D01*
X82511459Y-93775500D01*
X82708541Y-93775500D01*
X82901835Y-93737051D01*
X83083914Y-93661632D01*
X83247782Y-93552139D01*
X83387139Y-93412782D01*
X83496632Y-93248914D01*
X83572051Y-93066835D01*
X83610500Y-92873541D01*
X83610500Y-92676459D01*
X83572051Y-92483165D01*
X83496632Y-92301086D01*
X83387139Y-92137218D01*
X83247782Y-91997861D01*
X83083914Y-91888368D01*
X82954050Y-91834577D01*
X82901838Y-91812950D01*
X82901835Y-91812949D01*
X82708544Y-91774500D01*
X82708541Y-91774500D01*
X82511459Y-91774500D01*
X82511455Y-91774500D01*
X82318164Y-91812949D01*
X82318161Y-91812950D01*
X82136085Y-91888368D01*
X81972222Y-91997858D01*
X81972215Y-91997863D01*
X81832863Y-92137215D01*
X81832858Y-92137222D01*
X81723368Y-92301085D01*
X81647950Y-92483161D01*
X81647949Y-92483164D01*
X81609500Y-92676455D01*
X81609500Y-92873544D01*
X81647949Y-93066835D01*
X81647952Y-93066844D01*
X81677205Y-93137468D01*
X81684794Y-93208058D01*
X81653014Y-93271544D01*
X81649892Y-93274780D01*
X80570076Y-94354596D01*
X80507766Y-94388620D01*
X80480983Y-94391500D01*
X79198017Y-94391500D01*
X79129896Y-94371498D01*
X79083403Y-94317842D01*
X79073299Y-94247568D01*
X79102793Y-94182988D01*
X79108922Y-94176405D01*
X79839050Y-93446277D01*
X82096078Y-91189247D01*
X82158388Y-91155224D01*
X82229203Y-91160288D01*
X82233379Y-91161932D01*
X82252301Y-91169769D01*
X82318156Y-91197048D01*
X82318160Y-91197049D01*
X82318165Y-91197051D01*
X82511459Y-91235500D01*
X82708541Y-91235500D01*
X82901835Y-91197051D01*
X83083914Y-91121632D01*
X83247782Y-91012139D01*
X83387139Y-90872782D01*
X83496632Y-90708914D01*
X83572051Y-90526835D01*
X83610500Y-90333541D01*
X83610500Y-90284552D01*
X83630502Y-90216431D01*
X83684158Y-90169938D01*
X83752949Y-90159630D01*
X83759548Y-90160498D01*
X83759552Y-90160500D01*
X93186183Y-90160500D01*
X93254304Y-90180502D01*
X93274463Y-90199053D01*
X93275640Y-90197877D01*
X93393277Y-90315514D01*
X93393282Y-90315518D01*
X93393284Y-90315520D01*
X93393285Y-90315521D01*
X93393287Y-90315522D01*
X93530211Y-90394575D01*
X93530213Y-90394575D01*
X93530216Y-90394577D01*
X93682943Y-90435500D01*
X93682945Y-90435500D01*
X93841055Y-90435500D01*
X93841057Y-90435500D01*
X93993784Y-90394577D01*
X93993787Y-90394575D01*
X93993788Y-90394575D01*
X94099502Y-90333541D01*
X94130716Y-90315520D01*
X94242520Y-90203716D01*
X94282048Y-90135250D01*
X94321575Y-90066788D01*
X94321575Y-90066787D01*
X94321577Y-90066784D01*
X94362500Y-89914057D01*
X94362500Y-89755943D01*
X94321577Y-89603216D01*
X94321575Y-89603213D01*
X94321575Y-89603211D01*
X94242522Y-89466287D01*
X94242514Y-89466277D01*
X94130722Y-89354485D01*
X94130712Y-89354477D01*
X93993785Y-89275423D01*
X93967053Y-89268260D01*
X93906430Y-89231308D01*
X93875409Y-89167448D01*
X93883839Y-89096953D01*
X93929042Y-89042207D01*
X93936665Y-89037435D01*
X93992117Y-89005420D01*
X94054563Y-88969367D01*
X94166367Y-88857563D01*
X94226169Y-88753982D01*
X94245422Y-88720635D01*
X94245422Y-88720634D01*
X94245424Y-88720631D01*
X94286347Y-88567904D01*
X94286347Y-88409790D01*
X94245424Y-88257063D01*
X94245422Y-88257060D01*
X94245422Y-88257058D01*
X94166369Y-88120134D01*
X94166361Y-88120124D01*
X94050955Y-88004718D01*
X94016929Y-87942406D01*
X94021994Y-87871591D01*
X94064541Y-87814755D01*
X94077050Y-87806504D01*
X94114968Y-87784612D01*
X94130716Y-87775520D01*
X94242520Y-87663716D01*
X94282048Y-87595250D01*
X94321575Y-87526788D01*
X94321575Y-87526787D01*
X94321577Y-87526784D01*
X94362500Y-87374057D01*
X94362500Y-87215943D01*
X94321577Y-87063216D01*
X94321575Y-87063213D01*
X94321575Y-87063211D01*
X94242522Y-86926287D01*
X94242514Y-86926277D01*
X94130722Y-86814485D01*
X94130712Y-86814477D01*
X94052148Y-86769119D01*
X94003155Y-86717737D01*
X93989718Y-86648023D01*
X94016105Y-86582112D01*
X94052148Y-86550881D01*
X94089339Y-86529409D01*
X94130716Y-86505520D01*
X94242520Y-86393716D01*
X94307268Y-86281568D01*
X94321575Y-86256788D01*
X94321575Y-86256787D01*
X94321577Y-86256784D01*
X94362500Y-86104057D01*
X94362500Y-85945943D01*
X94321577Y-85793216D01*
X94321575Y-85793213D01*
X94321575Y-85793211D01*
X94242522Y-85656287D01*
X94242514Y-85656277D01*
X94130722Y-85544485D01*
X94130712Y-85544477D01*
X93993788Y-85465424D01*
X93951145Y-85453998D01*
X93841057Y-85424500D01*
X93682943Y-85424500D01*
X93589470Y-85449545D01*
X93530211Y-85465424D01*
X93393287Y-85544477D01*
X93393277Y-85544485D01*
X93275640Y-85662123D01*
X93274176Y-85660659D01*
X93254589Y-85673246D01*
X93228836Y-85692061D01*
X93224002Y-85692903D01*
X93221681Y-85694396D01*
X93186183Y-85699500D01*
X92962587Y-85699500D01*
X92962571Y-85699499D01*
X92954853Y-85699499D01*
X92869148Y-85699499D01*
X92869144Y-85699499D01*
X92813241Y-85714478D01*
X92813242Y-85714479D01*
X92786359Y-85721682D01*
X92712141Y-85764532D01*
X92712136Y-85764536D01*
X92692068Y-85784605D01*
X92651535Y-85825138D01*
X91566078Y-86910595D01*
X91503766Y-86944621D01*
X91476983Y-86947500D01*
X90214018Y-86947500D01*
X90145897Y-86927498D01*
X90099404Y-86873842D01*
X90089300Y-86803568D01*
X90118794Y-86738988D01*
X90124923Y-86732405D01*
X93009923Y-83847405D01*
X93037291Y-83832460D01*
X93063520Y-83815604D01*
X93069818Y-83814698D01*
X93072235Y-83813379D01*
X93099018Y-83810500D01*
X93186183Y-83810500D01*
X93254304Y-83830502D01*
X93274463Y-83849053D01*
X93275640Y-83847877D01*
X93393277Y-83965514D01*
X93393282Y-83965518D01*
X93393284Y-83965520D01*
X93393285Y-83965521D01*
X93393287Y-83965522D01*
X93530211Y-84044575D01*
X93530213Y-84044575D01*
X93530216Y-84044577D01*
X93682943Y-84085500D01*
X93682945Y-84085500D01*
X93841055Y-84085500D01*
X93841057Y-84085500D01*
X93993784Y-84044577D01*
X93993787Y-84044575D01*
X93993788Y-84044575D01*
X94105076Y-83980323D01*
X94130716Y-83965520D01*
X94242520Y-83853716D01*
X94258213Y-83826534D01*
X94304334Y-83780411D01*
X94330727Y-83765173D01*
X94364862Y-83745465D01*
X94764486Y-83345838D01*
X94764496Y-83345831D01*
X94835459Y-83274868D01*
X94835465Y-83274862D01*
X94878318Y-83200638D01*
X94885486Y-83173886D01*
X94900501Y-83117852D01*
X94900501Y-83032147D01*
X94900500Y-83032143D01*
X94900500Y-82128016D01*
X94900501Y-82128003D01*
X94900501Y-82032147D01*
X94900500Y-82032143D01*
X94878320Y-81949367D01*
X94878315Y-81949355D01*
X94855509Y-81909855D01*
X94855508Y-81909854D01*
X94849651Y-81899709D01*
X94835465Y-81875138D01*
X94774862Y-81814535D01*
X94774859Y-81814533D01*
X94671182Y-81710856D01*
X94550922Y-81590595D01*
X94516897Y-81528283D01*
X94521962Y-81457467D01*
X94564509Y-81400632D01*
X94631030Y-81375821D01*
X94640018Y-81375500D01*
X94712983Y-81375500D01*
X94781104Y-81395502D01*
G37*
%TD.AperFunction*%
%TA.AperFunction,Conductor*%
G36*
X81773977Y-89454502D02*
G01*
X81820470Y-89508158D01*
X81830574Y-89578432D01*
X81810621Y-89630502D01*
X81723368Y-89761085D01*
X81647950Y-89943161D01*
X81647949Y-89943164D01*
X81609500Y-90136455D01*
X81609500Y-90333544D01*
X81647949Y-90526835D01*
X81647952Y-90526845D01*
X81671347Y-90583326D01*
X81678936Y-90653916D01*
X81647156Y-90717403D01*
X81644033Y-90720638D01*
X78461078Y-93903595D01*
X78398766Y-93937620D01*
X78371983Y-93940500D01*
X75914013Y-93940500D01*
X75845892Y-93920498D01*
X75799399Y-93866842D01*
X75789295Y-93796568D01*
X75804894Y-93751500D01*
X75859575Y-93656788D01*
X75859575Y-93656787D01*
X75859577Y-93656784D01*
X75900500Y-93504057D01*
X75900500Y-93345943D01*
X75859577Y-93193216D01*
X75859575Y-93193213D01*
X75859575Y-93193211D01*
X75780522Y-93056287D01*
X75780514Y-93056277D01*
X75668722Y-92944485D01*
X75668717Y-92944481D01*
X75668716Y-92944480D01*
X75668713Y-92944478D01*
X75662164Y-92939453D01*
X75664130Y-92936889D01*
X75625623Y-92896494D01*
X75615917Y-92871386D01*
X75603318Y-92824362D01*
X75593459Y-92807286D01*
X75560467Y-92750141D01*
X75560463Y-92750136D01*
X75560404Y-92750077D01*
X75499862Y-92689535D01*
X75274709Y-92464382D01*
X75274707Y-92464381D01*
X75274705Y-92464379D01*
X75200490Y-92421531D01*
X75200488Y-92421530D01*
X75200486Y-92421529D01*
X75117700Y-92399347D01*
X75117698Y-92399347D01*
X74215014Y-92399347D01*
X74146893Y-92379345D01*
X74125919Y-92362442D01*
X74095651Y-92332174D01*
X74095641Y-92332166D01*
X73958717Y-92253113D01*
X73805979Y-92212187D01*
X73798579Y-92211213D01*
X73733654Y-92182487D01*
X73694566Y-92123219D01*
X73693725Y-92052228D01*
X73725936Y-91997199D01*
X76251732Y-89471405D01*
X76314044Y-89437379D01*
X76340827Y-89434500D01*
X81705856Y-89434500D01*
X81773977Y-89454502D01*
G37*
%TD.AperFunction*%
%TA.AperFunction,Conductor*%
G36*
X69798286Y-67668002D02*
G01*
X69844779Y-67721658D01*
X69851870Y-67741385D01*
X69869258Y-67806276D01*
X69875424Y-67829288D01*
X69954477Y-67966212D01*
X69954485Y-67966222D01*
X70066277Y-68078014D01*
X70066282Y-68078018D01*
X70066284Y-68078020D01*
X70066285Y-68078021D01*
X70066287Y-68078022D01*
X70203211Y-68157075D01*
X70203213Y-68157075D01*
X70203216Y-68157077D01*
X70355943Y-68198000D01*
X70355945Y-68198000D01*
X70514057Y-68198000D01*
X70541281Y-68190705D01*
X70612257Y-68192393D01*
X70662989Y-68223316D01*
X72190174Y-69750500D01*
X73714533Y-71274859D01*
X73714535Y-71274862D01*
X73775138Y-71335465D01*
X73794567Y-71346682D01*
X73849362Y-71378318D01*
X73932147Y-71400501D01*
X74025571Y-71400501D01*
X74025587Y-71400500D01*
X81971952Y-71400500D01*
X82040073Y-71420502D01*
X82086566Y-71474158D01*
X82096670Y-71544432D01*
X82067176Y-71609012D01*
X82041954Y-71631265D01*
X81972222Y-71677858D01*
X81972215Y-71677863D01*
X81832863Y-71817215D01*
X81832858Y-71817222D01*
X81723368Y-71981085D01*
X81647950Y-72163161D01*
X81647949Y-72163164D01*
X81609500Y-72356455D01*
X81609500Y-72553544D01*
X81647949Y-72746835D01*
X81647952Y-72746844D01*
X81677205Y-72817468D01*
X81684794Y-72888058D01*
X81653014Y-72951544D01*
X81649891Y-72954780D01*
X80390595Y-74214077D01*
X80328283Y-74248102D01*
X80257468Y-74243038D01*
X80200632Y-74200491D01*
X80175821Y-74133971D01*
X80175500Y-74124982D01*
X80175500Y-73550817D01*
X80195502Y-73482696D01*
X80214053Y-73462536D01*
X80212877Y-73461360D01*
X80330514Y-73343722D01*
X80330520Y-73343716D01*
X80385639Y-73248246D01*
X80409575Y-73206788D01*
X80409575Y-73206787D01*
X80409577Y-73206784D01*
X80450500Y-73054057D01*
X80450500Y-72895943D01*
X80409577Y-72743216D01*
X80409575Y-72743213D01*
X80409575Y-72743211D01*
X80330522Y-72606287D01*
X80330514Y-72606277D01*
X80218722Y-72494485D01*
X80218712Y-72494477D01*
X80081788Y-72415424D01*
X80036835Y-72403379D01*
X79929057Y-72374500D01*
X79770943Y-72374500D01*
X79677470Y-72399545D01*
X79618211Y-72415424D01*
X79481287Y-72494477D01*
X79481277Y-72494485D01*
X79369485Y-72606277D01*
X79369477Y-72606287D01*
X79290424Y-72743211D01*
X79270527Y-72817468D01*
X79249500Y-72895943D01*
X79249500Y-73054057D01*
X79275342Y-73150500D01*
X79290424Y-73206788D01*
X79369477Y-73343712D01*
X79369485Y-73343722D01*
X79487123Y-73461360D01*
X79484664Y-73463818D01*
X79517061Y-73508164D01*
X79524500Y-73550817D01*
X79524500Y-78301863D01*
X79504498Y-78369984D01*
X79450842Y-78416477D01*
X79431113Y-78423569D01*
X79368213Y-78440423D01*
X79231287Y-78519477D01*
X79231277Y-78519485D01*
X79119485Y-78631277D01*
X79119477Y-78631287D01*
X79040424Y-78768211D01*
X79020328Y-78843211D01*
X78999500Y-78920943D01*
X78999500Y-79079057D01*
X79030429Y-79194485D01*
X79040424Y-79231788D01*
X79119477Y-79368712D01*
X79119485Y-79368722D01*
X79231277Y-79480514D01*
X79231282Y-79480518D01*
X79231284Y-79480520D01*
X79231285Y-79480521D01*
X79231287Y-79480522D01*
X79368211Y-79559575D01*
X79368213Y-79559575D01*
X79368216Y-79559577D01*
X79520943Y-79600500D01*
X79520945Y-79600500D01*
X79679055Y-79600500D01*
X79679057Y-79600500D01*
X79831784Y-79559577D01*
X79831785Y-79559575D01*
X79839761Y-79557439D01*
X79840616Y-79560632D01*
X79895800Y-79554667D01*
X79959305Y-79586409D01*
X79995568Y-79647447D01*
X79999500Y-79678678D01*
X79999500Y-79971321D01*
X79979498Y-80039442D01*
X79925842Y-80085935D01*
X79855568Y-80096039D01*
X79839974Y-80091762D01*
X79839761Y-80092561D01*
X79831785Y-80090424D01*
X79831784Y-80090423D01*
X79679057Y-80049500D01*
X79520943Y-80049500D01*
X79427470Y-80074545D01*
X79368211Y-80090424D01*
X79231287Y-80169477D01*
X79231277Y-80169485D01*
X79113640Y-80287123D01*
X79111181Y-80284664D01*
X79066836Y-80317061D01*
X79024183Y-80324500D01*
X78703927Y-80324500D01*
X78635806Y-80304498D01*
X78589313Y-80250842D01*
X78579209Y-80180568D01*
X78608703Y-80115988D01*
X78614832Y-80109405D01*
X78655514Y-80068722D01*
X78655520Y-80068716D01*
X78708785Y-79976458D01*
X78734575Y-79931788D01*
X78734575Y-79931787D01*
X78734577Y-79931784D01*
X78775500Y-79779057D01*
X78775500Y-79620943D01*
X78734577Y-79468216D01*
X78734575Y-79468213D01*
X78734575Y-79468211D01*
X78687697Y-79387017D01*
X78655520Y-79331284D01*
X78655518Y-79331282D01*
X78655517Y-79331280D01*
X78651535Y-79326089D01*
X78625936Y-79259868D01*
X78625500Y-79249389D01*
X78625500Y-74578016D01*
X78625501Y-74578003D01*
X78625501Y-74482148D01*
X78625500Y-74482144D01*
X78603319Y-74399365D01*
X78603318Y-74399364D01*
X78603318Y-74399362D01*
X78594055Y-74383318D01*
X78560465Y-74325138D01*
X78560462Y-74325135D01*
X78560459Y-74325131D01*
X78495478Y-74260150D01*
X78495455Y-74260129D01*
X78164864Y-73929537D01*
X78164858Y-73929532D01*
X78090643Y-73886684D01*
X78090641Y-73886683D01*
X78090639Y-73886682D01*
X78007853Y-73864500D01*
X78007851Y-73864500D01*
X77603317Y-73864500D01*
X77535196Y-73844498D01*
X77515036Y-73825946D01*
X77513860Y-73827123D01*
X77396222Y-73709485D01*
X77396212Y-73709477D01*
X77259288Y-73630424D01*
X77241243Y-73625589D01*
X77106557Y-73589500D01*
X76948443Y-73589500D01*
X76854970Y-73614545D01*
X76795711Y-73630424D01*
X76658787Y-73709477D01*
X76658777Y-73709485D01*
X76546985Y-73821277D01*
X76546977Y-73821287D01*
X76467924Y-73958211D01*
X76459369Y-73990140D01*
X76427000Y-74110943D01*
X76427000Y-74269057D01*
X76457616Y-74383317D01*
X76467924Y-74421788D01*
X76546977Y-74558712D01*
X76546985Y-74558722D01*
X76658777Y-74670514D01*
X76658782Y-74670518D01*
X76658784Y-74670520D01*
X76658785Y-74670521D01*
X76658787Y-74670522D01*
X76795711Y-74749575D01*
X76795713Y-74749575D01*
X76795716Y-74749577D01*
X76948443Y-74790500D01*
X76948445Y-74790500D01*
X77106555Y-74790500D01*
X77106557Y-74790500D01*
X77259284Y-74749577D01*
X77259287Y-74749575D01*
X77259288Y-74749575D01*
X77361741Y-74690424D01*
X77396216Y-74670520D01*
X77454064Y-74612672D01*
X77513860Y-74552877D01*
X77515323Y-74554340D01*
X77534910Y-74541753D01*
X77560664Y-74522939D01*
X77565497Y-74522096D01*
X77567819Y-74520604D01*
X77603317Y-74515500D01*
X77777982Y-74515500D01*
X77846103Y-74535502D01*
X77867077Y-74552404D01*
X77937595Y-74622921D01*
X77971620Y-74685233D01*
X77974500Y-74712017D01*
X77974500Y-79049615D01*
X77954498Y-79117736D01*
X77911499Y-79158734D01*
X77806290Y-79219475D01*
X77806277Y-79219485D01*
X77694485Y-79331277D01*
X77694477Y-79331287D01*
X77611293Y-79475368D01*
X77608574Y-79473798D01*
X77573357Y-79517497D01*
X77505992Y-79539915D01*
X77437202Y-79522354D01*
X77388825Y-79470390D01*
X77375500Y-79413995D01*
X77375500Y-76500817D01*
X77395502Y-76432696D01*
X77414053Y-76412536D01*
X77412877Y-76411360D01*
X77530514Y-76293722D01*
X77530520Y-76293716D01*
X77581443Y-76205514D01*
X77609575Y-76156788D01*
X77609576Y-76156785D01*
X77609577Y-76156784D01*
X77650500Y-76004057D01*
X77650500Y-75845943D01*
X77609577Y-75693216D01*
X77609575Y-75693213D01*
X77609575Y-75693211D01*
X77530522Y-75556287D01*
X77530514Y-75556277D01*
X77418722Y-75444485D01*
X77418712Y-75444477D01*
X77281788Y-75365424D01*
X77247688Y-75356287D01*
X77129057Y-75324500D01*
X76970943Y-75324500D01*
X76877470Y-75349545D01*
X76818211Y-75365424D01*
X76681287Y-75444477D01*
X76681277Y-75444485D01*
X76569485Y-75556277D01*
X76569477Y-75556287D01*
X76490424Y-75693211D01*
X76490423Y-75693216D01*
X76449500Y-75845943D01*
X76449500Y-76004057D01*
X76472275Y-76089053D01*
X76490424Y-76156788D01*
X76569477Y-76293712D01*
X76569485Y-76293722D01*
X76687123Y-76411360D01*
X76684664Y-76413818D01*
X76717061Y-76458164D01*
X76724500Y-76500817D01*
X76724500Y-80032147D01*
X76724500Y-80117853D01*
X76746682Y-80200639D01*
X76746683Y-80200641D01*
X76746684Y-80200643D01*
X76789532Y-80274858D01*
X76789534Y-80274860D01*
X76789535Y-80274862D01*
X77364533Y-80849859D01*
X77364535Y-80849862D01*
X77425138Y-80910465D01*
X77462250Y-80931891D01*
X77471509Y-80937237D01*
X77471513Y-80937240D01*
X77499357Y-80953316D01*
X77499358Y-80953316D01*
X77499361Y-80953318D01*
X77582147Y-80975500D01*
X77667853Y-80975500D01*
X79024183Y-80975500D01*
X79092304Y-80995502D01*
X79112463Y-81014053D01*
X79113640Y-81012877D01*
X79231277Y-81130514D01*
X79231282Y-81130518D01*
X79231284Y-81130520D01*
X79231285Y-81130521D01*
X79231287Y-81130522D01*
X79368210Y-81209574D01*
X79368211Y-81209574D01*
X79368216Y-81209577D01*
X79373569Y-81211011D01*
X79434189Y-81247962D01*
X79465211Y-81311823D01*
X79456782Y-81382317D01*
X79430050Y-81421812D01*
X77525568Y-83326294D01*
X77463256Y-83360320D01*
X77392441Y-83355255D01*
X77335605Y-83312708D01*
X77310794Y-83246188D01*
X77325885Y-83176814D01*
X77327354Y-83174199D01*
X77335841Y-83159500D01*
X77399833Y-83048662D01*
X77409575Y-83031788D01*
X77409575Y-83031787D01*
X77409577Y-83031784D01*
X77450500Y-82879057D01*
X77450500Y-82720943D01*
X77409577Y-82568216D01*
X77409575Y-82568213D01*
X77409575Y-82568211D01*
X77330522Y-82431287D01*
X77330514Y-82431277D01*
X77218722Y-82319485D01*
X77218712Y-82319477D01*
X77081788Y-82240424D01*
X77062415Y-82235233D01*
X76929057Y-82199500D01*
X76770943Y-82199500D01*
X76709954Y-82215842D01*
X76618211Y-82240424D01*
X76481287Y-82319477D01*
X76481277Y-82319485D01*
X76369485Y-82431277D01*
X76369477Y-82431287D01*
X76290424Y-82568211D01*
X76290423Y-82568216D01*
X76249500Y-82720943D01*
X76249500Y-82879057D01*
X76269600Y-82954071D01*
X76290424Y-83031788D01*
X76369477Y-83168712D01*
X76369485Y-83168722D01*
X76462595Y-83261832D01*
X76496621Y-83324144D01*
X76499500Y-83350927D01*
X76499500Y-83662363D01*
X76479498Y-83730484D01*
X76462595Y-83751458D01*
X71276458Y-88937595D01*
X71214146Y-88971621D01*
X71187363Y-88974500D01*
X70249632Y-88974500D01*
X70181511Y-88954498D01*
X70135018Y-88900842D01*
X70128647Y-88878649D01*
X70127637Y-88878920D01*
X70121916Y-88857569D01*
X70084577Y-88718216D01*
X70084575Y-88718213D01*
X70084575Y-88718211D01*
X70005522Y-88581287D01*
X70005514Y-88581277D01*
X69893722Y-88469485D01*
X69893712Y-88469477D01*
X69756788Y-88390424D01*
X69729999Y-88383246D01*
X69604057Y-88349500D01*
X69445943Y-88349500D01*
X69361513Y-88372123D01*
X69293211Y-88390424D01*
X69156287Y-88469477D01*
X69156277Y-88469485D01*
X69044485Y-88581277D01*
X69044477Y-88581287D01*
X68965424Y-88718211D01*
X68953290Y-88763498D01*
X68924500Y-88870943D01*
X68924500Y-89029057D01*
X68944596Y-89104055D01*
X68965424Y-89181788D01*
X69044477Y-89318712D01*
X69044485Y-89318722D01*
X69060168Y-89334405D01*
X69070950Y-89354151D01*
X69085687Y-89371158D01*
X69087634Y-89384705D01*
X69094194Y-89396717D01*
X69092588Y-89419160D01*
X69095791Y-89441432D01*
X69090105Y-89453881D01*
X69089129Y-89467532D01*
X69075644Y-89485545D01*
X69066297Y-89506012D01*
X69054784Y-89513410D01*
X69046582Y-89524368D01*
X69025498Y-89532231D01*
X69006571Y-89544396D01*
X68984300Y-89547598D01*
X68980062Y-89549179D01*
X68971073Y-89549500D01*
X68762017Y-89549500D01*
X68693896Y-89529498D01*
X68672921Y-89512595D01*
X68588404Y-89428077D01*
X68554379Y-89365764D01*
X68551500Y-89338982D01*
X68551500Y-87916206D01*
X68551501Y-87916193D01*
X68551501Y-87820338D01*
X68551500Y-87820334D01*
X68529320Y-87737558D01*
X68529315Y-87737546D01*
X68518802Y-87719337D01*
X68486467Y-87663331D01*
X68486459Y-87663321D01*
X68418683Y-87595545D01*
X68418675Y-87595539D01*
X68317683Y-87494546D01*
X68317676Y-87494540D01*
X68161673Y-87338536D01*
X68039080Y-87215943D01*
X67840862Y-87017725D01*
X67576672Y-86753535D01*
X66996585Y-86173448D01*
X66963973Y-86116964D01*
X66963700Y-86115944D01*
X66963700Y-86115943D01*
X66922777Y-85963216D01*
X66922775Y-85963213D01*
X66922775Y-85963211D01*
X66843722Y-85826287D01*
X66843714Y-85826277D01*
X66731922Y-85714485D01*
X66731912Y-85714477D01*
X66638046Y-85660284D01*
X66620497Y-85641879D01*
X66600146Y-85626631D01*
X66596419Y-85616628D01*
X66589053Y-85608902D01*
X66584240Y-85583932D01*
X66575363Y-85560100D01*
X66577636Y-85549668D01*
X66575617Y-85539188D01*
X66585067Y-85515581D01*
X66590484Y-85490733D01*
X66598988Y-85480807D01*
X66602003Y-85473277D01*
X66611988Y-85462032D01*
X66618217Y-85455807D01*
X66618716Y-85455520D01*
X66730520Y-85343716D01*
X66730677Y-85343443D01*
X66736759Y-85337367D01*
X66760931Y-85324181D01*
X66783164Y-85307939D01*
X66794251Y-85306005D01*
X66799086Y-85303368D01*
X66806368Y-85303891D01*
X66825817Y-85300500D01*
X68112983Y-85300500D01*
X68181104Y-85320502D01*
X68202078Y-85337405D01*
X68462595Y-85597922D01*
X68496621Y-85660234D01*
X68499500Y-85687017D01*
X68499500Y-85849182D01*
X68479498Y-85917303D01*
X68460958Y-85937475D01*
X68462123Y-85938640D01*
X68344485Y-86056277D01*
X68344477Y-86056287D01*
X68265424Y-86193211D01*
X68248526Y-86256278D01*
X68224500Y-86345943D01*
X68224500Y-86504057D01*
X68259710Y-86635462D01*
X68265424Y-86656788D01*
X68344477Y-86793712D01*
X68344485Y-86793722D01*
X68456277Y-86905514D01*
X68456282Y-86905518D01*
X68456284Y-86905520D01*
X68456285Y-86905521D01*
X68456287Y-86905522D01*
X68593211Y-86984575D01*
X68593213Y-86984575D01*
X68593216Y-86984577D01*
X68745943Y-87025500D01*
X68745945Y-87025500D01*
X68904055Y-87025500D01*
X68904057Y-87025500D01*
X69056784Y-86984577D01*
X69056787Y-86984575D01*
X69056788Y-86984575D01*
X69147638Y-86932123D01*
X69193716Y-86905520D01*
X69305520Y-86793716D01*
X69364901Y-86690864D01*
X69384575Y-86656788D01*
X69384575Y-86656787D01*
X69384577Y-86656784D01*
X69425500Y-86504057D01*
X69425500Y-86345943D01*
X69384577Y-86193216D01*
X69384575Y-86193213D01*
X69384575Y-86193211D01*
X69305522Y-86056287D01*
X69305514Y-86056277D01*
X69187877Y-85938640D01*
X69190317Y-85936199D01*
X69157882Y-85891677D01*
X69150500Y-85849182D01*
X69150500Y-85457149D01*
X69150500Y-85457147D01*
X69147737Y-85446835D01*
X69128318Y-85374361D01*
X69104013Y-85332264D01*
X69085467Y-85300141D01*
X69085459Y-85300131D01*
X68499868Y-84714540D01*
X68499858Y-84714532D01*
X68425643Y-84671684D01*
X68425641Y-84671683D01*
X68425639Y-84671682D01*
X68342853Y-84649500D01*
X68342851Y-84649500D01*
X66825817Y-84649500D01*
X66757696Y-84629498D01*
X66737536Y-84610946D01*
X66736360Y-84612123D01*
X66618722Y-84494485D01*
X66618712Y-84494477D01*
X66481788Y-84415424D01*
X66446184Y-84405884D01*
X66329057Y-84374500D01*
X66170943Y-84374500D01*
X66077470Y-84399545D01*
X66018211Y-84415424D01*
X65881287Y-84494477D01*
X65881277Y-84494485D01*
X65769485Y-84606277D01*
X65769477Y-84606287D01*
X65690424Y-84743211D01*
X65675203Y-84800017D01*
X65649500Y-84895943D01*
X65649500Y-85054057D01*
X65668164Y-85123712D01*
X65690424Y-85206788D01*
X65769477Y-85343712D01*
X65769485Y-85343722D01*
X65881277Y-85455514D01*
X65881282Y-85455518D01*
X65881284Y-85455520D01*
X65881285Y-85455521D01*
X65881287Y-85455522D01*
X65975153Y-85509715D01*
X66024146Y-85561097D01*
X66037583Y-85630811D01*
X66011196Y-85696722D01*
X65999737Y-85708054D01*
X66000323Y-85708640D01*
X65882685Y-85826277D01*
X65882677Y-85826287D01*
X65803624Y-85963211D01*
X65792083Y-86006284D01*
X65762700Y-86115943D01*
X65762700Y-86274057D01*
X65794764Y-86393722D01*
X65803624Y-86426788D01*
X65882677Y-86563712D01*
X65882685Y-86563722D01*
X65994477Y-86675514D01*
X65994482Y-86675518D01*
X65994484Y-86675520D01*
X65994485Y-86675521D01*
X65994487Y-86675522D01*
X66073051Y-86720881D01*
X66122044Y-86772264D01*
X66135480Y-86841977D01*
X66109094Y-86907888D01*
X66073051Y-86939119D01*
X65994487Y-86984477D01*
X65994477Y-86984485D01*
X65882685Y-87096277D01*
X65882677Y-87096287D01*
X65803624Y-87233211D01*
X65803623Y-87233216D01*
X65762700Y-87385943D01*
X65762700Y-87544057D01*
X65794764Y-87663722D01*
X65803624Y-87696788D01*
X65882677Y-87833712D01*
X65882685Y-87833722D01*
X65994477Y-87945514D01*
X65994482Y-87945518D01*
X65994484Y-87945520D01*
X65994485Y-87945521D01*
X65994487Y-87945522D01*
X66073051Y-87990881D01*
X66122044Y-88042264D01*
X66135480Y-88111977D01*
X66109094Y-88177888D01*
X66073051Y-88209119D01*
X65994487Y-88254477D01*
X65994477Y-88254485D01*
X65876840Y-88372123D01*
X65875376Y-88370659D01*
X65855789Y-88383246D01*
X65830036Y-88402061D01*
X65825202Y-88402903D01*
X65822881Y-88404396D01*
X65787383Y-88409500D01*
X65697017Y-88409500D01*
X65628896Y-88389498D01*
X65607922Y-88372595D01*
X65287405Y-88052078D01*
X65253379Y-87989766D01*
X65250500Y-87962983D01*
X65250500Y-79387017D01*
X65270502Y-79318896D01*
X65287405Y-79297922D01*
X65847922Y-78737405D01*
X65910234Y-78703379D01*
X65937017Y-78700500D01*
X68433449Y-78700500D01*
X68501570Y-78720502D01*
X68548063Y-78774158D01*
X68558167Y-78844432D01*
X68542567Y-78889503D01*
X68540423Y-78893214D01*
X68532993Y-78920944D01*
X68499500Y-79045943D01*
X68499500Y-79204057D01*
X68532198Y-79326089D01*
X68540424Y-79356788D01*
X68619477Y-79493712D01*
X68619485Y-79493722D01*
X68731277Y-79605514D01*
X68731282Y-79605518D01*
X68731284Y-79605520D01*
X68731285Y-79605521D01*
X68731287Y-79605522D01*
X68868211Y-79684575D01*
X68868213Y-79684575D01*
X68868216Y-79684577D01*
X69020943Y-79725500D01*
X69020945Y-79725500D01*
X69179055Y-79725500D01*
X69179057Y-79725500D01*
X69331784Y-79684577D01*
X69331787Y-79684575D01*
X69331788Y-79684575D01*
X69418391Y-79634575D01*
X69468716Y-79605520D01*
X69519569Y-79554667D01*
X69586360Y-79487877D01*
X69588818Y-79490335D01*
X69633164Y-79457939D01*
X69675817Y-79450500D01*
X73474074Y-79450500D01*
X73542195Y-79470502D01*
X73563164Y-79487400D01*
X73631284Y-79555520D01*
X73631285Y-79555521D01*
X73631287Y-79555522D01*
X73768211Y-79634575D01*
X73768213Y-79634575D01*
X73768216Y-79634577D01*
X73920943Y-79675500D01*
X73920945Y-79675500D01*
X74079055Y-79675500D01*
X74079057Y-79675500D01*
X74231784Y-79634577D01*
X74231787Y-79634575D01*
X74231788Y-79634575D01*
X74343137Y-79570288D01*
X74368716Y-79555520D01*
X74480520Y-79443716D01*
X74528366Y-79360843D01*
X74559575Y-79306788D01*
X74559575Y-79306787D01*
X74559577Y-79306784D01*
X74600500Y-79154057D01*
X74600500Y-78995943D01*
X74559577Y-78843216D01*
X74559575Y-78843213D01*
X74559575Y-78843211D01*
X74480522Y-78706287D01*
X74480514Y-78706277D01*
X74368722Y-78594485D01*
X74368712Y-78594477D01*
X74231788Y-78515424D01*
X74079055Y-78474499D01*
X74073253Y-78473736D01*
X74060059Y-78467899D01*
X74045669Y-78466870D01*
X74028239Y-78453822D01*
X74008326Y-78445013D01*
X74000381Y-78432967D01*
X73988833Y-78424323D01*
X73981224Y-78403924D01*
X73969235Y-78385747D01*
X73969063Y-78371319D01*
X73964022Y-78357803D01*
X73968649Y-78336528D01*
X73968391Y-78314755D01*
X73976340Y-78301173D01*
X73979113Y-78288429D01*
X74000603Y-78259722D01*
X74073000Y-78187325D01*
X74135310Y-78153301D01*
X74162684Y-78152164D01*
X74162684Y-78150500D01*
X74329055Y-78150500D01*
X74329057Y-78150500D01*
X74481784Y-78109577D01*
X74481787Y-78109575D01*
X74481788Y-78109575D01*
X74585841Y-78049500D01*
X74618716Y-78030520D01*
X74652649Y-77996587D01*
X74709405Y-77939832D01*
X74771717Y-77905806D01*
X74842532Y-77910871D01*
X74899368Y-77953418D01*
X74924179Y-78019938D01*
X74924500Y-78028927D01*
X74924500Y-83471181D01*
X74904498Y-83539302D01*
X74887595Y-83560277D01*
X74591998Y-83855873D01*
X74529686Y-83889898D01*
X74502315Y-83891047D01*
X74502315Y-83892700D01*
X74494057Y-83892700D01*
X74335943Y-83892700D01*
X74242470Y-83917745D01*
X74183211Y-83933624D01*
X74046287Y-84012677D01*
X74046277Y-84012685D01*
X73934485Y-84124477D01*
X73934477Y-84124487D01*
X73855424Y-84261411D01*
X73833558Y-84343017D01*
X73814500Y-84414143D01*
X73814500Y-84572257D01*
X73841141Y-84671682D01*
X73855424Y-84724988D01*
X73934477Y-84861912D01*
X73934485Y-84861922D01*
X74046277Y-84973714D01*
X74046282Y-84973718D01*
X74046284Y-84973720D01*
X74046285Y-84973721D01*
X74046287Y-84973722D01*
X74183211Y-85052775D01*
X74183213Y-85052775D01*
X74183216Y-85052777D01*
X74335943Y-85093700D01*
X74335945Y-85093700D01*
X74494055Y-85093700D01*
X74494057Y-85093700D01*
X74646784Y-85052777D01*
X74646787Y-85052775D01*
X74646788Y-85052775D01*
X74761088Y-84986784D01*
X74783716Y-84973720D01*
X74895520Y-84861916D01*
X74953473Y-84761538D01*
X74974575Y-84724988D01*
X74974575Y-84724987D01*
X74974577Y-84724984D01*
X75015500Y-84572257D01*
X75015500Y-84414143D01*
X75015500Y-84405884D01*
X75018983Y-84405884D01*
X75027410Y-84351653D01*
X75052324Y-84316201D01*
X75510465Y-83858062D01*
X75528212Y-83827323D01*
X75553318Y-83783838D01*
X75575500Y-83701053D01*
X75575500Y-74000817D01*
X75595502Y-73932696D01*
X75614053Y-73912536D01*
X75612877Y-73911360D01*
X75730514Y-73793722D01*
X75730520Y-73793716D01*
X75809577Y-73656784D01*
X75850500Y-73504057D01*
X75850500Y-73345943D01*
X75809577Y-73193216D01*
X75809575Y-73193213D01*
X75809575Y-73193211D01*
X75730522Y-73056287D01*
X75730514Y-73056277D01*
X75618722Y-72944485D01*
X75618712Y-72944477D01*
X75481788Y-72865424D01*
X75463743Y-72860589D01*
X75329057Y-72824500D01*
X75170943Y-72824500D01*
X75077470Y-72849545D01*
X75018211Y-72865424D01*
X74881287Y-72944477D01*
X74881277Y-72944485D01*
X74769485Y-73056277D01*
X74769477Y-73056287D01*
X74690424Y-73193211D01*
X74670636Y-73267061D01*
X74649500Y-73345943D01*
X74649500Y-73504057D01*
X74677542Y-73608712D01*
X74690424Y-73656788D01*
X74769477Y-73793712D01*
X74769485Y-73793722D01*
X74887123Y-73911360D01*
X74884664Y-73913818D01*
X74917061Y-73958164D01*
X74924500Y-74000817D01*
X74924500Y-75228573D01*
X74904498Y-75296694D01*
X74850842Y-75343187D01*
X74780568Y-75353291D01*
X74715988Y-75323797D01*
X74709405Y-75317668D01*
X74613722Y-75221985D01*
X74613712Y-75221977D01*
X74476788Y-75142924D01*
X74458743Y-75138089D01*
X74324057Y-75102000D01*
X74165943Y-75102000D01*
X74102711Y-75118943D01*
X74013211Y-75142924D01*
X73876287Y-75221977D01*
X73876277Y-75221985D01*
X73758640Y-75339623D01*
X73757176Y-75338159D01*
X73737589Y-75350746D01*
X73711836Y-75369561D01*
X73707002Y-75370403D01*
X73704681Y-75371896D01*
X73669183Y-75377000D01*
X73550817Y-75377000D01*
X73482696Y-75356998D01*
X73462536Y-75338446D01*
X73461360Y-75339623D01*
X73362405Y-75240668D01*
X73328379Y-75178356D01*
X73325500Y-75151573D01*
X73325500Y-74757148D01*
X73325500Y-74757147D01*
X73303318Y-74674362D01*
X73303316Y-74674359D01*
X73303316Y-74674357D01*
X73260467Y-74600141D01*
X73260463Y-74600136D01*
X73238330Y-74578003D01*
X73199862Y-74539535D01*
X71763405Y-73103078D01*
X71729379Y-73040766D01*
X71726500Y-73013983D01*
X71726500Y-71995337D01*
X71726499Y-71995335D01*
X71722735Y-71981284D01*
X71704318Y-71912551D01*
X71682717Y-71875138D01*
X71661465Y-71838328D01*
X71600862Y-71777725D01*
X71600859Y-71777723D01*
X69942672Y-70119535D01*
X69942670Y-70119534D01*
X69942668Y-70119532D01*
X69868453Y-70076684D01*
X69868451Y-70076683D01*
X69868449Y-70076682D01*
X69785663Y-70054500D01*
X69785661Y-70054500D01*
X69498317Y-70054500D01*
X69430196Y-70034498D01*
X69410036Y-70015946D01*
X69408860Y-70017123D01*
X69291222Y-69899485D01*
X69291212Y-69899477D01*
X69212648Y-69854119D01*
X69163655Y-69802737D01*
X69150218Y-69733023D01*
X69176605Y-69667112D01*
X69212648Y-69635881D01*
X69263650Y-69606435D01*
X69291216Y-69590520D01*
X69403020Y-69478716D01*
X69466089Y-69369477D01*
X69482075Y-69341788D01*
X69482075Y-69341787D01*
X69482077Y-69341784D01*
X69523000Y-69189057D01*
X69523000Y-69030943D01*
X69482077Y-68878216D01*
X69482075Y-68878213D01*
X69482075Y-68878211D01*
X69403022Y-68741287D01*
X69403014Y-68741277D01*
X69285377Y-68623640D01*
X69287817Y-68621199D01*
X69255382Y-68576677D01*
X69248000Y-68534182D01*
X69248000Y-68054649D01*
X69247999Y-68054644D01*
X69237993Y-68017297D01*
X69237993Y-68017296D01*
X69225820Y-67971868D01*
X69225819Y-67971867D01*
X69225818Y-67971861D01*
X69182965Y-67897638D01*
X69182963Y-67897636D01*
X69182959Y-67897631D01*
X69148423Y-67863095D01*
X69114397Y-67800783D01*
X69119462Y-67729968D01*
X69162009Y-67673132D01*
X69228529Y-67648321D01*
X69237518Y-67648000D01*
X69730165Y-67648000D01*
X69798286Y-67668002D01*
G37*
%TD.AperFunction*%
%TA.AperFunction,Conductor*%
G36*
X88070171Y-66345502D02*
G01*
X88116664Y-66399158D01*
X88126768Y-66469432D01*
X88111169Y-66514500D01*
X88065724Y-66593211D01*
X88060009Y-66614540D01*
X88024800Y-66745943D01*
X88024800Y-66904057D01*
X88046485Y-66984987D01*
X88065724Y-67056788D01*
X88144777Y-67193712D01*
X88144785Y-67193722D01*
X88256577Y-67305514D01*
X88256582Y-67305518D01*
X88256584Y-67305520D01*
X88256585Y-67305521D01*
X88256587Y-67305522D01*
X88393511Y-67384575D01*
X88393513Y-67384575D01*
X88393516Y-67384577D01*
X88546243Y-67425500D01*
X88546245Y-67425500D01*
X88704355Y-67425500D01*
X88704357Y-67425500D01*
X88857084Y-67384577D01*
X88857087Y-67384575D01*
X88857088Y-67384575D01*
X88925550Y-67345048D01*
X88994016Y-67305520D01*
X89062132Y-67237403D01*
X89124442Y-67203380D01*
X89151226Y-67200500D01*
X91412983Y-67200500D01*
X91481104Y-67220502D01*
X91502078Y-67237405D01*
X91772595Y-67507922D01*
X91787539Y-67535290D01*
X91804396Y-67561519D01*
X91805301Y-67567817D01*
X91806621Y-67570234D01*
X91809500Y-67597017D01*
X91809500Y-67599181D01*
X91789498Y-67667302D01*
X91770958Y-67687474D01*
X91772123Y-67688639D01*
X91654485Y-67806276D01*
X91654477Y-67806286D01*
X91575424Y-67943210D01*
X91556784Y-68012777D01*
X91534500Y-68095942D01*
X91534500Y-68254056D01*
X91567041Y-68375500D01*
X91575424Y-68406787D01*
X91654477Y-68543711D01*
X91654485Y-68543721D01*
X91772123Y-68661359D01*
X91770659Y-68662822D01*
X91783246Y-68682409D01*
X91802061Y-68708163D01*
X91802903Y-68712996D01*
X91804396Y-68715318D01*
X91809500Y-68750816D01*
X91809500Y-68856073D01*
X91789498Y-68924194D01*
X91735842Y-68970687D01*
X91665568Y-68980791D01*
X91600988Y-68951297D01*
X91594405Y-68945168D01*
X91593722Y-68944485D01*
X91593712Y-68944477D01*
X91456788Y-68865424D01*
X91421889Y-68856073D01*
X91304057Y-68824500D01*
X91145943Y-68824500D01*
X91052470Y-68849545D01*
X90993211Y-68865424D01*
X90856287Y-68944477D01*
X90856277Y-68944485D01*
X90738640Y-69062123D01*
X90736181Y-69059664D01*
X90691836Y-69092061D01*
X90649183Y-69099500D01*
X90175817Y-69099500D01*
X90107696Y-69079498D01*
X90087536Y-69060946D01*
X90086360Y-69062123D01*
X89968722Y-68944485D01*
X89968712Y-68944477D01*
X89831788Y-68865424D01*
X89796889Y-68856073D01*
X89679057Y-68824500D01*
X89520943Y-68824500D01*
X89427470Y-68849545D01*
X89368211Y-68865424D01*
X89231287Y-68944477D01*
X89231277Y-68944485D01*
X89119485Y-69056277D01*
X89119477Y-69056287D01*
X89040424Y-69193211D01*
X89024032Y-69254387D01*
X88999500Y-69345943D01*
X88999500Y-69504057D01*
X89017422Y-69570942D01*
X89040424Y-69656788D01*
X89119477Y-69793712D01*
X89119485Y-69793722D01*
X89231277Y-69905514D01*
X89231282Y-69905518D01*
X89231284Y-69905520D01*
X89231285Y-69905521D01*
X89231287Y-69905522D01*
X89368211Y-69984575D01*
X89368213Y-69984575D01*
X89368216Y-69984577D01*
X89520943Y-70025500D01*
X89520945Y-70025500D01*
X89679055Y-70025500D01*
X89679057Y-70025500D01*
X89831784Y-69984577D01*
X89831787Y-69984575D01*
X89831788Y-69984575D01*
X89927952Y-69929055D01*
X89968716Y-69905520D01*
X90020117Y-69854119D01*
X90086360Y-69787877D01*
X90088818Y-69790335D01*
X90133164Y-69757939D01*
X90175817Y-69750500D01*
X90649183Y-69750500D01*
X90717304Y-69770502D01*
X90737463Y-69789053D01*
X90738640Y-69787877D01*
X90856277Y-69905514D01*
X90856282Y-69905518D01*
X90856284Y-69905520D01*
X90856285Y-69905521D01*
X90856287Y-69905522D01*
X90993211Y-69984575D01*
X90993213Y-69984575D01*
X90993216Y-69984577D01*
X91145943Y-70025500D01*
X91145945Y-70025500D01*
X91304055Y-70025500D01*
X91304057Y-70025500D01*
X91456784Y-69984577D01*
X91456787Y-69984575D01*
X91456788Y-69984575D01*
X91552952Y-69929055D01*
X91593716Y-69905520D01*
X91593722Y-69905514D01*
X91594405Y-69904832D01*
X91595122Y-69904440D01*
X91600268Y-69900492D01*
X91600883Y-69901294D01*
X91656717Y-69870806D01*
X91727532Y-69875871D01*
X91784368Y-69918418D01*
X91809179Y-69984938D01*
X91809500Y-69993927D01*
X91809500Y-73969475D01*
X91789498Y-74037596D01*
X91735842Y-74084089D01*
X91665568Y-74094193D01*
X91600988Y-74064699D01*
X91594405Y-74058570D01*
X87398327Y-69862492D01*
X87364301Y-69800180D01*
X87363171Y-69772808D01*
X87361500Y-69772808D01*
X87361500Y-69606436D01*
X87357236Y-69590522D01*
X87320577Y-69453708D01*
X87320575Y-69453705D01*
X87320575Y-69453703D01*
X87241522Y-69316779D01*
X87241514Y-69316769D01*
X87129722Y-69204977D01*
X87129712Y-69204969D01*
X86992788Y-69125916D01*
X86973870Y-69120847D01*
X86840057Y-69084992D01*
X86681943Y-69084992D01*
X86588470Y-69110037D01*
X86529211Y-69125916D01*
X86392287Y-69204969D01*
X86392277Y-69204977D01*
X86280485Y-69316769D01*
X86280477Y-69316779D01*
X86201424Y-69453703D01*
X86187932Y-69504057D01*
X86160500Y-69606435D01*
X86160500Y-69764549D01*
X86190329Y-69875871D01*
X86201424Y-69917280D01*
X86280477Y-70054204D01*
X86280485Y-70054214D01*
X86392277Y-70166006D01*
X86392282Y-70166010D01*
X86392284Y-70166012D01*
X86392285Y-70166013D01*
X86392287Y-70166014D01*
X86529211Y-70245067D01*
X86529213Y-70245067D01*
X86529216Y-70245069D01*
X86681943Y-70285992D01*
X86681945Y-70285992D01*
X86848316Y-70285992D01*
X86848316Y-70289479D01*
X86902521Y-70297890D01*
X86938000Y-70322819D01*
X91312595Y-74697414D01*
X91346621Y-74759726D01*
X91349500Y-74786509D01*
X91349500Y-76299182D01*
X91329498Y-76367303D01*
X91310958Y-76387475D01*
X91312123Y-76388640D01*
X91194485Y-76506277D01*
X91194477Y-76506287D01*
X91115424Y-76643211D01*
X91092544Y-76728599D01*
X91074500Y-76795943D01*
X91074500Y-76954057D01*
X91105429Y-77069485D01*
X91115424Y-77106788D01*
X91194477Y-77243712D01*
X91194485Y-77243722D01*
X91306277Y-77355514D01*
X91306282Y-77355518D01*
X91306284Y-77355520D01*
X91306285Y-77355521D01*
X91306287Y-77355522D01*
X91443211Y-77434575D01*
X91443213Y-77434575D01*
X91443216Y-77434577D01*
X91595943Y-77475500D01*
X91595945Y-77475500D01*
X91754055Y-77475500D01*
X91754057Y-77475500D01*
X91906784Y-77434577D01*
X91906787Y-77434575D01*
X91906788Y-77434575D01*
X92008046Y-77376114D01*
X92043716Y-77355520D01*
X92155520Y-77243716D01*
X92199319Y-77167853D01*
X92234575Y-77106788D01*
X92234575Y-77106787D01*
X92234577Y-77106784D01*
X92275500Y-76954057D01*
X92275500Y-76795943D01*
X92234577Y-76643216D01*
X92234575Y-76643213D01*
X92234575Y-76643211D01*
X92155522Y-76506287D01*
X92155514Y-76506277D01*
X92037877Y-76388640D01*
X92040317Y-76386199D01*
X92039552Y-76385148D01*
X92025756Y-76374856D01*
X92019081Y-76357049D01*
X92007882Y-76341677D01*
X92006877Y-76324493D01*
X92000836Y-76308377D01*
X92000500Y-76299182D01*
X92000500Y-76065018D01*
X92020502Y-75996897D01*
X92074158Y-75950404D01*
X92144432Y-75940300D01*
X92209012Y-75969794D01*
X92215595Y-75975923D01*
X92280133Y-76040461D01*
X92280142Y-76040468D01*
X92317249Y-76061891D01*
X92317252Y-76061892D01*
X92354361Y-76083318D01*
X92354363Y-76083318D01*
X92354364Y-76083319D01*
X92393188Y-76093722D01*
X92437147Y-76105501D01*
X92530571Y-76105501D01*
X92530587Y-76105500D01*
X94334183Y-76105500D01*
X94402304Y-76125502D01*
X94422463Y-76144053D01*
X94423640Y-76142877D01*
X94541277Y-76260514D01*
X94541282Y-76260518D01*
X94541284Y-76260520D01*
X94541285Y-76260521D01*
X94541287Y-76260522D01*
X94685368Y-76343707D01*
X94683874Y-76346293D01*
X94727993Y-76381845D01*
X94750415Y-76449208D01*
X94732858Y-76518000D01*
X94713590Y-76542802D01*
X93518798Y-77737595D01*
X93456486Y-77771620D01*
X93429703Y-77774500D01*
X91307147Y-77774500D01*
X91262785Y-77786386D01*
X91224364Y-77796681D01*
X91224359Y-77796683D01*
X91172520Y-77826613D01*
X91172519Y-77826612D01*
X91150143Y-77839531D01*
X91150130Y-77839541D01*
X90839540Y-78150131D01*
X90839532Y-78150141D01*
X90796684Y-78224356D01*
X90796680Y-78224367D01*
X90789982Y-78249364D01*
X90774500Y-78307144D01*
X90774500Y-78307147D01*
X90774500Y-80807147D01*
X90774500Y-80892853D01*
X90796682Y-80975639D01*
X90796683Y-80975641D01*
X90796684Y-80975643D01*
X90839532Y-81049858D01*
X90839540Y-81049868D01*
X91700131Y-81910459D01*
X91700136Y-81910463D01*
X91700138Y-81910465D01*
X91774361Y-81953318D01*
X91857147Y-81975500D01*
X91942853Y-81975500D01*
X93962982Y-81975500D01*
X93992897Y-81984283D01*
X94023367Y-81990912D01*
X94028463Y-81994726D01*
X94031103Y-81995502D01*
X94052077Y-82012404D01*
X94212595Y-82172921D01*
X94246620Y-82235233D01*
X94249500Y-82262017D01*
X94249500Y-82854821D01*
X94229498Y-82922942D01*
X94175842Y-82969435D01*
X94105568Y-82979539D01*
X94060501Y-82963941D01*
X93993787Y-82925424D01*
X93993784Y-82925423D01*
X93841057Y-82884500D01*
X93682943Y-82884500D01*
X93589470Y-82909545D01*
X93530211Y-82925424D01*
X93393287Y-83004477D01*
X93393277Y-83004485D01*
X93275640Y-83122123D01*
X93273181Y-83119664D01*
X93228836Y-83152061D01*
X93186183Y-83159500D01*
X92869148Y-83159500D01*
X92786363Y-83181682D01*
X92786362Y-83181682D01*
X92786360Y-83181683D01*
X92755501Y-83199500D01*
X92720342Y-83219799D01*
X92720048Y-83219969D01*
X92712139Y-83224534D01*
X92712132Y-83224540D01*
X89548079Y-86388595D01*
X89485767Y-86422621D01*
X89458984Y-86425500D01*
X87316265Y-86425500D01*
X87248144Y-86405498D01*
X87201651Y-86351842D01*
X87191547Y-86281568D01*
X87196107Y-86264940D01*
X87195439Y-86264761D01*
X87197575Y-86256785D01*
X87197577Y-86256784D01*
X87238500Y-86104057D01*
X87238500Y-85945943D01*
X87197577Y-85793216D01*
X87197575Y-85793213D01*
X87197575Y-85793211D01*
X87118522Y-85656287D01*
X87118514Y-85656277D01*
X87006722Y-85544485D01*
X87006712Y-85544477D01*
X86928148Y-85499119D01*
X86879155Y-85447737D01*
X86865718Y-85378023D01*
X86892105Y-85312112D01*
X86928148Y-85280881D01*
X86955464Y-85265110D01*
X87006716Y-85235520D01*
X87118520Y-85123716D01*
X87197577Y-84986784D01*
X87238500Y-84834057D01*
X87238500Y-84675943D01*
X87197577Y-84523216D01*
X87197575Y-84523213D01*
X87197575Y-84523211D01*
X87118522Y-84386287D01*
X87118514Y-84386277D01*
X87006722Y-84274485D01*
X87006712Y-84274477D01*
X86869788Y-84195424D01*
X86851743Y-84190589D01*
X86717057Y-84154500D01*
X86558943Y-84154500D01*
X86558940Y-84154500D01*
X86476112Y-84176693D01*
X86405136Y-84175003D01*
X86354408Y-84144081D01*
X86012405Y-83802078D01*
X85978379Y-83739766D01*
X85975500Y-83712983D01*
X85975500Y-82920943D01*
X88599500Y-82920943D01*
X88599500Y-83079057D01*
X88632079Y-83200643D01*
X88640424Y-83231788D01*
X88719477Y-83368712D01*
X88719485Y-83368722D01*
X88831277Y-83480514D01*
X88831282Y-83480518D01*
X88831284Y-83480520D01*
X88831285Y-83480521D01*
X88831287Y-83480522D01*
X88968211Y-83559575D01*
X88968213Y-83559575D01*
X88968216Y-83559577D01*
X89120943Y-83600500D01*
X89120945Y-83600500D01*
X89279055Y-83600500D01*
X89279057Y-83600500D01*
X89431784Y-83559577D01*
X89431787Y-83559575D01*
X89431788Y-83559575D01*
X89501818Y-83519143D01*
X89568716Y-83480520D01*
X89610701Y-83438535D01*
X89686360Y-83362877D01*
X89688818Y-83365335D01*
X89733164Y-83332939D01*
X89775817Y-83325500D01*
X90149074Y-83325500D01*
X90217195Y-83345502D01*
X90238164Y-83362400D01*
X90281284Y-83405520D01*
X90281285Y-83405521D01*
X90281287Y-83405522D01*
X90418211Y-83484575D01*
X90418213Y-83484575D01*
X90418216Y-83484577D01*
X90570943Y-83525500D01*
X90570945Y-83525500D01*
X90729055Y-83525500D01*
X90729057Y-83525500D01*
X90881784Y-83484577D01*
X90881787Y-83484575D01*
X90881788Y-83484575D01*
X91003373Y-83414378D01*
X91018716Y-83405520D01*
X91130520Y-83293716D01*
X91192406Y-83186525D01*
X91209575Y-83156788D01*
X91209575Y-83156787D01*
X91209577Y-83156784D01*
X91250500Y-83004057D01*
X91250500Y-82845943D01*
X91209577Y-82693216D01*
X91209575Y-82693213D01*
X91209575Y-82693211D01*
X91130522Y-82556287D01*
X91130514Y-82556277D01*
X91018722Y-82444485D01*
X91018712Y-82444477D01*
X90881788Y-82365424D01*
X90863743Y-82360589D01*
X90729057Y-82324500D01*
X90570943Y-82324500D01*
X90477470Y-82349545D01*
X90418211Y-82365424D01*
X90281287Y-82444477D01*
X90281277Y-82444485D01*
X90169485Y-82556277D01*
X90169477Y-82556287D01*
X90137601Y-82611500D01*
X90128772Y-82619917D01*
X90123706Y-82631012D01*
X90103557Y-82643961D01*
X90086219Y-82660493D01*
X90072748Y-82663761D01*
X90063980Y-82669396D01*
X90028482Y-82674500D01*
X89775817Y-82674500D01*
X89707696Y-82654498D01*
X89687536Y-82635946D01*
X89686360Y-82637123D01*
X89568722Y-82519485D01*
X89568712Y-82519477D01*
X89431788Y-82440424D01*
X89397688Y-82431287D01*
X89279057Y-82399500D01*
X89120943Y-82399500D01*
X89027470Y-82424545D01*
X88968211Y-82440424D01*
X88831287Y-82519477D01*
X88831277Y-82519485D01*
X88719485Y-82631277D01*
X88719477Y-82631287D01*
X88640424Y-82768211D01*
X88640423Y-82768216D01*
X88599500Y-82920943D01*
X85975500Y-82920943D01*
X85975500Y-82157614D01*
X85979793Y-82125003D01*
X85981709Y-82117853D01*
X86001653Y-82043420D01*
X86001653Y-81957714D01*
X86001653Y-81452143D01*
X86001654Y-81452130D01*
X86001654Y-81356274D01*
X86001653Y-81356270D01*
X85979473Y-81273494D01*
X85979469Y-81273484D01*
X85962275Y-81243704D01*
X85962273Y-81243702D01*
X85956852Y-81234312D01*
X85936618Y-81199265D01*
X85876015Y-81138662D01*
X85876012Y-81138660D01*
X85450735Y-80713382D01*
X85450733Y-80713381D01*
X85450731Y-80713379D01*
X85376516Y-80670531D01*
X85376514Y-80670530D01*
X85376512Y-80670529D01*
X85293726Y-80648347D01*
X85293724Y-80648347D01*
X85048980Y-80648347D01*
X84980859Y-80628345D01*
X84959885Y-80611442D01*
X84712405Y-80363962D01*
X84678379Y-80301650D01*
X84675500Y-80274867D01*
X84675500Y-76459407D01*
X84684283Y-76429491D01*
X84690912Y-76399022D01*
X84694726Y-76393925D01*
X84695502Y-76391286D01*
X84712399Y-76370317D01*
X84803683Y-76279033D01*
X84803690Y-76279028D01*
X84871459Y-76211259D01*
X84871465Y-76211253D01*
X84902913Y-76156784D01*
X84914318Y-76137030D01*
X84936501Y-76054244D01*
X84936501Y-75968538D01*
X84936501Y-75960821D01*
X84936500Y-75960803D01*
X84936500Y-75462967D01*
X84936501Y-75462954D01*
X84936501Y-75367098D01*
X84936500Y-75367094D01*
X84914319Y-75284315D01*
X84914315Y-75284305D01*
X84898126Y-75256267D01*
X84898124Y-75256264D01*
X84892891Y-75247201D01*
X84871465Y-75210089D01*
X84810862Y-75149486D01*
X84810860Y-75149484D01*
X84712405Y-75051029D01*
X84678379Y-74988717D01*
X84675500Y-74961934D01*
X84675500Y-74248016D01*
X84675501Y-74248003D01*
X84675501Y-74152147D01*
X84675500Y-74152143D01*
X84653320Y-74069368D01*
X84653319Y-74069366D01*
X84653318Y-74069362D01*
X84622575Y-74016114D01*
X84610465Y-73995138D01*
X84549862Y-73934535D01*
X84549859Y-73934533D01*
X83570105Y-72954778D01*
X83536081Y-72892469D01*
X83541146Y-72821654D01*
X83542794Y-72817467D01*
X83572048Y-72746843D01*
X83572048Y-72746841D01*
X83572051Y-72746835D01*
X83610500Y-72553541D01*
X83610500Y-72356459D01*
X83572051Y-72163165D01*
X83566415Y-72149560D01*
X83558826Y-72078971D01*
X83590604Y-72015484D01*
X83651662Y-71979255D01*
X83722613Y-71981788D01*
X83771919Y-72012246D01*
X84822672Y-73062999D01*
X84856698Y-73125311D01*
X84857857Y-73152685D01*
X84859500Y-73152685D01*
X84859500Y-73160943D01*
X84859500Y-73319057D01*
X84895589Y-73453743D01*
X84900424Y-73471788D01*
X84979477Y-73608712D01*
X84979485Y-73608722D01*
X85091277Y-73720514D01*
X85091282Y-73720518D01*
X85091284Y-73720520D01*
X85091285Y-73720521D01*
X85091287Y-73720522D01*
X85228211Y-73799575D01*
X85228213Y-73799575D01*
X85228216Y-73799577D01*
X85380943Y-73840500D01*
X85380945Y-73840500D01*
X85547316Y-73840500D01*
X85547316Y-73843987D01*
X85601521Y-73852398D01*
X85637000Y-73877327D01*
X88912595Y-77152921D01*
X88946621Y-77215233D01*
X88949500Y-77242016D01*
X88949500Y-78987981D01*
X88940714Y-79017900D01*
X88934083Y-79048375D01*
X88930272Y-79053464D01*
X88929498Y-79056102D01*
X88912589Y-79077083D01*
X88906141Y-79083530D01*
X88843826Y-79117551D01*
X88784441Y-79116135D01*
X88781784Y-79115423D01*
X88629057Y-79074500D01*
X88470943Y-79074500D01*
X88377470Y-79099545D01*
X88318211Y-79115424D01*
X88181287Y-79194477D01*
X88181277Y-79194485D01*
X88069485Y-79306277D01*
X88069477Y-79306287D01*
X87990424Y-79443211D01*
X87970215Y-79518633D01*
X87949500Y-79595943D01*
X87949500Y-79754057D01*
X87959309Y-79790664D01*
X87990424Y-79906788D01*
X88069477Y-80043712D01*
X88069485Y-80043722D01*
X88181277Y-80155514D01*
X88181282Y-80155518D01*
X88181284Y-80155520D01*
X88181285Y-80155521D01*
X88181287Y-80155522D01*
X88318211Y-80234575D01*
X88318213Y-80234575D01*
X88318216Y-80234577D01*
X88470943Y-80275500D01*
X88470945Y-80275500D01*
X88629055Y-80275500D01*
X88629057Y-80275500D01*
X88781784Y-80234577D01*
X88781787Y-80234575D01*
X88781788Y-80234575D01*
X88887502Y-80173541D01*
X88918716Y-80155520D01*
X89030520Y-80043716D01*
X89095141Y-79931788D01*
X89109575Y-79906788D01*
X89109575Y-79906787D01*
X89109577Y-79906784D01*
X89139650Y-79794545D01*
X89172258Y-79738067D01*
X89474859Y-79435466D01*
X89474862Y-79435465D01*
X89535465Y-79374862D01*
X89563964Y-79325500D01*
X89578318Y-79300639D01*
X89600500Y-79217853D01*
X89600500Y-79132147D01*
X89600500Y-77108016D01*
X89600501Y-77108003D01*
X89600501Y-77012147D01*
X89600500Y-77012143D01*
X89578320Y-76929367D01*
X89578319Y-76929365D01*
X89578318Y-76929361D01*
X89540890Y-76864535D01*
X89535465Y-76855138D01*
X89474862Y-76794535D01*
X89474859Y-76794533D01*
X87784431Y-75104105D01*
X86097327Y-73417000D01*
X86063301Y-73354688D01*
X86062171Y-73327316D01*
X86060500Y-73327316D01*
X86060500Y-73160944D01*
X86049390Y-73119480D01*
X86019577Y-73008216D01*
X86019575Y-73008213D01*
X86019575Y-73008211D01*
X85940522Y-72871287D01*
X85940514Y-72871277D01*
X85828722Y-72759485D01*
X85828712Y-72759477D01*
X85750148Y-72714119D01*
X85748753Y-72712656D01*
X85746806Y-72712120D01*
X85724364Y-72687077D01*
X85701155Y-72662737D01*
X85700772Y-72660752D01*
X85699424Y-72659248D01*
X85694085Y-72626059D01*
X85687718Y-72593023D01*
X85688469Y-72591145D01*
X85688149Y-72589152D01*
X85701599Y-72558349D01*
X85714105Y-72527112D01*
X85716007Y-72525353D01*
X85716560Y-72524088D01*
X85725480Y-72516596D01*
X85743268Y-72500154D01*
X85746644Y-72497903D01*
X85828716Y-72450520D01*
X85850657Y-72428578D01*
X85861047Y-72421654D01*
X85883498Y-72414652D01*
X85904144Y-72403379D01*
X85927805Y-72400835D01*
X85928824Y-72400518D01*
X85929367Y-72400667D01*
X85930927Y-72400500D01*
X86773500Y-72400500D01*
X86841621Y-72420502D01*
X86888114Y-72474158D01*
X86899500Y-72526500D01*
X86899500Y-72629057D01*
X86931059Y-72746838D01*
X86940424Y-72781788D01*
X87019477Y-72918712D01*
X87019485Y-72918722D01*
X87131277Y-73030514D01*
X87131282Y-73030518D01*
X87131284Y-73030520D01*
X87131285Y-73030521D01*
X87131287Y-73030522D01*
X87268211Y-73109575D01*
X87268213Y-73109575D01*
X87268216Y-73109577D01*
X87420943Y-73150500D01*
X87420945Y-73150500D01*
X87579055Y-73150500D01*
X87579057Y-73150500D01*
X87731784Y-73109577D01*
X87731787Y-73109575D01*
X87731788Y-73109575D01*
X87827952Y-73054055D01*
X87868716Y-73030520D01*
X87980520Y-72918716D01*
X88059577Y-72781784D01*
X88100500Y-72629057D01*
X88100500Y-72470943D01*
X88059577Y-72318216D01*
X88059575Y-72318213D01*
X88059575Y-72318211D01*
X87980522Y-72181287D01*
X87980514Y-72181277D01*
X87868722Y-72069485D01*
X87868712Y-72069477D01*
X87731788Y-71990424D01*
X87703853Y-71982939D01*
X87579057Y-71949500D01*
X87420943Y-71949500D01*
X87412685Y-71949500D01*
X87412685Y-71946048D01*
X87358264Y-71937499D01*
X87323000Y-71912672D01*
X87224868Y-71814540D01*
X87224858Y-71814532D01*
X87150643Y-71771684D01*
X87150641Y-71771683D01*
X87150639Y-71771682D01*
X87067853Y-71749500D01*
X87067851Y-71749500D01*
X86098838Y-71749500D01*
X86030717Y-71729498D01*
X85989718Y-71686499D01*
X85984731Y-71677861D01*
X85940520Y-71601284D01*
X85940517Y-71601281D01*
X85940514Y-71601277D01*
X85822877Y-71483640D01*
X85825317Y-71481199D01*
X85792882Y-71436677D01*
X85785500Y-71394182D01*
X85785500Y-70788016D01*
X85785501Y-70788003D01*
X85785501Y-70692147D01*
X85785500Y-70692143D01*
X85763320Y-70609368D01*
X85763317Y-70609360D01*
X85751365Y-70588659D01*
X85746286Y-70579862D01*
X85720465Y-70535138D01*
X85659862Y-70474535D01*
X85659859Y-70474533D01*
X83713862Y-68528535D01*
X83713860Y-68528534D01*
X83713858Y-68528532D01*
X83639643Y-68485684D01*
X83639641Y-68485683D01*
X83639639Y-68485682D01*
X83556853Y-68463500D01*
X83197163Y-68463500D01*
X83129042Y-68443498D01*
X83082549Y-68389842D01*
X83072445Y-68319568D01*
X83101939Y-68254988D01*
X83127161Y-68232735D01*
X83127772Y-68232327D01*
X83247782Y-68152139D01*
X83387139Y-68012782D01*
X83496632Y-67848914D01*
X83572051Y-67666835D01*
X83610500Y-67473541D01*
X83610500Y-67276459D01*
X83572051Y-67083165D01*
X83496632Y-66901086D01*
X83387139Y-66737218D01*
X83247782Y-66597861D01*
X83185528Y-66556264D01*
X83140001Y-66501788D01*
X83131153Y-66431345D01*
X83161794Y-66367301D01*
X83222196Y-66329990D01*
X83255531Y-66325500D01*
X88002050Y-66325500D01*
X88070171Y-66345502D01*
G37*
%TD.AperFunction*%
%TA.AperFunction,Conductor*%
G36*
X66732104Y-65471502D02*
G01*
X66753078Y-65488405D01*
X67062672Y-65797999D01*
X67096698Y-65860311D01*
X67097857Y-65887685D01*
X67099500Y-65887685D01*
X67099500Y-65895943D01*
X67099500Y-66054057D01*
X67133435Y-66180706D01*
X67140424Y-66206788D01*
X67223609Y-66350868D01*
X67222363Y-66351587D01*
X67244758Y-66409520D01*
X67230492Y-66479068D01*
X67180889Y-66529863D01*
X67119195Y-66546000D01*
X65607164Y-66546000D01*
X65346353Y-66546000D01*
X65233544Y-66546000D01*
X65147838Y-66546000D01*
X65065052Y-66568182D01*
X65065050Y-66568183D01*
X65065047Y-66568184D01*
X64990832Y-66611032D01*
X64990826Y-66611037D01*
X64882387Y-66719477D01*
X64726639Y-66875225D01*
X63439645Y-68162218D01*
X63377333Y-68196244D01*
X63306517Y-68191179D01*
X63261455Y-68162218D01*
X63218722Y-68119485D01*
X63218712Y-68119477D01*
X63081788Y-68040424D01*
X63063743Y-68035589D01*
X62929057Y-67999500D01*
X62770943Y-67999500D01*
X62677470Y-68024545D01*
X62618211Y-68040424D01*
X62481287Y-68119477D01*
X62481277Y-68119485D01*
X62369485Y-68231277D01*
X62369477Y-68231287D01*
X62290424Y-68368211D01*
X62288471Y-68375500D01*
X62249500Y-68520943D01*
X62249500Y-68679057D01*
X62268728Y-68750816D01*
X62290424Y-68831788D01*
X62369477Y-68968712D01*
X62369485Y-68968722D01*
X62481277Y-69080514D01*
X62481282Y-69080518D01*
X62481284Y-69080520D01*
X62481285Y-69080521D01*
X62481287Y-69080522D01*
X62542531Y-69115881D01*
X62591524Y-69167263D01*
X62604960Y-69236977D01*
X62578574Y-69302888D01*
X62542531Y-69334119D01*
X62481288Y-69369477D01*
X62481278Y-69369485D01*
X62369486Y-69481277D01*
X62369478Y-69481287D01*
X62290425Y-69618211D01*
X62277322Y-69667112D01*
X62249501Y-69770943D01*
X62249501Y-69929057D01*
X62275343Y-70025500D01*
X62290425Y-70081788D01*
X62369478Y-70218712D01*
X62369486Y-70218722D01*
X62481278Y-70330514D01*
X62481283Y-70330518D01*
X62481285Y-70330520D01*
X62481286Y-70330521D01*
X62481288Y-70330522D01*
X62618212Y-70409575D01*
X62618214Y-70409575D01*
X62618217Y-70409577D01*
X62770944Y-70450500D01*
X62770946Y-70450500D01*
X62929056Y-70450500D01*
X62929058Y-70450500D01*
X63081785Y-70409577D01*
X63081788Y-70409575D01*
X63081789Y-70409575D01*
X63188340Y-70348058D01*
X63218717Y-70330520D01*
X63330521Y-70218716D01*
X63384339Y-70125500D01*
X63409576Y-70081788D01*
X63409576Y-70081787D01*
X63409578Y-70081784D01*
X63450501Y-69929057D01*
X63450501Y-69770943D01*
X63450501Y-69762684D01*
X63453980Y-69762684D01*
X63462423Y-69708427D01*
X63487325Y-69673001D01*
X64039481Y-69120845D01*
X64101791Y-69086821D01*
X64172606Y-69091886D01*
X64229442Y-69134433D01*
X64254253Y-69200953D01*
X64241472Y-69259705D01*
X64243585Y-69260580D01*
X64240425Y-69268208D01*
X64240423Y-69268216D01*
X64199500Y-69420943D01*
X64199500Y-69579057D01*
X64228494Y-69687264D01*
X64240424Y-69731788D01*
X64319477Y-69868712D01*
X64319485Y-69868722D01*
X64431277Y-69980514D01*
X64431282Y-69980518D01*
X64431284Y-69980520D01*
X64431285Y-69980521D01*
X64431287Y-69980522D01*
X64568211Y-70059575D01*
X64568213Y-70059575D01*
X64568216Y-70059577D01*
X64720943Y-70100500D01*
X64720945Y-70100500D01*
X64879055Y-70100500D01*
X64879057Y-70100500D01*
X65031784Y-70059577D01*
X65031787Y-70059575D01*
X65031788Y-70059575D01*
X65145494Y-69993927D01*
X65168716Y-69980520D01*
X65280520Y-69868716D01*
X65327192Y-69787877D01*
X65359575Y-69731788D01*
X65359575Y-69731787D01*
X65359577Y-69731784D01*
X65400500Y-69579057D01*
X65400500Y-69420943D01*
X65359577Y-69268216D01*
X65359575Y-69268213D01*
X65359575Y-69268211D01*
X65280522Y-69131287D01*
X65280514Y-69131277D01*
X65162877Y-69013640D01*
X65164341Y-69012175D01*
X65151708Y-68992519D01*
X65132882Y-68966677D01*
X65132060Y-68961945D01*
X65130604Y-68959680D01*
X65125500Y-68924182D01*
X65125500Y-68724828D01*
X65145502Y-68656707D01*
X65162405Y-68635733D01*
X65662233Y-68135905D01*
X65724545Y-68101879D01*
X65751328Y-68099000D01*
X68411483Y-68099000D01*
X68479604Y-68119002D01*
X68500578Y-68135905D01*
X68560095Y-68195422D01*
X68594121Y-68257734D01*
X68597000Y-68284517D01*
X68597000Y-68534182D01*
X68576998Y-68602303D01*
X68558458Y-68622475D01*
X68559623Y-68623640D01*
X68441985Y-68741277D01*
X68441977Y-68741287D01*
X68362924Y-68878211D01*
X68362923Y-68878216D01*
X68322000Y-69030943D01*
X68322000Y-69189057D01*
X68348058Y-69286308D01*
X68362924Y-69341788D01*
X68441977Y-69478712D01*
X68441985Y-69478722D01*
X68553777Y-69590514D01*
X68553782Y-69590518D01*
X68553784Y-69590520D01*
X68553785Y-69590521D01*
X68553787Y-69590522D01*
X68632351Y-69635881D01*
X68681344Y-69687264D01*
X68694780Y-69756977D01*
X68668394Y-69822888D01*
X68632351Y-69854119D01*
X68553787Y-69899477D01*
X68553777Y-69899485D01*
X68436140Y-70017123D01*
X68433681Y-70014664D01*
X68389336Y-70047061D01*
X68346683Y-70054500D01*
X67150817Y-70054500D01*
X67082696Y-70034498D01*
X67062536Y-70015946D01*
X67061360Y-70017123D01*
X66943722Y-69899485D01*
X66943712Y-69899477D01*
X66806788Y-69820424D01*
X66778144Y-69812749D01*
X66654057Y-69779500D01*
X66495943Y-69779500D01*
X66418764Y-69800180D01*
X66343211Y-69820424D01*
X66206287Y-69899477D01*
X66206277Y-69899485D01*
X66088640Y-70017123D01*
X66087176Y-70015659D01*
X66067589Y-70028246D01*
X66041836Y-70047061D01*
X66037002Y-70047903D01*
X66034681Y-70049396D01*
X65999183Y-70054500D01*
X65845587Y-70054500D01*
X65845571Y-70054499D01*
X65837853Y-70054499D01*
X65752147Y-70054499D01*
X65752143Y-70054499D01*
X65669363Y-70076680D01*
X65641315Y-70092874D01*
X65641313Y-70092875D01*
X65632250Y-70098108D01*
X65595138Y-70119535D01*
X65534535Y-70180138D01*
X65534533Y-70180140D01*
X65530254Y-70184418D01*
X65530249Y-70184423D01*
X63727078Y-71987595D01*
X63664766Y-72021621D01*
X63637983Y-72024500D01*
X63425818Y-72024500D01*
X63357697Y-72004498D01*
X63337537Y-71985946D01*
X63336361Y-71987123D01*
X63218723Y-71869485D01*
X63218713Y-71869477D01*
X63081789Y-71790424D01*
X63034395Y-71777725D01*
X62929058Y-71749500D01*
X62770944Y-71749500D01*
X62688152Y-71771684D01*
X62618212Y-71790424D01*
X62481288Y-71869477D01*
X62481278Y-71869485D01*
X62369486Y-71981277D01*
X62369482Y-71981283D01*
X62369481Y-71981284D01*
X62366110Y-71987123D01*
X62290425Y-72118211D01*
X62282025Y-72149561D01*
X62249501Y-72270943D01*
X62249501Y-72429057D01*
X62275611Y-72526500D01*
X62290425Y-72581788D01*
X62369478Y-72718712D01*
X62369486Y-72718722D01*
X62481278Y-72830514D01*
X62481282Y-72830517D01*
X62481285Y-72830520D01*
X62542531Y-72865880D01*
X62591524Y-72917262D01*
X62604961Y-72986975D01*
X62578574Y-73052886D01*
X62542532Y-73084118D01*
X62481285Y-73119479D01*
X62481277Y-73119485D01*
X62363640Y-73237123D01*
X62362176Y-73235659D01*
X62342589Y-73248246D01*
X62316836Y-73267061D01*
X62312002Y-73267903D01*
X62309681Y-73269396D01*
X62274183Y-73274500D01*
X62187017Y-73274500D01*
X62118896Y-73254498D01*
X62097922Y-73237595D01*
X60438405Y-71578078D01*
X60404379Y-71515766D01*
X60401500Y-71488983D01*
X60401500Y-66248827D01*
X60421502Y-66180706D01*
X60438405Y-66159732D01*
X61109732Y-65488405D01*
X61172044Y-65454379D01*
X61198827Y-65451500D01*
X66663983Y-65451500D01*
X66732104Y-65471502D01*
G37*
%TD.AperFunction*%
%TA.AperFunction,Conductor*%
G36*
X75981104Y-65020502D02*
G01*
X76002078Y-65037405D01*
X76137595Y-65172922D01*
X76171621Y-65235234D01*
X76174500Y-65262017D01*
X76174500Y-66907147D01*
X76174500Y-66992853D01*
X76196682Y-67075639D01*
X76196683Y-67075641D01*
X76196684Y-67075643D01*
X76239532Y-67149858D01*
X76239534Y-67149860D01*
X76239535Y-67149862D01*
X77235134Y-68145460D01*
X77235155Y-68145483D01*
X77300131Y-68210459D01*
X77300135Y-68210462D01*
X77300138Y-68210465D01*
X77374362Y-68253318D01*
X77374364Y-68253318D01*
X77374365Y-68253319D01*
X77405389Y-68261632D01*
X77457148Y-68275501D01*
X77550571Y-68275501D01*
X77550587Y-68275500D01*
X80071239Y-68275500D01*
X80110030Y-68283215D01*
X80110239Y-68282439D01*
X80118214Y-68284575D01*
X80118216Y-68284577D01*
X80270943Y-68325500D01*
X80270945Y-68325500D01*
X80429055Y-68325500D01*
X80429057Y-68325500D01*
X80581784Y-68284577D01*
X80581787Y-68284575D01*
X80581788Y-68284575D01*
X80687892Y-68223316D01*
X80718716Y-68205520D01*
X80830520Y-68093716D01*
X80884915Y-67999500D01*
X80909575Y-67956788D01*
X80909575Y-67956787D01*
X80909577Y-67956784D01*
X80950500Y-67804057D01*
X80950500Y-67645943D01*
X80909577Y-67493216D01*
X80909575Y-67493212D01*
X80909575Y-67493211D01*
X80830522Y-67356287D01*
X80830514Y-67356277D01*
X80718722Y-67244485D01*
X80718712Y-67244477D01*
X80581788Y-67165424D01*
X80563743Y-67160589D01*
X80429057Y-67124500D01*
X80270943Y-67124500D01*
X80177470Y-67149545D01*
X80118211Y-67165424D01*
X79981287Y-67244477D01*
X79981277Y-67244485D01*
X79869485Y-67356277D01*
X79869477Y-67356287D01*
X79790424Y-67493212D01*
X79790423Y-67493216D01*
X79780269Y-67531111D01*
X79743319Y-67591733D01*
X79679459Y-67622755D01*
X79658563Y-67624500D01*
X79241551Y-67624500D01*
X79173430Y-67604498D01*
X79126937Y-67550842D01*
X79116833Y-67480568D01*
X79132433Y-67435497D01*
X79134576Y-67431785D01*
X79134577Y-67431784D01*
X79175500Y-67279057D01*
X79175500Y-67120943D01*
X79175500Y-67112684D01*
X79177570Y-67112684D01*
X79182516Y-67089942D01*
X79187410Y-67058453D01*
X79190245Y-67054419D01*
X79190835Y-67051707D01*
X79212324Y-67023002D01*
X79285924Y-66949403D01*
X79348236Y-66915379D01*
X79375018Y-66912500D01*
X79491490Y-66912500D01*
X79491492Y-66912500D01*
X79574278Y-66890318D01*
X79648501Y-66847465D01*
X80133562Y-66362403D01*
X80195873Y-66328380D01*
X80222656Y-66325500D01*
X81964469Y-66325500D01*
X82032590Y-66345502D01*
X82079083Y-66399158D01*
X82089187Y-66469432D01*
X82059693Y-66534012D01*
X82034471Y-66556265D01*
X81972222Y-66597858D01*
X81972215Y-66597863D01*
X81832863Y-66737215D01*
X81832858Y-66737222D01*
X81723368Y-66901085D01*
X81647950Y-67083161D01*
X81647949Y-67083164D01*
X81609500Y-67276455D01*
X81609500Y-67473544D01*
X81647949Y-67666835D01*
X81647950Y-67666838D01*
X81703432Y-67800783D01*
X81723368Y-67848914D01*
X81832861Y-68012782D01*
X81972218Y-68152139D01*
X82090671Y-68231287D01*
X82092839Y-68232735D01*
X82138366Y-68287211D01*
X82147215Y-68357655D01*
X82116574Y-68421699D01*
X82056172Y-68459010D01*
X82022837Y-68463500D01*
X81703853Y-68463500D01*
X81618147Y-68463500D01*
X81535361Y-68485682D01*
X81535359Y-68485683D01*
X81535356Y-68485684D01*
X81461141Y-68528532D01*
X81461136Y-68528536D01*
X81445962Y-68543711D01*
X81427077Y-68562595D01*
X81364768Y-68596620D01*
X81337983Y-68599500D01*
X73219517Y-68599500D01*
X73151396Y-68579498D01*
X73130421Y-68562595D01*
X72342326Y-67774499D01*
X72308301Y-67712187D01*
X72307174Y-67684816D01*
X72305500Y-67684816D01*
X72305500Y-67518444D01*
X72304961Y-67516432D01*
X72264577Y-67365716D01*
X72264575Y-67365713D01*
X72264575Y-67365711D01*
X72185522Y-67228787D01*
X72185514Y-67228777D01*
X72073722Y-67116985D01*
X72073712Y-67116977D01*
X71936788Y-67037924D01*
X71881079Y-67022997D01*
X71784057Y-66997000D01*
X71625943Y-66997000D01*
X71617685Y-66997000D01*
X71617685Y-66993552D01*
X71563239Y-66984987D01*
X71528001Y-66960174D01*
X71178862Y-66611035D01*
X71178860Y-66611034D01*
X71178858Y-66611032D01*
X71104643Y-66568184D01*
X71104641Y-66568183D01*
X71104639Y-66568182D01*
X71021853Y-66546000D01*
X71021851Y-66546000D01*
X68280805Y-66546000D01*
X68212684Y-66525998D01*
X68166191Y-66472342D01*
X68156087Y-66402068D01*
X68177406Y-66351454D01*
X68176391Y-66350868D01*
X68259575Y-66206788D01*
X68259575Y-66206787D01*
X68259577Y-66206784D01*
X68300500Y-66054057D01*
X68300500Y-65895943D01*
X68259577Y-65743216D01*
X68259575Y-65743213D01*
X68259575Y-65743211D01*
X68180522Y-65606287D01*
X68180514Y-65606277D01*
X68068722Y-65494485D01*
X68068712Y-65494477D01*
X67931788Y-65415424D01*
X67913743Y-65410589D01*
X67779057Y-65374500D01*
X67620943Y-65374500D01*
X67612685Y-65374500D01*
X67612685Y-65371052D01*
X67558239Y-65362487D01*
X67522999Y-65337672D01*
X67400922Y-65215595D01*
X67366896Y-65153283D01*
X67371961Y-65082468D01*
X67414508Y-65025632D01*
X67481028Y-65000821D01*
X67490017Y-65000500D01*
X75912983Y-65000500D01*
X75981104Y-65020502D01*
G37*
%TD.AperFunction*%
%TD*%
M02*
